<svg width="492" height="503" viewBox="0 0 492 503" fill="none" xmlns="http://www.w3.org/2000/svg">
<path d="M437.721 113.779L492 89.6951V339.183L436.799 363.709L437.721 113.779Z" fill="#E26D6D"/>
<path d="M437.721 113.779L436.799 363.709L233.48 274.014L234.415 24.0836L437.721 113.779Z" fill="#FF7B7B"/>
<path d="M474.622 89.2825L436.628 106.214L247.698 22.7155L285.587 5.88513L474.622 89.2825Z" fill="#F4F6F9"/>
<path opacity="0.2" d="M482.153 131.937L446.16 147.822L446.805 321.316L482.798 305.432L482.153 131.937Z" fill="#C1C4D3"/>
<path d="M492 89.695L483.812 93.3367L445.91 110.167L437.708 113.809L428.532 109.755L234.402 24.1038L242.604 20.462L437.892 103.638L472.964 88.5582L280.492 3.64172L288.681 0L482.811 85.6508L492 89.695Z" fill="#FF7B7B"/>
<path d="M382.52 138.315L436.799 114.231V363.719L381.599 388.246L382.52 138.315Z" fill="#6540C1"/>
<path d="M382.52 138.315L381.599 388.246L178.28 298.551L179.214 48.62L382.52 138.315Z" fill="#8C50FF"/>
<path d="M419.422 113.819L381.428 130.75L192.498 47.2518L230.386 30.4214L419.422 113.819Z" fill="#F4F6F9"/>
<path opacity="0.2" d="M426.952 156.473L390.959 172.358L391.604 345.853L427.597 329.968L426.952 156.473Z" fill="#C1C4D3"/>
<path d="M436.799 114.231L428.611 117.873L390.709 134.703L382.507 138.345L373.331 134.291L179.201 48.6401L187.403 44.9984L382.692 128.175L417.763 113.095L225.292 28.1781L233.48 24.5364L427.61 110.187L436.799 114.231Z" fill="#7040CC"/>
<path d="M447.489 234.056L453.795 231.249L452.808 497.92L446.489 500.726L447.489 234.056Z" fill="#252935"/>
<path d="M236.877 135.548L19.9581 39.8477L13.6389 42.6544L230.558 138.355L447.489 234.056L453.795 231.249L236.877 135.548Z" fill="#2B303F"/>
<path d="M447.489 234.056L446.489 500.726L229.57 405.026L194.71 383.085L188.772 387.018L12.6516 309.315L13.639 42.6544L230.558 138.355L447.489 234.056Z" fill="#3A4151"/>
<path d="M235.797 149.361L0.921546 73.6794L0 323.6L160.691 394.493C163.441 395.704 166.497 396.454 169.656 396.694C172.815 396.934 176.004 396.657 179.012 395.882C182.021 395.108 184.779 393.853 187.104 392.202C189.429 390.551 191.267 388.54 192.498 386.304V408.537L406.625 503L407.547 253.069L235.797 149.361Z" fill="#F4F6F9"/>
<path d="M192.498 150.628V408.537L406.625 503L407.547 253.069L192.498 150.628Z" fill="#DADCE5"/>
<path d="M383.192 422.822L383.179 427.288L234.981 361.909L234.994 357.442L383.192 422.822Z" fill="#C1C4D3"/>
<path d="M383.271 402.692L383.245 407.158L235.06 341.778L235.073 337.312L383.271 402.692Z" fill="#C1C4D3"/>
<path d="M383.416 362.432L383.403 366.888L235.205 301.508L235.231 297.052L383.416 362.432Z" fill="#C1C4D3"/>
<path d="M383.495 342.292L383.468 346.768L235.284 281.388L235.297 276.922L383.495 342.292Z" fill="#C1C4D3"/>
<path d="M383.56 322.171L383.547 326.628L235.363 261.248L235.376 256.792L383.56 322.171Z" fill="#C1C4D3"/>
<path d="M383.337 382.562L383.323 387.018L235.139 321.648L235.152 317.182L383.337 382.562Z" fill="#C1C4D3"/>
<path d="M383.113 442.952L383.1 447.418L234.915 382.039L234.928 377.572L383.113 442.952Z" fill="#C1C4D3"/>
<path d="M383.047 463.092L383.021 467.548L234.836 402.168L234.849 397.712L383.047 463.092Z" fill="#C1C4D3"/>
<path d="M383.718 281.901L383.692 286.378L235.508 220.998L235.521 216.531L383.718 281.901Z" fill="#C1C4D3"/>
<path d="M383.784 261.771L383.771 266.238L235.586 200.858L235.6 196.391L383.784 261.771Z" fill="#C1C4D3"/>
<path d="M383.639 302.041L383.626 306.498L235.428 241.118L235.455 236.661L383.639 302.041Z" fill="#C1C4D3"/>
<path d="M169.433 368.991L169.42 373.457L21.2351 308.077L21.2483 303.621L169.433 368.991Z" fill="#C1C4D3"/>
<path d="M169.512 348.861L169.499 353.317L21.301 287.937L21.3274 283.481L169.512 348.861Z" fill="#C1C4D3"/>
<path d="M169.735 288.471L169.722 292.927L21.5247 227.547L21.5378 223.091L169.735 288.471Z" fill="#C1C4D3"/>
<path d="M170.038 207.95L170.012 212.407L21.8274 147.027L21.8406 142.57L170.038 207.95Z" fill="#C1C4D3"/>
<path d="M170.104 187.81L170.091 192.277L21.9065 126.897L21.9197 122.43L170.104 187.81Z" fill="#C1C4D3"/>
<path d="M170.183 167.68L170.17 172.147L21.9722 106.767L21.9985 102.3L170.183 167.68Z" fill="#C1C4D3"/>
<path d="M169.959 228.08L169.946 232.537L21.7485 167.157L21.7749 162.7L169.959 228.08Z" fill="#C1C4D3"/>
<path d="M169.657 308.591L169.644 313.057L21.459 247.687L21.4721 243.211L169.657 308.591Z" fill="#C1C4D3"/>
<path d="M169.815 268.34L169.788 272.797L21.6038 207.417L21.6169 202.96L169.815 268.34Z" fill="#C1C4D3"/>
<path d="M169.881 248.2L169.867 252.667L21.6829 187.297L21.696 182.82L169.881 248.2Z" fill="#C1C4D3"/>
<path d="M169.591 328.731L169.564 333.197L21.3799 267.817L21.393 263.351L169.591 328.731Z" fill="#C1C4D3"/>
<path d="M0.921387 73.6794L32.5172 59.6558L203.806 135.538L198.198 138.033C190.311 141.529 181.355 143.371 172.237 143.371C163.119 143.371 154.163 141.529 146.275 138.033L0.921387 73.6794Z" fill="#E6E9EF"/>
<path d="M203.78 135.538L439.117 239.056L407.521 253.069L203.846 163.475C200.623 162.071 197.942 160.041 196.076 157.59C194.209 155.14 193.222 152.356 193.216 149.521C193.209 146.686 194.182 143.9 196.038 141.444C197.893 138.989 200.564 136.952 203.78 135.538Z" fill="#E6E9EF"/>
<path d="M407.547 253.069L439.117 239.056L438.182 488.986L406.625 503L407.547 253.069Z" fill="#C1C4D3"/>
<path d="M263.194 146.011C259.152 151.131 254.886 154.572 249.463 158.868C248.686 159.471 246.711 158.948 245.855 158.757C244.315 158.415 243.42 157.952 241.748 158.455C240.814 158.79 239.908 159.17 239.036 159.592C237.689 160.176 236.239 160.61 234.731 160.88C235.204 160.185 235.731 159.513 236.311 158.868C238.786 156.111 242.406 154.19 245.21 151.614C248.224 148.876 250.974 145.975 253.438 142.932C256.861 137.56 260.587 128.617 262.127 125.076C264.76 119.1 267.222 110.258 269.105 106.113C270.987 101.968 274.371 100.53 277.701 100.077C281.651 99.5437 284.034 100.449 283.086 103.97C281.44 110.167 273.436 134.13 263.194 146.011Z" fill="#FFCEA9"/>
<path d="M272.422 241.531C269.105 243.543 264.22 241.712 263.97 241.903C260.075 244.657 255.993 247.253 251.74 249.679C249.673 250.927 246.474 252.586 247.04 254.971C248.08 259.236 257.019 257.928 260.389 256.621C263.76 255.313 266.524 253.15 269.71 251.591C271.988 250.504 274.226 249.951 274.581 247.748C274.805 246.47 273.001 241.44 272.422 241.531Z" fill="#38226D"/>
<path d="M274.541 246.913C274.107 249.015 271.908 249.599 269.631 250.665C266.392 252.214 263.536 254.427 260.165 255.695C257.045 256.902 249.265 258.099 247.079 255.051C248.264 259.166 257.058 257.878 260.389 256.58C263.72 255.283 266.524 253.11 269.71 251.55C271.987 250.464 274.225 249.91 274.581 247.707C274.603 247.442 274.589 247.176 274.541 246.913Z" fill="#9C73FF"/>
<path d="M238.799 226.732C235.495 228.795 229.689 226.541 229.439 226.732C225.994 229.409 222.345 231.928 218.512 234.277C216.445 235.515 213.246 237.175 213.812 239.569C214.852 243.834 223.791 242.516 227.174 241.219C230.558 239.921 233.296 237.748 236.495 236.189C238.773 235.112 241.011 234.549 241.366 232.356C241.577 231.068 239.391 226.682 238.799 226.732Z" fill="#38226D"/>
<path d="M241.261 231.802C240.826 233.915 238.628 234.489 236.35 235.565C233.112 237.104 230.255 239.327 226.885 240.595C223.764 241.802 215.984 242.999 213.799 239.951C214.997 244.066 223.778 242.778 227.108 241.49C230.439 240.203 233.243 238.02 236.429 236.46C238.707 235.384 240.945 234.82 241.3 232.627C241.324 232.352 241.311 232.076 241.261 231.802Z" fill="#9C73FF"/>
<path d="M316.735 160.356C320.408 177.891 310.153 184.43 296.988 188.162C287.456 190.838 273.831 194.963 273.831 194.963C273.831 194.963 274.015 198.816 274.12 207.447C274.212 215.053 272.909 242.828 272.909 242.828C272.909 242.828 267.419 245.001 262.759 242.738C262.759 242.738 257.414 221.461 256.282 211.874C254.741 198.856 252.135 190.345 253.004 187.549C253.767 185.074 272.382 178.082 278.28 174.34L239.299 184.329C240.074 187.561 240.448 190.842 240.418 194.128C240.062 204.449 239.325 226.793 239.325 226.793C239.325 226.793 233.967 229.75 229.412 226.853C229.412 226.853 219.604 182.589 220.789 176.754C221.921 171.191 256.334 159.833 262.324 155.92C263.385 155.265 264.614 154.787 265.931 154.516C267.249 154.246 268.626 154.19 269.973 154.351L316.735 160.356Z" fill="#E26D6D"/>
<path d="M303.162 94.3427C303.162 94.3427 302.609 102.692 302.846 103.397C303.083 104.101 307.862 106.586 309.258 107.421C310.653 108.256 301.701 115.046 297.409 116.565C293.117 118.084 279.281 114.08 278.978 108.899C278.675 103.719 281.348 99.3827 283.454 99.1614C285.561 98.9401 303.162 94.3427 303.162 94.3427Z" fill="#FFCEA9"/>
<path d="M304.387 104.875C304.387 104.875 296.488 113.929 285.39 114.754C281.901 112.129 281.585 102.773 286.416 99.7851C286.416 99.7851 281.98 97.0488 278.939 97.582C275.674 99.0901 273.243 101.459 272.106 104.242C269.278 110.449 267.94 116.996 268.157 123.567C268.341 132.43 268.157 154.833 268.157 154.833C268.157 154.833 269.815 163.394 279.808 167.66C287.804 171.109 297.22 172.099 306.137 170.426C311.746 169.42 313.826 167.026 315.761 163.918C315.261 157.711 312.035 144.924 313.391 137.118C314.747 129.311 316.906 123.476 317.472 117.159C318.039 110.841 316.38 110.982 312.207 108.728C309.725 107.302 307.111 106.014 304.387 104.875Z" fill="#F4F4F4"/>
<path d="M306.94 180.054L306.927 181.17L270.118 197.518V196.401L306.94 180.054Z" fill="#1F232B"/>
<path d="M270.118 196.401V197.518L212.877 172.267L212.89 171.151L270.118 196.401Z" fill="#2D323E"/>
<path d="M306.94 180.054L270.118 196.401L212.89 171.151L249.699 154.803L306.94 180.054Z" fill="#323846"/>
<path d="M303.031 176.271L269.394 191.21L244.499 181.342L279.334 165.799L303.031 176.271Z" fill="#DADCE5"/>
<path d="M277.359 166.362L278.03 168.586L243.222 182.991L217.09 168.113L250.713 153.174L274.937 163.867C275.544 164.132 276.073 164.491 276.49 164.921C276.907 165.35 277.203 165.841 277.359 166.362Z" fill="#F4F6F9"/>
<path d="M278.162 166.392L278.149 169.732L245.249 183.595L244.539 181.322L278.162 166.392Z" fill="#DADCE5"/>
<path d="M269.394 191.21V194.56L243.249 183.022C243.246 182.68 243.361 182.345 243.583 182.049C243.804 181.753 244.125 181.507 244.512 181.336C244.898 181.165 245.337 181.076 245.783 181.077C246.23 181.078 246.668 181.169 247.053 181.342L269.394 191.21Z" fill="#E6E9EF"/>
<path d="M243.222 181.442V182.991L217.077 171.463V168.113L241.182 178.746C241.802 179.019 242.317 179.411 242.676 179.885C243.034 180.358 243.222 180.895 243.222 181.442Z" fill="#E6E9EF"/>
<path d="M266.866 167.388L266.248 167.66L246.487 158.948L246.803 158.807L247.106 158.666L266.866 167.388Z" fill="#C1C4D3"/>
<path d="M270.658 165.698L270.039 165.98L250.279 157.258L250.581 157.127L250.897 156.986L270.658 165.698Z" fill="#C1C4D3"/>
<path d="M263.088 169.068L262.443 169.35L242.682 160.628L243.011 160.487L243.327 160.346L263.088 169.068Z" fill="#C1C4D3"/>
<path d="M259.297 170.748L258.665 171.03L238.904 162.308L239.207 162.177L239.523 162.036L259.297 170.748Z" fill="#C1C4D3"/>
<path d="M255.505 172.428L254.873 172.71L235.113 163.998L235.429 163.857L235.744 163.716L255.505 172.428Z" fill="#C1C4D3"/>
<path d="M251.714 174.119L251.082 174.4L231.308 165.678L231.637 165.537L231.953 165.396L251.714 174.119Z" fill="#C1C4D3"/>
<path d="M247.922 175.799L247.29 176.08L227.53 167.358L227.846 167.217L228.161 167.087L247.922 175.799Z" fill="#C1C4D3"/>
<path d="M244.131 177.479L243.499 177.77L223.738 169.048L224.054 168.907L224.37 168.767L244.131 177.479Z" fill="#C1C4D3"/>
<path d="M295.987 177.237L295.355 177.509L275.608 168.797L275.924 168.656L276.24 168.525L295.987 177.237Z" fill="#C1C4D3"/>
<path d="M292.209 178.917L291.564 179.199L271.816 170.487L272.132 170.346L272.448 170.205L292.209 178.917Z" fill="#C1C4D3"/>
<path d="M288.404 180.597L287.785 180.879L268.025 172.167L268.341 172.026L268.657 171.885L288.404 180.597Z" fill="#C1C4D3"/>
<path d="M284.613 182.287L283.994 182.559L264.233 173.847L264.563 173.706L264.865 173.575L284.613 182.287Z" fill="#C1C4D3"/>
<path d="M277.03 185.647L276.411 185.929L256.664 177.217L256.966 177.076L257.282 176.935L277.03 185.647Z" fill="#C1C4D3"/>
<path d="M280.834 183.967L280.189 184.249L260.442 175.537L260.758 175.396L261.074 175.255L280.834 183.967Z" fill="#C1C4D3"/>
<path d="M273.238 187.337L272.62 187.619L252.859 178.897L253.175 178.756L253.491 178.625L273.238 187.337Z" fill="#C1C4D3"/>
<path d="M269.46 189.017L268.815 189.299L249.067 180.587L249.383 180.446L249.712 180.305L269.46 189.017Z" fill="#C1C4D3"/>
<path d="M303.03 176.271V179.621L269.46 194.56V191.21L303.03 176.271Z" fill="#C1C4D3"/>
<path d="M291.669 176.845C293.618 176.11 295.039 174.994 297.883 174.118C299.871 173.635 301.677 172.793 303.149 171.664C305.084 170.205 308.27 164.702 310.548 159.33C312.813 153.277 313.703 146.972 313.181 140.689C312.22 133.154 308.665 122.581 307.77 118.295C306.875 114.01 308.705 112.259 311.338 110.64C314.431 108.769 318.71 109.634 320.988 115.67C323.935 124.069 325.644 132.694 326.082 141.383C326.173 147.837 324.87 154.257 322.225 160.386C319.842 166.08 316.735 170.175 312.746 175.316C311.667 176.714 311.311 177.961 309.653 180.818C308.046 183.689 305.553 186.22 302.385 188.192C299.608 189.721 298.291 189.933 297.646 189.641C297.001 189.349 296.988 188.635 298.16 187.79C300.124 186.609 301.8 185.172 303.11 183.545C303.11 183.545 300.687 185.406 299.094 186.422C297.685 187.332 296.122 188.094 294.447 188.685C292.828 189.229 290.563 188.182 291.722 187.337C292.88 186.492 294.052 186.1 296.369 184.561C297.607 183.753 298.712 182.835 299.66 181.824C298.036 182.779 296.315 183.634 294.513 184.38C293.106 185.054 291.474 185.404 289.813 185.386C288.957 185.386 287.917 184.45 289.523 183.555C291.129 182.659 293.236 182.207 295.671 180.346C297.449 178.997 298.449 177.861 297.949 177.831C297.449 177.8 296.488 178.655 294.408 179.158C292.327 179.661 290.089 179.158 289.826 178.334C289.563 177.509 289.721 177.579 291.669 176.845Z" fill="#FFCEA9"/>
<path d="M278.425 81.8884C279.742 75.4097 285.85 70.4904 294.592 70.8224C296.815 70.9173 298.991 71.347 300.996 72.087C303.001 72.8269 304.794 73.8624 306.273 75.1339C307.753 76.4054 308.888 77.8878 309.615 79.4959C310.342 81.1039 310.645 82.8059 310.508 84.504C310.364 86.4707 309.626 88.3852 308.351 90.0974C307.077 91.8096 305.301 93.273 303.162 94.3728C302.868 95.354 302.426 96.306 301.846 97.2098C298.752 99.9763 289.405 101.686 286.706 101.395C283.257 101.012 281.44 99.9159 279.742 97.0287C276.806 91.8981 277.78 85.0975 278.425 81.8884Z" fill="#FFCEA9"/>
<path d="M303.162 94.3326L302.359 88.6789C302.359 88.6789 308.415 76.7176 294.118 79.0112C284.692 80.5303 282.269 81.1842 279.452 76.3554C276.635 71.5266 286.706 67.1706 298.726 68.3778C302.864 68.71 306.689 70.2179 309.441 72.6027C312.194 74.9875 313.674 78.0754 313.589 81.2546C313.325 84.8159 312.009 92.0088 303.162 94.3326Z" fill="#3A2C6D"/>
<path d="M327.623 126.806C327.623 126.806 319.829 132.732 310.6 131.021C309.284 130.337 306.111 116.485 306.111 116.485C306.111 116.485 306.111 108.809 313.813 109.01C321.514 109.211 327.623 126.806 327.623 126.806Z" fill="#EDEDED"/>
<path d="M268.736 115.308C268.736 115.308 264.668 115.157 262.983 113.296C263.286 110.197 268.486 98.417 278.939 97.5417C276.073 99.0637 273.799 101.149 272.356 103.578C270.5 107.159 268.736 115.308 268.736 115.308Z" fill="#EDEDED"/>
<path opacity="0.4" d="M274.147 499.308C297.697 499.308 316.788 490.885 316.788 480.496C316.788 470.106 297.697 461.684 274.147 461.684C250.597 461.684 231.505 470.106 231.505 480.496C231.505 490.885 250.597 499.308 274.147 499.308Z" fill="#D6D8E5"/>
<path d="M337.299 413.164L223.159 412.691L237.64 476.482C237.324 481.512 241.445 486.542 250.068 490.304C266.722 497.658 293.71 497.658 310.363 490.304C317.933 486.964 322.028 482.689 322.712 478.313L337.299 413.164Z" fill="#E2C979"/>
<path d="M280.229 437.077C311.784 437.077 337.364 425.794 337.364 411.876C337.364 397.959 311.784 386.676 280.229 386.676C248.673 386.676 223.093 397.959 223.093 411.876C223.093 425.794 248.673 437.077 280.229 437.077Z" fill="#EFDA86"/>
<path d="M280.229 431.574C266.235 431.574 253.175 429.22 243.472 424.934C235.152 421.212 230.386 416.484 230.386 411.877C230.386 407.269 235.165 402.541 243.486 398.869C253.188 394.593 266.235 392.239 280.242 392.239C294.25 392.239 307.296 394.593 316.999 398.869C325.319 402.541 330.098 407.289 330.098 411.887C330.098 416.484 325.332 421.222 316.999 424.884C307.283 429.17 294.236 431.574 280.229 431.574Z" fill="#28221C"/>
<path d="M304.808 392.018C305.622 383.536 303.857 375.026 299.653 367.152C295.448 359.278 288.918 352.253 280.571 346.627V346.567L280.4 346.446V346.688C272.051 352.312 265.517 359.336 261.31 367.21C257.103 375.085 255.337 383.596 256.15 392.078L223.514 389.724C237.298 429.421 280.611 426.001 280.611 426.001V425.93C283.876 426.122 324.279 427.721 337.496 389.634L304.808 392.018Z" fill="#99B524"/>
<path d="M280.571 426.031C280.571 426.031 277.648 395.127 223.33 374.313C223.33 374.312 210.468 425.659 280.571 426.031Z" fill="#A6CE28"/>
<path d="M280.229 426.031C280.229 426.031 283.151 395.127 337.47 374.313C337.47 374.312 350.332 425.659 280.229 426.031Z" fill="#A6CE28"/>
<path d="M280.492 3.64172V8.1486L285.587 5.8851L280.492 3.64172Z" fill="#C1C4D3"/>
<path d="M225.292 28.1781V32.685L230.386 30.4215L225.292 28.1781Z" fill="#C1C4D3"/>
</svg>
