<svg width="266" height="272" viewBox="0 0 266 272" fill="none" xmlns="http://www.w3.org/2000/svg">
<path opacity="0.4" d="M242.42 132.187C255.443 132.187 266 126.587 266 119.68C266 112.773 255.443 107.173 242.42 107.173C229.397 107.173 218.84 112.773 218.84 119.68C218.84 126.587 229.397 132.187 242.42 132.187Z" fill="#D6D8E5"/>
<path d="M246.146 7.61607C247.064 6.25608 254.095 5.36391 256.405 10.8311C257.281 12.9092 257.151 18.2078 257.885 21.5425C258.62 24.8772 260.343 26.7594 260.965 29.4631C261.587 32.1668 260.574 36.7092 253.508 37.5361C246.442 38.363 240.963 36.051 239.293 33.9783C237.622 31.9057 237.581 27.4884 239.322 25.1166C241.064 22.7447 242.385 20.819 242.343 17.7345L246.146 7.61607Z" fill="#3A2C6D"/>
<path d="M237.723 30.5239C237.723 30.5239 236.059 41.3168 239.204 49.0199C242.349 56.7229 241.484 47.0397 241.484 47.0397L240.726 44.7495C240.726 44.7495 240.092 35.904 240.353 33.728C240.614 31.552 240.554 29.7024 240.726 29.5284C240.898 29.3543 240.098 29.0116 239.767 28.9844C239.435 28.9572 237.723 30.5239 237.723 30.5239Z" fill="#FFCEA9"/>
<path d="M250.79 6.6858C250.79 6.6858 245.494 5.28772 242.284 7.91524C241.225 8.81045 240.454 9.95554 240.055 11.2256C239.656 12.4957 239.644 13.8421 240.021 15.1178C240.448 16.6519 241.307 18.7463 242.633 18.8605C243.96 18.9748 250.79 6.6858 250.79 6.6858Z" fill="#3A2C6D"/>
<path d="M252.809 19.9431C252.809 19.9431 252.466 25.3831 252.572 25.7585C252.679 26.1338 254.888 26.5418 255.504 27.0151C256.12 27.4884 252.3 32.9991 250.351 33.7988C248.403 34.5985 242.379 32.5313 241.964 29.7786C241.573 27.2436 243.688 25.2743 244.499 24.5889C245.052 24.5381 245.609 24.5254 246.164 24.5508L246.341 21.9233C248.977 21.1508 252.809 19.9431 252.809 19.9431Z" fill="#FFCEA9"/>
<path d="M253.621 26.2862C255.279 26.5201 257.175 27.3361 257.429 28.1684C257.737 29.1422 258.389 33.7227 256.955 37.2097C255.522 40.6967 254.557 42.9163 253.727 44.4177C253.727 44.4177 246.56 47.2465 240.779 43.9499C240.779 43.9499 240.377 40.2126 240.353 38.2107C235.022 33.9348 239.577 28.6635 244.102 24.5671C244.644 24.5237 245.189 24.5237 245.731 24.5671C245.731 24.5671 241.698 28.9191 244.499 31.4379C250.505 29.7515 251.696 27.2763 253.621 26.2862Z" fill="#F4F4F4"/>
<path d="M241.792 13.2301C242.385 9.74852 245.121 7.121 249.03 7.33316C250.021 7.38385 250.99 7.61346 251.884 8.00883C252.777 8.40419 253.577 8.95755 254.237 9.63722C254.897 10.3169 255.405 11.1095 255.731 11.9697C256.057 12.8298 256.196 13.7406 256.138 14.65C256.069 15.7072 255.734 16.7354 255.159 17.6537C254.585 18.5721 253.787 19.3557 252.827 19.9431C252.693 20.4697 252.494 20.9807 252.235 21.4663C250.843 22.946 247.17 23.8871 245.956 23.898C244.908 23.898 244.002 23.0112 242.995 21.5152C240.945 18.4036 241.467 14.9492 241.792 13.2301Z" fill="#FFCEA9"/>
<path d="M250.245 7.39297C252.987 7.88801 255.238 8.59521 255.984 11.0704C256.493 12.7731 257.169 16.0154 256.523 17.3863L256.132 18.3709L252.809 19.9431C252.809 19.9431 251.263 18.7571 251.743 15.281C251.724 14.8106 251.562 14.3544 251.275 13.9645C251.069 13.6363 250.916 13.2828 250.819 12.9146C250.425 11.9765 249.656 11.2119 248.669 10.7766C246.193 9.50369 242.574 10.6026 242.071 11.065C242.767 9.68383 243.959 8.56487 245.448 7.89616C246.936 7.22745 248.63 7.04977 250.245 7.39297Z" fill="#3A2C6D"/>
<path d="M257.654 51.5984C258.247 48.0733 259.431 45.7831 258.886 43.8464C257.693 39.9216 256.132 36.0993 254.219 32.4224C253.034 30.2464 253.372 28.7015 254.628 27.8365C256.043 26.8627 257.394 27.2925 258.667 29.7187C260.266 32.776 262.073 35.9149 262.95 40.4682C263.382 42.6768 263.607 44.8202 262.831 49.3571C262.286 52.5287 261.19 54.3075 259.87 57.2832C259.508 58.0938 257.098 54.5904 257.654 51.5984Z" fill="#FFCEA9"/>
<path d="M255.226 117.384C253.84 118.423 251.672 117.705 251.577 117.803C250.162 119.103 248.059 120.235 246.489 121.366C245.625 121.992 244.28 122.83 244.523 124.027C244.961 126.175 248.705 125.517 250.114 124.859C251.524 124.201 252.679 123.113 254.018 122.351C254.965 121.807 255.907 121.524 256.055 120.42C256.144 119.751 255.469 117.363 255.226 117.384Z" fill="#38226D"/>
<path d="M256.037 119.974C255.854 121.062 254.93 121.323 253.982 121.861C252.626 122.639 251.429 123.755 250.019 124.413C248.71 125.017 245.459 125.621 244.541 124.086C245.038 126.159 248.716 125.506 250.114 124.859C251.512 124.212 252.679 123.113 254.018 122.351C254.965 121.807 255.907 121.524 256.055 120.42C256.066 120.271 256.06 120.121 256.037 119.974Z" fill="#9C73FF"/>
<path d="M245.488 115.6C244.221 116.552 242.302 116.019 242.207 116.106C240.916 117.297 238.997 118.32 237.563 119.37C236.77 119.947 235.532 120.708 235.757 121.812C236.159 123.776 239.583 123.172 240.88 122.569C242.177 121.965 243.249 120.969 244.434 120.273C245.305 119.778 246.164 119.517 246.3 118.505C246.4 117.879 245.713 115.578 245.488 115.6Z" fill="#38226D"/>
<path d="M246.306 118.081C246.134 119.049 245.287 119.316 244.422 119.811C243.178 120.523 242.053 121.546 240.791 122.144C239.607 122.688 236.645 123.232 235.774 121.851C236.231 123.744 239.601 123.151 240.88 122.552C242.16 121.954 243.249 120.953 244.434 120.257C245.305 119.762 246.164 119.501 246.3 118.489C246.319 118.353 246.321 118.216 246.306 118.081Z" fill="#9C73FF"/>
<path d="M238.007 56.3203C238.6 51.9303 240.377 45.5437 240.377 45.5437C242.051 46.2633 243.861 46.6754 245.707 46.7568C248.793 46.9037 253.733 46.0387 253.733 46.0387C254.592 47.4219 255.533 48.7604 256.553 50.048C257.933 51.8051 260.61 55.6621 259.964 62.3914C259.538 66.7923 256.855 85.4733 256.855 85.4733C257.9 88.6282 258.457 91.9026 258.507 95.2C258.478 97.92 257.702 102.533 256.825 106.804L255.226 117.406C255.226 117.406 253.094 118.82 251.577 117.825L251.767 107.445C251.583 104.905 251.305 101.157 251.133 98.7415C250.843 94.8464 250.085 88.6557 249.866 87.1107C249.646 85.5658 249.107 82.8675 248.847 79.8375C248.586 76.8074 247.348 61.4339 247.348 61.4339L247.176 64.3171C247.176 64.3171 247.016 68.9901 246.282 74.7619C245.548 80.5338 245.293 83.0906 245.293 83.0906C245.293 83.0906 246.566 85.2339 246.726 86.817C246.857 88.0627 248.408 97.9255 247.479 102.941L245.577 115.698C245.102 115.998 244.557 116.19 243.985 116.259C243.414 116.328 242.833 116.272 242.29 116.095L241.17 103.24C240.418 98.3443 238.801 87.9757 238.582 86.6266C238.262 84.8531 237.99 83.9773 237.634 78.4013C237.279 72.8253 237.397 60.7159 238.007 56.3203Z" fill="#FFCEA9"/>
<path d="M253.727 44.4177L257.874 52.0337C257.874 52.0337 264.158 60.4874 257.648 82.2093L258.839 88.8951C258.839 88.8951 246.507 96.1629 238.256 88.8951C238.256 88.8951 235.395 68.8215 236.918 59.5626C237.762 54.2382 239.048 48.9807 240.762 43.8356C240.762 43.8356 242.782 45.8865 253.2 44.5319" fill="#8C50FF"/>
<path d="M261.119 33.9783C261.119 33.9783 258.259 36.5949 254.865 36.2685L253.236 31.1767C253.236 31.1767 252.175 28.5111 254.651 27.3687C257.127 26.2263 259.698 28.7613 261.119 33.9783Z" fill="#EDEDED"/>
<path d="M244.102 24.5671C244.102 24.5671 240.827 23.6531 237.35 30.3117L238.647 31.0352C238.647 31.0352 242.071 26.2807 244.102 24.5671Z" fill="#EDEDED"/>
<path opacity="0.4" d="M23.5798 183.051C36.6026 183.051 47.1596 177.451 47.1596 170.544C47.1596 163.637 36.6026 158.037 23.5798 158.037C10.557 158.037 0 163.637 0 170.544C0 177.451 10.557 183.051 23.5798 183.051Z" fill="#D6D8E5"/>
<path d="M11.4849 166.703C13.1729 167.965 15.6606 166.812 15.785 166.926C17.7679 168.616 19.8479 170.207 22.0161 171.692C23.0645 172.453 24.7052 173.465 24.3853 174.929C23.8523 177.54 19.3033 176.735 17.5856 175.935C15.8679 175.135 14.4642 173.813 12.8472 172.889C11.6625 172.225 10.5431 171.882 10.3654 170.539C10.2706 169.728 11.1828 166.671 11.4849 166.703Z" fill="#38226D"/>
<path d="M10.4068 169.995C10.626 171.284 11.7514 171.627 12.9064 172.296C14.553 173.237 16.0101 174.597 17.7278 175.397C19.3152 176.131 23.2718 176.865 24.3853 174.999C23.793 177.518 19.3092 176.729 17.6093 175.935C15.9094 175.141 14.4879 173.814 12.8708 172.889C11.6862 172.225 10.5668 171.882 10.3891 170.539C10.373 170.357 10.3789 170.175 10.4068 169.995Z" fill="#9C73FF"/>
<path d="M26.1326 161.704C27.8148 162.966 30.7704 161.584 30.8711 161.704C32.6293 163.336 34.4862 164.876 36.4329 166.317C37.4872 167.079 39.1279 168.091 38.8021 169.554C38.2691 172.165 33.7201 171.36 32.0024 170.56C30.2847 169.761 28.881 168.439 27.264 167.514C26.0793 166.85 24.9658 166.507 24.7881 165.164C24.717 164.353 25.8306 161.671 26.1326 161.704Z" fill="#38226D"/>
<path d="M24.877 164.832C25.102 166.121 26.2274 166.464 27.3765 167.133C29.0291 168.074 30.4861 169.434 32.1979 170.234C33.7853 170.968 37.7478 171.703 38.8614 169.837C38.2691 172.356 33.7794 171.567 32.0794 170.772C30.3795 169.978 28.9639 168.651 27.341 167.726C26.186 167.062 25.0428 166.72 24.8651 165.376C24.8465 165.195 24.8505 165.012 24.877 164.832Z" fill="#9C73FF"/>
<path d="M11.3841 109.485C11.467 111.83 12.2607 121.997 12.6161 127.399C12.9715 132.801 13.0544 139.367 13.0544 139.367C13.0544 139.367 12.0416 143.295 11.3841 147.908C10.7267 152.521 11.3841 167.084 11.3841 167.084C12.0293 167.464 12.7796 167.666 13.5461 167.666C14.3125 167.666 15.0629 167.464 15.708 167.084C15.708 167.084 18.4089 155.432 19.6587 150.182C20.9085 144.932 21.1276 141.902 21.7791 138.649C22.561 134.711 24.255 116.345 24.255 116.345L24.9302 116.383L26.7072 137.126C26.1518 138.654 25.7707 140.231 25.5699 141.832C25.0783 145.21 26.0852 162.21 26.0852 162.21C26.8064 162.578 27.6241 162.757 28.4485 162.726C29.2729 162.695 30.0722 162.456 30.7586 162.036C30.7586 162.036 35.2719 139.52 35.2719 136.092C35.2719 133.829 34.8514 103.948 34.8514 103.948L11.3841 109.485Z" fill="#8C50FF"/>
<path d="M17.5027 64.192C17.5027 64.192 17.7929 69.3002 17.6685 69.7517C17.5442 70.2032 15.1098 71.7047 14.4049 72.2432C13.7001 72.7818 18.2549 76.9053 20.4642 77.8355C22.6736 78.7658 29.6983 76.3123 29.8227 73.1463C29.9471 69.9802 28.6381 67.32 27.5423 67.1623C26.4466 67.0045 17.5027 64.192 17.5027 64.192Z" fill="#FFCEA9"/>
<path d="M32.7428 73.6685C33.0686 71.4163 31.4516 69.273 33.0212 67.4778C38.5119 72.4227 37.813 85.5114 39.0627 93.8836C43.1378 97.8004 51.3354 101.657 53.6454 102.588C54.0659 102.762 54.4272 102.947 54.3443 103.365C54.0126 104.997 53.4973 105.618 52.4371 107.173C47.0115 105.025 43.1023 103.79 36.3263 97.8765C35.6835 97.2391 35.1083 96.5469 34.6086 95.8093C32.6717 90.5216 32.186 77.5581 32.7428 73.6685Z" fill="#FFCEA9"/>
<path d="M16.8808 70.6329C16.8808 70.6329 20.9203 76.16 26.5532 76.704C28.3301 75.072 28.49 69.3709 26.0319 67.543C26.0319 67.543 28.2946 65.8675 29.8405 66.1939C31.5006 67.1183 32.7367 68.567 33.3173 70.2685C34.7505 74.0702 35.4227 78.0788 35.3016 82.1005C35.2068 87.5405 35.3016 104.089 35.3016 104.089C35.3016 104.089 34.5138 107.592 29.4199 110.198C24.3261 112.804 20.5353 113.06 17.0822 112.32C14.2272 111.71 11.8698 110.786 10.8925 108.887C11.1472 105.079 12.9952 95.1674 12.3022 90.391C11.6092 85.6147 10.5253 82.0406 10.2291 78.1782C9.93298 74.3158 10.7859 74.3702 12.8945 73.0157C14.16 72.1355 15.4921 71.3392 16.8808 70.6329Z" fill="#F4F4F4"/>
<path d="M30.0952 56.576C29.4318 52.6103 26.3222 49.602 21.868 49.8304C19.5927 49.947 17.461 50.8886 15.9415 52.4484C14.422 54.0082 13.6392 56.0584 13.7652 58.1482C13.8381 59.3522 14.2134 60.5244 14.8618 61.5729C15.5102 62.6215 16.4141 63.5179 17.5027 64.192C17.6586 64.7935 17.8912 65.376 18.1957 65.9274C19.7653 67.6192 24.5334 68.6474 25.8957 68.4842C27.6727 68.2557 28.6085 67.5811 29.4496 65.8186C30.9244 62.6906 30.4624 58.529 30.0952 56.576Z" fill="#FFCEA9"/>
<path d="M17.5027 64.192L17.9114 60.7322C17.9114 60.7322 14.8077 53.3991 22.1109 54.808C26.9086 55.7328 28.1169 56.1354 29.5799 53.176C31.0429 50.2167 25.8839 47.5565 19.7653 48.28C17.6578 48.4841 15.7105 49.4073 14.3087 50.867C12.9069 52.3268 12.1528 54.2166 12.1956 56.1626C12.3556 58.3549 12.9893 62.7613 17.5027 64.192Z" fill="#3A2C6D"/>
<path d="M8.98528 75.8716C11.0939 75.3276 9.48874 75.7792 11.0939 75.3276C16.5846 80.278 15.9034 88.7536 17.1473 97.1312C20.1799 101.733 31.4338 107.973 31.4338 107.973C31.5759 108.865 31.2324 109.126 30.0182 110.927C24.5985 108.778 20.0555 106.923 13.2795 101.015C13.013 100.781 12.6221 100.722 12.5095 100.401C10.5727 95.0531 8.42258 79.7667 8.98528 75.8716Z" fill="#FFCEA9"/>
<path d="M59.0591 86.1914L50.8793 111.879L32.9324 118.467L39.4774 93.4429L59.0591 86.1914Z" fill="#F4F4F4"/>
<path d="M28.6026 108.147C28.8691 107.271 29.5622 107.489 30.3381 107.707C31.1796 108.02 32.1039 108.093 32.9916 107.919C33.732 107.707 34.2651 107.124 34.8929 106.738C35.252 106.542 35.6598 106.433 36.0775 106.423C36.042 106.646 35.6689 107.951 35.6689 107.951C35.6689 107.951 39.6018 107.989 40.0046 107.913C40.1379 107.897 40.2736 107.918 40.3937 107.974C40.5137 108.029 40.6124 108.117 40.6767 108.226C40.741 108.335 40.7678 108.459 40.7535 108.582C40.7392 108.704 40.6846 108.821 40.5969 108.914L40.8634 108.876C41.6689 108.713 42.0125 109.844 41.201 110.013C40.9878 110.057 40.7686 110.078 40.5436 110.106C41.0707 110.291 41.201 111.09 40.5436 111.194L40.3422 111.226C40.2497 111.258 40.1506 111.271 40.0519 111.264H39.9276C39.9462 111.351 39.9455 111.44 39.9255 111.526C39.9055 111.612 39.8666 111.693 39.8111 111.765C39.7557 111.837 39.6849 111.897 39.6031 111.943C39.5213 111.989 39.4301 112.019 39.3352 112.031C37.4162 112.265 34.5968 112.967 32.8554 111.515C31.6503 111.405 30.4734 111.113 29.3726 110.65C28.3124 110.187 28.2828 109.197 28.6026 108.147Z" fill="#FFCEA9"/>
<path d="M48.2376 106.047H48.5041C48.3979 105.971 48.3196 105.867 48.2796 105.748C48.2397 105.63 48.24 105.503 48.2805 105.385C48.3211 105.267 48.3999 105.162 48.5066 105.086C48.6132 105.01 48.7425 104.966 48.8773 104.959C49.2919 104.959 53.3374 104.182 53.3374 104.182L53.8231 102.653C53.8231 102.566 54.5279 102.958 54.5516 102.974C54.8941 103.18 55.1817 103.454 55.3929 103.776C55.6042 104.098 55.7337 104.46 55.7718 104.834C55.7914 105.36 55.6967 105.885 55.4934 106.377C55.29 106.869 54.9819 107.319 54.5872 107.701C53.8601 108.375 52.8775 108.765 51.8448 108.789C51.3531 108.816 50.8793 108.838 50.4588 108.871C50.3657 108.871 50.2736 108.854 50.1877 108.821C50.1017 108.788 50.0238 108.74 49.9582 108.679C49.8927 108.619 49.8409 108.547 49.8059 108.467C49.7708 108.388 49.7531 108.303 49.7539 108.218H49.6295C49.5341 108.239 49.4347 108.239 49.3393 108.218H49.132C48.4449 108.218 48.3916 107.435 48.8595 107.13C48.6404 107.13 48.4153 107.168 48.1961 107.168C47.3373 107.217 47.3847 106.042 48.2376 106.047Z" fill="#FFCEA9"/>
<path d="M35.0351 77.0195C35.0351 77.0195 37.1081 76.9216 37.967 75.8119C37.8071 73.9133 35.1594 66.7053 29.8405 66.1667C31.2904 67.0995 32.4402 68.3735 33.1693 69.8551C34.1348 72.0256 35.0351 77.0195 35.0351 77.0195Z" fill="#EDEDED"/>
<path d="M8.02576 86.545C8.02576 86.545 13.321 88.2205 17.0526 85.4026C17.4612 84.7552 14.8906 76.481 14.8906 76.481C14.8906 76.481 12.6695 72.2486 9.19261 73.9296C5.71576 75.6106 8.02576 86.545 8.02576 86.545Z" fill="#EDEDED"/>
<path opacity="0.4" d="M62.0147 219.89C63.7027 219.89 65.0711 219.164 65.0711 218.269C65.0711 217.374 63.7027 216.648 62.0147 216.648C60.3268 216.648 58.9584 217.374 58.9584 218.269C58.9584 219.164 60.3268 219.89 62.0147 219.89Z" fill="#D6D8E5"/>
<path opacity="0.4" d="M119.255 249.87C120.943 249.87 122.312 249.144 122.312 248.249C122.312 247.354 120.943 246.628 119.255 246.628C117.568 246.628 116.199 247.354 116.199 248.249C116.199 249.144 117.568 249.87 119.255 249.87Z" fill="#D6D8E5"/>
<path opacity="0.4" d="M218.473 194.295C220.161 194.295 221.529 193.569 221.529 192.674C221.529 191.779 220.161 191.053 218.473 191.053C216.785 191.053 215.417 191.779 215.417 192.674C215.417 193.569 216.785 194.295 218.473 194.295Z" fill="#D6D8E5"/>
<path d="M60.0246 163.369V217.943C60.0381 218.111 60.1001 218.274 60.2041 218.413C60.3082 218.553 60.4506 218.664 60.6169 218.737C61.082 218.954 61.5965 219.068 62.1184 219.068C62.6403 219.068 63.1548 218.954 63.6199 218.737C63.7858 218.664 63.9279 218.552 64.0319 218.413C64.1358 218.273 64.198 218.111 64.2122 217.943V163.369H60.0246Z" fill="#C1C4D3"/>
<path d="M117.402 184.606V247.944C117.412 248.108 117.466 248.267 117.56 248.407C117.655 248.547 117.785 248.663 117.941 248.744C118.339 248.96 118.793 249.075 119.255 249.075C119.718 249.075 120.172 248.96 120.57 248.744C120.726 248.663 120.858 248.547 120.953 248.408C121.048 248.268 121.104 248.109 121.115 247.944V184.606H117.402Z" fill="#C1C4D3"/>
<path d="M216.613 140.613V192.261C216.624 192.424 216.679 192.583 216.775 192.722C216.87 192.861 217.002 192.975 217.158 193.055C217.555 193.271 218.008 193.385 218.47 193.385C218.932 193.385 219.385 193.271 219.782 193.055C219.938 192.975 220.07 192.861 220.166 192.722C220.261 192.583 220.316 192.424 220.327 192.261V140.613H216.613Z" fill="#C1C4D3"/>
<path d="M119.255 200.861L56.3167 167.487V163.586L119.255 196.966V200.861Z" fill="#62C8E8"/>
<path d="M225.374 140.809L119.244 197.086L56.299 163.711L162.429 107.435L225.374 140.809Z" fill="#6CD4FF"/>
<path d="M225.385 144.584L119.255 200.861V196.966L225.385 140.689V144.584Z" fill="#5CBFD6"/>
<path d="M195.095 129.581L178.172 142.599L162.713 136.947L179.635 123.929L195.095 129.581Z" fill="#F4F4F4"/>
<path d="M191.168 130.185L170.087 141.364L156.814 134.324L177.894 123.145L191.168 130.185Z" fill="#F4F4F4"/>
<path d="M171.497 138.345L170.206 139.03L161.452 134.39L162.743 133.704L171.497 138.345Z" fill="#D6D8E5"/>
<path d="M174.399 136.805L173.108 137.491L164.36 132.85L165.651 132.165L174.399 136.805Z" fill="#D6D8E5"/>
<path d="M177.195 135.325L175.904 136.005L167.155 131.371L168.447 130.685L177.195 135.325Z" fill="#D6D8E5"/>
<path d="M183.758 131.844L182.467 132.529L177.373 129.831L178.664 129.146L183.758 131.844Z" fill="#D6D8E5"/>
<path d="M186.554 130.364L185.262 131.044L180.169 128.346L181.46 127.661L186.554 130.364Z" fill="#D6D8E5"/>
<path d="M172.474 140.515C172.824 140.379 191.168 130.179 191.168 130.179L172.006 140.352L172.474 140.515Z" fill="#D6D6D6"/>
<path opacity="0.2" d="M175.472 156.264C178.01 156.264 180.068 155.173 180.068 153.827C180.068 152.481 178.01 151.39 175.472 151.39C172.933 151.39 170.875 152.481 170.875 153.827C170.875 155.173 172.933 156.264 175.472 156.264Z" fill="black"/>
<path d="M180.518 153.479V146.978L171.343 147.19V153.174C171.171 153.892 171.604 154.648 172.652 155.203C173.661 155.675 174.777 155.921 175.91 155.921C177.042 155.921 178.158 155.675 179.167 155.203C179.54 155.052 179.861 154.813 180.098 154.51C180.336 154.207 180.481 153.851 180.518 153.479Z" fill="#A6CE28"/>
<path d="M175.922 149.415C178.46 149.415 180.518 148.324 180.518 146.978C180.518 145.632 178.46 144.541 175.922 144.541C173.383 144.541 171.325 145.632 171.325 146.978C171.325 148.324 173.383 149.415 175.922 149.415Z" fill="#BCD64D"/>
<path d="M179.789 146.978C179.789 147.375 179.434 147.794 178.806 148.12C178.009 148.511 177.122 148.724 176.218 148.74H175.916C174.912 148.76 173.919 148.545 173.031 148.115C172.409 147.788 172.048 147.37 172.048 146.972C172.048 146.575 172.409 146.162 173.031 145.83C173.919 145.4 174.912 145.185 175.916 145.204H176.212C177.116 145.221 178.003 145.434 178.8 145.825C179.434 146.167 179.789 146.581 179.789 146.978Z" fill="#28221C"/>
<path opacity="0.07" d="M179.789 146.978C179.789 147.375 179.434 147.794 178.806 148.12C178.014 148.525 177.122 148.738 176.215 148.738C175.308 148.738 174.416 148.525 173.623 148.12C173.002 147.794 172.64 147.375 172.64 146.978C172.64 146.581 173.002 146.167 173.623 145.836C174.416 145.431 175.308 145.218 176.215 145.218C177.122 145.218 178.014 145.431 178.806 145.836C179.434 146.167 179.789 146.581 179.789 146.978Z" fill="white"/>
<path d="M179.849 149.986L178.871 149.469L178.398 149.725L178.871 149.975V150.139L179.784 150.623V150.781C180.003 151.069 180.201 151.371 180.376 151.684L180.411 151.656V153.751C180.411 154.295 180.062 154.115 179.908 154.034L178.883 153.49L178.409 153.745L178.883 153.996V154.159L179.908 154.703C180.014 154.76 180.128 154.806 180.246 154.839L180.18 155.105L180.713 154.828C180.827 154.739 180.914 154.626 180.968 154.499C181.022 154.372 181.04 154.234 181.021 154.099V151.923C180.999 151.54 180.881 151.166 180.678 150.83C180.475 150.495 180.191 150.206 179.849 149.986Z" fill="#8DA01F"/>
<path d="M179.422 154.958L178.398 154.414V153.745L179.422 154.289C179.57 154.365 179.926 154.55 179.926 154.001V151.825C179.908 151.64 179.846 151.461 179.743 151.301C179.641 151.141 179.501 151.004 179.333 150.9L178.403 150.405V149.736L179.381 150.253C179.722 150.469 180.006 150.753 180.211 151.083C180.416 151.414 180.537 151.783 180.565 152.162V154.338C180.554 154.926 180.257 155.399 179.422 154.958Z" fill="#99B524"/>
<path opacity="0.2" d="M84.7949 165.033C87.3334 165.033 89.3913 163.942 89.3913 162.596C89.3913 161.25 87.3334 160.159 84.7949 160.159C82.2565 160.159 80.1986 161.25 80.1986 162.596C80.1986 163.942 82.2565 165.033 84.7949 165.033Z" fill="black"/>
<path d="M89.8414 162.248V155.747L80.6665 155.959V161.943C80.4948 162.667 80.9331 163.423 81.9755 163.972C82.9846 164.444 84.1009 164.69 85.2332 164.69C86.3656 164.69 87.4819 164.444 88.4909 163.972C88.8634 163.822 89.1851 163.583 89.4226 163.28C89.6602 162.976 89.8048 162.62 89.8414 162.248Z" fill="#F7B03E"/>
<path d="M85.2451 158.184C87.7836 158.184 89.8414 157.093 89.8414 155.747C89.8414 154.401 87.7836 153.31 85.2451 153.31C82.7066 153.31 80.6488 154.401 80.6488 155.747C80.6488 157.093 82.7066 158.184 85.2451 158.184Z" fill="#FCC068"/>
<path d="M89.1129 155.747C89.1129 156.144 88.7516 156.558 88.1296 156.89C87.3308 157.278 86.4447 157.49 85.5412 157.51H85.2451C84.2414 157.529 83.2488 157.314 82.3606 156.884C81.7327 156.552 81.3773 156.139 81.3773 155.742C81.3773 155.345 81.7327 154.926 82.3606 154.594C83.2493 154.166 84.2419 153.953 85.2451 153.974H85.5412C86.4446 153.989 87.3313 154.2 88.1296 154.589C88.7516 154.931 89.1129 155.35 89.1129 155.747Z" fill="#28221C"/>
<path opacity="0.07" d="M89.1129 155.747C89.1129 156.144 88.7515 156.558 88.1296 156.89C87.3371 157.294 86.4452 157.507 85.5383 157.507C84.6314 157.507 83.7395 157.294 82.9469 156.89C82.3546 156.558 81.9637 156.144 81.9637 155.747C81.9637 155.35 82.325 154.931 82.9469 154.599C83.7395 154.194 84.6314 153.982 85.5383 153.982C86.4452 153.982 87.3371 154.194 88.1296 154.599C88.7515 154.931 89.1129 155.35 89.1129 155.747Z" fill="white"/>
<path d="M89.1662 158.756L88.1948 158.239L87.715 158.489L88.1948 158.745V158.908L89.107 159.392L89.0773 159.55C89.2986 159.837 89.4965 160.139 89.6697 160.453L89.6993 160.426V162.52C89.6993 163.064 89.3498 162.885 89.2017 162.803L88.177 162.259L87.6973 162.509L88.177 162.765V162.928L89.2017 163.472C89.3061 163.529 89.4175 163.575 89.5334 163.608L89.4742 163.875L90.0073 163.597C90.1229 163.509 90.2124 163.396 90.2673 163.267C90.3222 163.139 90.3407 163 90.3212 162.863V160.687C90.2997 160.306 90.1847 159.934 89.9847 159.6C89.7846 159.265 89.5048 158.977 89.1662 158.756Z" fill="#C9883A"/>
<path d="M88.7456 163.744L87.715 163.2V162.525L88.7456 163.069C88.8937 163.151 89.2432 163.336 89.2432 162.787V160.611C89.2234 160.425 89.1602 160.247 89.0579 160.086C88.9557 159.925 88.8168 159.787 88.6509 159.68L87.715 159.191V158.516L88.6923 159.06C89.0337 159.276 89.3176 159.56 89.5228 159.89C89.7279 160.221 89.849 160.59 89.877 160.97V163.146C89.877 163.695 89.5808 164.168 88.7456 163.744Z" fill="#E09C3B"/>
<path opacity="0.2" d="M143.469 146.494L129.846 139.264C129.728 139.2 129.593 139.166 129.455 139.166C129.318 139.166 129.183 139.2 129.064 139.264L105.147 151.95L119.155 159.392L143.469 146.494Z" fill="black"/>
<path d="M144.115 145.074L130.492 137.844C130.373 137.78 130.238 137.746 130.101 137.746C129.963 137.746 129.828 137.78 129.71 137.844L105.792 150.53L119.818 157.967L144.115 145.074Z" fill="#F4F4F4"/>
<path d="M119.173 155.307L118.13 155.851C118.047 155.9 118.059 155.976 118.13 156.03L119.125 156.574C119.177 156.598 119.233 156.611 119.291 156.611C119.349 156.611 119.405 156.598 119.457 156.574L120.493 156.03C120.576 155.987 120.57 155.91 120.493 155.856L119.504 155.312C119.453 155.288 119.396 155.276 119.339 155.275C119.282 155.274 119.225 155.285 119.173 155.307Z" fill="#2B303F"/>
<path d="M120.641 154.529L119.605 155.073C119.516 155.116 119.528 155.198 119.605 155.247L120.594 155.791C120.646 155.813 120.703 155.825 120.76 155.825C120.817 155.825 120.874 155.813 120.926 155.791L121.962 155.247C122.051 155.203 122.039 155.122 121.962 155.073L120.973 154.529C120.922 154.503 120.865 154.49 120.807 154.49C120.749 154.49 120.692 154.503 120.641 154.529Z" fill="#2B303F"/>
<path d="M122.128 153.74L121.092 154.284C121.009 154.327 121.015 154.409 121.092 154.458L122.081 155.002C122.133 155.025 122.189 155.036 122.247 155.036C122.304 155.036 122.361 155.025 122.412 155.002L123.455 154.458C123.538 154.414 123.526 154.333 123.455 154.284L122.46 153.74C122.409 153.715 122.352 153.701 122.294 153.701C122.236 153.701 122.179 153.715 122.128 153.74Z" fill="#2B303F"/>
<path d="M123.585 152.967L122.543 153.511C122.46 153.555 122.472 153.636 122.543 153.685L123.538 154.229C123.589 154.255 123.646 154.268 123.704 154.268C123.762 154.268 123.819 154.255 123.87 154.229L124.906 153.685C124.995 153.642 124.983 153.56 124.906 153.511L123.917 152.967C123.865 152.945 123.808 152.933 123.751 152.933C123.694 152.933 123.637 152.945 123.585 152.967Z" fill="#2B303F"/>
<path d="M125.054 152.184L124.018 152.728C123.935 152.772 123.941 152.848 124.018 152.902L125.007 153.446C125.059 153.469 125.115 153.481 125.173 153.481C125.23 153.481 125.287 153.469 125.338 153.446L126.381 152.902C126.464 152.853 126.452 152.777 126.381 152.723L125.386 152.179C125.334 152.156 125.277 152.144 125.219 152.145C125.162 152.146 125.105 152.159 125.054 152.184Z" fill="#2B303F"/>
<path d="M126.529 151.406L125.487 151.95C125.404 151.999 125.415 152.075 125.487 152.13L126.482 152.674C126.533 152.699 126.59 152.712 126.647 152.712C126.705 152.712 126.762 152.699 126.813 152.674L127.85 152.13C127.933 152.086 127.927 152.004 127.85 151.956L126.861 151.412C126.809 151.388 126.753 151.375 126.696 151.374C126.638 151.373 126.581 151.384 126.529 151.406Z" fill="#2B303F"/>
<path d="M127.998 150.628L126.961 151.172C126.873 151.216 126.884 151.297 126.961 151.346L127.951 151.89C128.002 151.913 128.059 151.925 128.116 151.925C128.174 151.925 128.23 151.913 128.282 151.89L129.319 151.346C129.408 151.303 129.396 151.221 129.319 151.172L128.33 150.628C128.279 150.603 128.222 150.59 128.164 150.59C128.106 150.59 128.049 150.603 127.998 150.628Z" fill="#2B303F"/>
<path d="M129.467 149.845L128.43 150.389C128.347 150.438 128.353 150.514 128.43 150.568L129.419 151.112C129.471 151.136 129.528 151.149 129.585 151.149C129.643 151.149 129.7 151.136 129.751 151.112L130.794 150.568C130.877 150.525 130.865 150.449 130.794 150.394L129.799 149.85C129.747 149.827 129.691 149.814 129.633 149.813C129.576 149.812 129.519 149.823 129.467 149.845Z" fill="#2B303F"/>
<path d="M130.942 149.056L129.899 149.6C129.816 149.644 129.828 149.725 129.899 149.774L130.894 150.318C130.946 150.342 131.003 150.354 131.06 150.354C131.118 150.354 131.175 150.342 131.226 150.318L132.263 149.774C132.351 149.731 132.34 149.649 132.263 149.6L131.273 149.056C131.222 149.031 131.165 149.018 131.108 149.018C131.05 149.018 130.993 149.031 130.942 149.056Z" fill="#2B303F"/>
<path d="M132.411 148.284L131.374 148.828C131.291 148.871 131.297 148.947 131.374 149.002L132.363 149.546C132.415 149.568 132.472 149.58 132.529 149.58C132.587 149.58 132.643 149.568 132.695 149.546L133.737 149.002C133.82 148.953 133.808 148.876 133.737 148.822L132.742 148.278C132.69 148.255 132.633 148.243 132.576 148.244C132.518 148.245 132.462 148.259 132.411 148.284Z" fill="#2B303F"/>
<path d="M133.862 147.506L132.819 148.05C132.736 148.093 132.748 148.175 132.819 148.224L133.814 148.768C133.865 148.793 133.922 148.806 133.98 148.806C134.038 148.806 134.095 148.793 134.146 148.768L135.183 148.224C135.266 148.18 135.26 148.099 135.183 148.05L134.193 147.506C134.142 147.483 134.085 147.471 134.028 147.471C133.97 147.471 133.914 147.483 133.862 147.506Z" fill="#2B303F"/>
<path d="M135.354 146.722L134.318 147.266C134.229 147.31 134.241 147.386 134.318 147.44L135.307 147.984C135.359 148.007 135.415 148.019 135.473 148.019C135.53 148.019 135.587 148.007 135.639 147.984L136.675 147.44C136.764 147.391 136.752 147.315 136.675 147.261L135.686 146.717C135.634 146.694 135.577 146.682 135.52 146.683C135.462 146.684 135.405 146.697 135.354 146.722Z" fill="#2B303F"/>
<path d="M136.823 145.944L135.787 146.488C135.704 146.537 135.71 146.613 135.787 146.668L136.776 147.212C136.827 147.236 136.884 147.248 136.942 147.248C136.999 147.248 137.056 147.236 137.108 147.212L138.15 146.668C138.233 146.624 138.221 146.548 138.15 146.494L137.155 145.95C137.104 145.926 137.047 145.913 136.99 145.913C136.932 145.912 136.876 145.922 136.823 145.944Z" fill="#2B303F"/>
<path d="M139.009 144.791L137.232 145.716C137.149 145.759 137.161 145.841 137.232 145.89L138.227 146.434C138.279 146.457 138.336 146.468 138.393 146.468C138.45 146.468 138.507 146.457 138.559 146.434L140.336 145.509C140.419 145.466 140.407 145.384 140.336 145.335L139.341 144.791C139.29 144.765 139.233 144.751 139.175 144.751C139.117 144.751 139.06 144.765 139.009 144.791Z" fill="#2B303F"/>
<path d="M119.925 153.408L118.888 153.952C118.805 153.995 118.811 154.072 118.888 154.126L119.877 154.67C119.929 154.693 119.986 154.705 120.043 154.705C120.101 154.705 120.157 154.693 120.209 154.67L121.252 154.126C121.334 154.077 121.323 154.001 121.252 153.947L120.239 153.408C120.19 153.387 120.136 153.376 120.082 153.376C120.027 153.376 119.974 153.387 119.925 153.408Z" fill="#2B303F"/>
<path d="M121.423 152.614L120.387 153.158C120.298 153.201 120.31 153.283 120.387 153.332L121.376 153.876C121.428 153.899 121.484 153.91 121.542 153.91C121.599 153.91 121.656 153.899 121.708 153.876L122.75 153.332C122.833 153.288 122.821 153.207 122.75 153.158L121.755 152.614C121.704 152.589 121.647 152.575 121.589 152.575C121.531 152.575 121.474 152.589 121.423 152.614Z" fill="#2B303F"/>
<path d="M122.874 151.83L121.838 152.374C121.749 152.423 121.761 152.5 121.838 152.554L122.827 153.098C122.879 153.122 122.935 153.134 122.993 153.134C123.051 153.134 123.107 153.122 123.159 153.098L124.195 152.554C124.284 152.51 124.272 152.429 124.195 152.38L123.206 151.836C123.155 151.812 123.098 151.8 123.041 151.799C122.984 151.798 122.927 151.809 122.874 151.83Z" fill="#2B303F"/>
<path d="M124.349 151.047L123.307 151.591C123.224 151.635 123.236 151.711 123.307 151.765L124.302 152.309C124.354 152.332 124.41 152.344 124.468 152.344C124.525 152.344 124.582 152.332 124.634 152.309L125.67 151.765C125.753 151.716 125.747 151.64 125.67 151.586L124.681 151.042C124.629 151.019 124.572 151.007 124.514 151.008C124.457 151.009 124.4 151.022 124.349 151.047Z" fill="#2B303F"/>
<path d="M125.812 150.275L124.77 150.819C124.687 150.862 124.699 150.944 124.77 150.993L125.765 151.537C125.816 151.562 125.873 151.575 125.931 151.575C125.989 151.575 126.046 151.562 126.097 151.537L127.133 150.993C127.216 150.949 127.21 150.868 127.133 150.819L126.144 150.275C126.092 150.252 126.036 150.24 125.978 150.24C125.921 150.24 125.864 150.252 125.812 150.275Z" fill="#2B303F"/>
<path d="M127.287 149.491L126.245 150.035C126.162 150.084 126.174 150.16 126.245 150.215L127.24 150.759C127.29 150.783 127.346 150.795 127.403 150.795C127.459 150.795 127.515 150.783 127.566 150.759L128.608 150.215C128.691 150.171 128.679 150.095 128.608 150.041L127.613 149.497C127.563 149.473 127.507 149.46 127.451 149.46C127.394 149.459 127.338 149.469 127.287 149.491Z" fill="#2B303F"/>
<path d="M128.756 148.708L127.72 149.252C127.637 149.295 127.643 149.372 127.72 149.426L128.709 149.97C128.76 149.993 128.817 150.004 128.875 150.004C128.932 150.004 128.989 149.993 129.04 149.97L130.083 149.426C130.166 149.377 130.154 149.301 130.083 149.246L129.088 148.702C129.036 148.679 128.979 148.668 128.921 148.669C128.864 148.67 128.807 148.683 128.756 148.708Z" fill="#2B303F"/>
<path d="M130.231 147.93L129.194 148.474C129.106 148.518 129.117 148.599 129.194 148.648L130.184 149.192C130.235 149.217 130.292 149.231 130.349 149.231C130.407 149.231 130.464 149.217 130.515 149.192L131.552 148.648C131.641 148.605 131.629 148.523 131.552 148.474L130.563 147.93C130.511 147.907 130.454 147.896 130.397 147.896C130.339 147.896 130.283 147.907 130.231 147.93Z" fill="#2B303F"/>
<path d="M131.706 147.147L130.669 147.691C130.58 147.74 130.592 147.816 130.669 147.87L131.658 148.414C131.71 148.438 131.767 148.45 131.824 148.45C131.882 148.45 131.939 148.438 131.99 148.414L133.027 147.87C133.115 147.827 133.104 147.75 133.027 147.696L132.037 147.152C131.986 147.128 131.93 147.116 131.872 147.115C131.815 147.114 131.758 147.125 131.706 147.147Z" fill="#2B303F"/>
<path d="M133.181 146.363L132.138 146.907C132.055 146.951 132.067 147.027 132.138 147.081L133.133 147.625C133.185 147.648 133.242 147.66 133.299 147.66C133.357 147.66 133.413 147.648 133.465 147.625L134.502 147.081C134.584 147.032 134.579 146.956 134.502 146.902L133.512 146.358C133.46 146.335 133.403 146.323 133.346 146.324C133.288 146.325 133.232 146.338 133.181 146.363Z" fill="#2B303F"/>
<path d="M134.656 145.585L133.613 146.129C133.53 146.173 133.542 146.254 133.613 146.303L134.608 146.847C134.659 146.873 134.716 146.886 134.774 146.886C134.832 146.886 134.889 146.873 134.94 146.847L135.976 146.303C136.059 146.26 136.053 146.178 135.976 146.129L134.987 145.585C134.935 145.563 134.879 145.551 134.821 145.551C134.764 145.551 134.707 145.563 134.656 145.585Z" fill="#2B303F"/>
<path d="M136.13 144.802L135.088 145.346C135.005 145.395 135.017 145.471 135.088 145.525L136.077 146.069C136.128 146.093 136.185 146.106 136.243 146.106C136.301 146.106 136.357 146.093 136.409 146.069L137.451 145.525C137.534 145.482 137.522 145.406 137.451 145.351L136.456 144.807C136.406 144.784 136.35 144.771 136.294 144.77C136.237 144.769 136.182 144.78 136.13 144.802Z" fill="#2B303F"/>
<path d="M118.462 154.175L116.685 155.1C116.602 155.149 116.614 155.225 116.685 155.279L117.68 155.823C117.731 155.847 117.788 155.86 117.846 155.86C117.903 155.86 117.96 155.847 118.012 155.823L119.759 154.893C119.842 154.85 119.83 154.768 119.759 154.719L118.764 154.175C118.716 154.156 118.665 154.146 118.613 154.146C118.561 154.146 118.509 154.156 118.462 154.175Z" fill="#2B303F"/>
<path d="M138.938 144.737L137.895 145.281C137.848 145.302 137.795 145.313 137.741 145.313C137.688 145.313 137.635 145.302 137.587 145.281L136.539 144.737C136.456 144.693 136.456 144.622 136.539 144.573L136.622 144.53C136.699 144.492 136.699 144.421 136.622 144.378L135.514 143.795C135.426 143.747 135.426 143.676 135.514 143.627L136.178 143.279C136.226 143.257 136.278 143.246 136.332 143.246C136.385 143.246 136.438 143.257 136.486 143.279L137.522 143.823L137.736 143.937L137.89 144.019L138.049 144.1L138.938 144.573C139.021 144.622 139.021 144.704 138.938 144.737Z" fill="#2B303F"/>
<path d="M113.475 152.277L112.432 152.821C112.349 152.864 112.361 152.94 112.432 152.995L113.427 153.539C113.478 153.561 113.534 153.573 113.59 153.573C113.646 153.573 113.702 153.561 113.753 153.539L114.795 152.995C114.878 152.946 114.866 152.869 114.795 152.815L113.8 152.271C113.749 152.248 113.693 152.237 113.637 152.237C113.58 152.238 113.524 152.252 113.475 152.277Z" fill="#2B303F"/>
<path d="M114.938 151.499L113.901 152.043C113.818 152.086 113.824 152.162 113.901 152.217L114.89 152.761C114.942 152.783 114.999 152.795 115.056 152.795C115.113 152.795 115.17 152.783 115.222 152.761L116.264 152.217C116.347 152.168 116.335 152.092 116.264 152.037L115.269 151.493C115.217 151.47 115.16 151.459 115.103 151.46C115.045 151.46 114.988 151.474 114.938 151.499Z" fill="#2B303F"/>
<path d="M116.406 150.721L115.37 151.265C115.281 151.308 115.293 151.384 115.37 151.439L116.359 151.983C116.411 152.005 116.468 152.017 116.525 152.017C116.582 152.017 116.639 152.005 116.691 151.983L117.727 151.439C117.816 151.39 117.804 151.314 117.727 151.259L116.738 150.715C116.686 150.692 116.629 150.681 116.572 150.682C116.514 150.683 116.457 150.696 116.406 150.721Z" fill="#2B303F"/>
<path d="M128.898 144.1L127.862 144.644C127.779 144.688 127.785 144.769 127.862 144.818L128.851 145.362C128.903 145.385 128.959 145.397 129.017 145.397C129.074 145.397 129.131 145.385 129.183 145.362L130.225 144.818C130.308 144.775 130.296 144.693 130.225 144.644L129.23 144.1C129.179 144.075 129.122 144.062 129.064 144.062C129.006 144.062 128.949 144.075 128.898 144.1Z" fill="#2B303F"/>
<path d="M130.367 143.322L129.331 143.866C129.242 143.91 129.254 143.991 129.331 144.04L130.32 144.584C130.372 144.607 130.428 144.619 130.486 144.619C130.543 144.619 130.6 144.607 130.651 144.584L131.688 144.04C131.777 143.997 131.765 143.915 131.688 143.866L130.699 143.322C130.648 143.297 130.591 143.284 130.533 143.284C130.475 143.284 130.418 143.297 130.367 143.322Z" fill="#2B303F"/>
<path d="M131.836 142.528L130.794 143.072C130.711 143.115 130.723 143.197 130.794 143.246L131.789 143.79C131.841 143.813 131.897 143.825 131.955 143.825C132.012 143.825 132.069 143.813 132.12 143.79L133.157 143.246C133.24 143.203 133.234 143.121 133.157 143.072L132.168 142.528C132.117 142.503 132.06 142.49 132.002 142.49C131.944 142.49 131.887 142.503 131.836 142.528Z" fill="#2B303F"/>
<path d="M133.299 141.766L132.263 142.31C132.18 142.354 132.186 142.436 132.263 142.485L133.252 143.029C133.304 143.051 133.36 143.063 133.418 143.063C133.475 143.063 133.532 143.051 133.583 143.029L134.626 142.485C134.709 142.441 134.697 142.359 134.626 142.31L133.631 141.766C133.58 141.741 133.523 141.728 133.465 141.728C133.407 141.728 133.35 141.741 133.299 141.766Z" fill="#2B303F"/>
<path d="M118.254 149.747L116.833 150.498C116.75 150.541 116.762 150.617 116.833 150.672L117.828 151.216C117.88 151.238 117.936 151.25 117.994 151.25C118.051 151.25 118.108 151.238 118.16 151.216L119.575 150.465C119.658 150.422 119.646 150.34 119.575 150.291L118.58 149.747C118.53 149.722 118.474 149.708 118.417 149.708C118.36 149.708 118.304 149.722 118.254 149.747Z" fill="#2B303F"/>
<path d="M127.435 144.878L126.014 145.629C125.931 145.672 125.943 145.748 126.014 145.803L127.009 146.347C127.061 146.37 127.117 146.381 127.175 146.381C127.232 146.381 127.289 146.37 127.34 146.347L128.756 145.596C128.839 145.553 128.833 145.471 128.756 145.422L127.767 144.878C127.716 144.853 127.659 144.84 127.601 144.84C127.543 144.84 127.486 144.853 127.435 144.878Z" fill="#2B303F"/>
<path d="M125.569 145.852L118.663 149.518C118.574 149.562 118.586 149.644 118.663 149.693L119.652 150.237C119.704 150.259 119.761 150.271 119.818 150.271C119.876 150.271 119.932 150.259 119.984 150.237L126.896 146.575C126.979 146.526 126.967 146.45 126.867 146.396L125.877 145.852C125.829 145.831 125.777 145.821 125.723 145.821C125.67 145.821 125.618 145.831 125.569 145.852Z" fill="#2B303F"/>
<path d="M118.9 152.423L117.864 152.967C117.775 153.011 117.787 153.087 117.864 153.141L118.853 153.685C118.904 153.709 118.961 153.722 119.019 153.722C119.076 153.722 119.133 153.709 119.184 153.685L120.227 153.141C120.31 153.098 120.298 153.022 120.227 152.967L119.232 152.423C119.18 152.399 119.124 152.387 119.066 152.387C119.008 152.387 118.951 152.399 118.9 152.423Z" fill="#2B303F"/>
<path d="M120.369 151.645L119.332 152.189C119.25 152.238 119.255 152.315 119.332 152.369L120.322 152.913C120.373 152.937 120.43 152.949 120.487 152.949C120.545 152.949 120.602 152.937 120.653 152.913L121.696 152.369C121.779 152.325 121.767 152.249 121.696 152.195L120.701 151.651C120.649 151.627 120.593 151.615 120.536 151.614C120.478 151.613 120.421 151.624 120.369 151.645Z" fill="#2B303F"/>
<path d="M121.838 150.868L120.801 151.412C120.718 151.455 120.724 151.537 120.801 151.586L121.791 152.13C121.842 152.155 121.898 152.168 121.956 152.168C122.014 152.168 122.071 152.155 122.122 152.13L123.165 151.586C123.248 151.542 123.236 151.46 123.165 151.412L122.17 150.868C122.118 150.844 122.061 150.831 122.004 150.831C121.946 150.831 121.889 150.844 121.838 150.868Z" fill="#2B303F"/>
<path d="M123.313 150.09L122.27 150.634C122.187 150.677 122.199 150.759 122.27 150.808L123.265 151.352C123.316 151.374 123.372 151.386 123.428 151.386C123.485 151.386 123.54 151.374 123.591 151.352L124.634 150.808C124.717 150.759 124.705 150.683 124.634 150.628L123.639 150.084C123.588 150.06 123.532 150.047 123.475 150.048C123.418 150.049 123.362 150.064 123.313 150.09Z" fill="#2B303F"/>
<path d="M124.782 149.306L123.739 149.85C123.656 149.894 123.668 149.97 123.739 150.024L124.734 150.568C124.786 150.592 124.843 150.605 124.9 150.605C124.958 150.605 125.015 150.592 125.066 150.568L126.103 150.024C126.185 149.981 126.18 149.905 126.103 149.85L125.113 149.306C125.062 149.282 125.005 149.27 124.948 149.27C124.89 149.27 124.833 149.282 124.782 149.306Z" fill="#2B303F"/>
<path d="M126.251 148.512L125.208 149.056C125.125 149.105 125.137 149.181 125.208 149.236L126.203 149.78C126.255 149.803 126.311 149.816 126.369 149.816C126.427 149.816 126.484 149.803 126.535 149.78L127.571 149.236C127.654 149.192 127.648 149.116 127.571 149.061L126.582 148.518C126.531 148.494 126.475 148.481 126.417 148.48C126.36 148.479 126.303 148.49 126.251 148.512Z" fill="#2B303F"/>
<path d="M127.72 147.75L126.677 148.294C126.594 148.338 126.606 148.42 126.677 148.469L127.672 149.013C127.723 149.038 127.78 149.051 127.838 149.051C127.896 149.051 127.953 149.038 128.004 149.013L129.04 148.469C129.129 148.425 129.117 148.343 129.04 148.294L128.051 147.75C128 147.727 127.943 147.714 127.885 147.714C127.828 147.714 127.771 147.727 127.72 147.75Z" fill="#2B303F"/>
<path d="M129.188 146.967L128.152 147.511C128.063 147.555 128.075 147.631 128.152 147.685L129.141 148.229C129.193 148.252 129.25 148.264 129.307 148.264C129.364 148.264 129.421 148.252 129.473 148.229L130.509 147.685C130.598 147.636 130.586 147.56 130.509 147.506L129.52 146.962C129.468 146.939 129.411 146.927 129.354 146.928C129.296 146.929 129.239 146.942 129.188 146.967Z" fill="#2B303F"/>
<path d="M130.657 146.189L129.621 146.733C129.532 146.777 129.544 146.853 129.621 146.907L130.61 147.451C130.661 147.475 130.718 147.488 130.776 147.488C130.833 147.488 130.89 147.475 130.942 147.451L131.978 146.907C132.067 146.864 132.055 146.788 131.978 146.733L130.989 146.189C130.938 146.165 130.881 146.153 130.823 146.153C130.766 146.153 130.709 146.165 130.657 146.189Z" fill="#2B303F"/>
<path d="M132.126 145.411L131.09 145.955C131.007 146.004 131.013 146.08 131.09 146.135L132.079 146.679C132.13 146.703 132.187 146.715 132.245 146.715C132.302 146.715 132.359 146.703 132.411 146.679L133.453 146.135C133.536 146.091 133.524 146.015 133.453 145.961L132.458 145.417C132.407 145.393 132.35 145.38 132.293 145.379C132.235 145.379 132.179 145.389 132.126 145.411Z" fill="#2B303F"/>
<path d="M133.595 144.633L132.559 145.177C132.476 145.221 132.482 145.302 132.559 145.351L133.548 145.895C133.599 145.919 133.656 145.932 133.714 145.932C133.771 145.932 133.828 145.919 133.88 145.895L134.922 145.351C135.005 145.308 134.993 145.226 134.922 145.177L133.927 144.633C133.876 144.608 133.819 144.595 133.761 144.595C133.703 144.595 133.646 144.608 133.595 144.633Z" fill="#2B303F"/>
<path d="M135.046 143.85L134.004 144.394C133.921 144.437 133.933 144.514 134.004 144.568L134.999 145.112C135.05 145.135 135.106 145.146 135.162 145.146C135.218 145.146 135.274 145.135 135.325 145.112L136.367 144.568C136.45 144.519 136.438 144.443 136.367 144.388L135.372 143.844C135.321 143.821 135.265 143.81 135.209 143.811C135.152 143.812 135.096 143.825 135.046 143.85Z" fill="#2B303F"/>
<path d="M117.431 153.207L115.281 154.344C115.198 154.387 115.21 154.469 115.281 154.518L116.276 155.062C116.327 155.086 116.382 155.098 116.439 155.098C116.496 155.098 116.552 155.086 116.602 155.062L118.752 153.925C118.841 153.876 118.829 153.8 118.752 153.751L117.763 153.207C117.712 153.182 117.655 153.168 117.597 153.168C117.539 153.168 117.482 153.182 117.431 153.207Z" fill="#2B303F"/>
<path d="M116.744 152.053L115.708 152.597C115.619 152.641 115.631 152.717 115.708 152.771L116.697 153.315C116.748 153.338 116.805 153.35 116.863 153.35C116.92 153.35 116.977 153.338 117.028 153.315L118.071 152.771C118.154 152.723 118.142 152.646 118.071 152.592L117.076 152.048C117.024 152.025 116.967 152.013 116.909 152.014C116.852 152.015 116.795 152.029 116.744 152.053Z" fill="#2B303F"/>
<path d="M118.213 151.275L117.176 151.819C117.094 151.868 117.099 151.945 117.176 151.999L118.166 152.543C118.217 152.567 118.274 152.579 118.331 152.579C118.389 152.579 118.446 152.567 118.497 152.543L119.54 151.999C119.623 151.956 119.611 151.879 119.54 151.825L118.545 151.281C118.493 151.257 118.437 151.245 118.38 151.244C118.322 151.243 118.265 151.254 118.213 151.275Z" fill="#2B303F"/>
<path d="M119.682 150.498L118.645 151.042C118.562 151.085 118.568 151.167 118.645 151.216L119.635 151.76C119.685 151.785 119.742 151.798 119.8 151.798C119.858 151.798 119.915 151.785 119.966 151.76L121.009 151.216C121.092 151.172 121.08 151.091 121.009 151.042L120.014 150.498C119.962 150.475 119.905 150.463 119.848 150.463C119.79 150.463 119.734 150.475 119.682 150.498Z" fill="#2B303F"/>
<path d="M121.157 149.72L120.114 150.264C120.031 150.307 120.043 150.389 120.114 150.438L121.109 150.982C121.16 151.004 121.216 151.016 121.272 151.016C121.329 151.016 121.384 151.004 121.435 150.982L122.478 150.438C122.561 150.394 122.549 150.313 122.478 150.264L121.483 149.72C121.433 149.694 121.377 149.681 121.32 149.681C121.263 149.681 121.207 149.694 121.157 149.72Z" fill="#2B303F"/>
<path d="M122.608 148.936L121.565 149.48C121.483 149.524 121.494 149.6 121.565 149.654L122.561 150.198C122.611 150.221 122.667 150.233 122.723 150.233C122.78 150.233 122.836 150.221 122.886 150.198L123.929 149.654C124.012 149.605 124 149.529 123.929 149.475L122.934 148.931C122.883 148.908 122.827 148.896 122.77 148.897C122.713 148.898 122.658 148.912 122.608 148.936Z" fill="#2B303F"/>
<path d="M124.095 148.158L123.052 148.702C122.969 148.746 122.981 148.822 123.052 148.877L124.047 149.421C124.099 149.444 124.155 149.457 124.213 149.457C124.271 149.457 124.328 149.444 124.379 149.421L125.415 148.877C125.498 148.833 125.492 148.757 125.415 148.702L124.426 148.158C124.375 148.135 124.318 148.122 124.26 148.122C124.203 148.122 124.146 148.135 124.095 148.158Z" fill="#2B303F"/>
<path d="M125.569 147.38L124.527 147.924C124.444 147.973 124.456 148.05 124.527 148.104L125.522 148.648C125.573 148.672 125.63 148.684 125.688 148.684C125.746 148.684 125.802 148.672 125.854 148.648L126.89 148.104C126.973 148.06 126.967 147.984 126.89 147.93L125.901 147.386C125.85 147.362 125.793 147.35 125.736 147.349C125.679 147.348 125.622 147.359 125.569 147.38Z" fill="#2B303F"/>
<path d="M127.032 146.603L125.99 147.147C125.907 147.19 125.919 147.272 125.99 147.321L126.985 147.865C127.036 147.89 127.093 147.903 127.151 147.903C127.209 147.903 127.266 147.89 127.317 147.865L128.353 147.321C128.436 147.277 128.43 147.196 128.353 147.147L127.364 146.603C127.313 146.579 127.256 146.566 127.198 146.566C127.141 146.566 127.084 146.579 127.032 146.603Z" fill="#2B303F"/>
<path d="M128.531 145.825L127.489 146.369C127.406 146.412 127.417 146.494 127.489 146.543L128.484 147.087C128.535 147.11 128.592 147.121 128.649 147.121C128.707 147.121 128.764 147.11 128.815 147.087L129.852 146.543C129.941 146.499 129.929 146.418 129.852 146.369L128.863 145.825C128.812 145.799 128.755 145.786 128.697 145.786C128.639 145.786 128.582 145.799 128.531 145.825Z" fill="#2B303F"/>
<path d="M129.97 145.041L128.934 145.585C128.845 145.629 128.857 145.705 128.934 145.759L129.923 146.303C129.975 146.326 130.031 146.338 130.089 146.338C130.146 146.338 130.203 146.326 130.255 146.303L131.291 145.759C131.38 145.71 131.368 145.634 131.291 145.58L130.302 145.036C130.25 145.013 130.193 145.001 130.135 145.002C130.078 145.003 130.021 145.017 129.97 145.041Z" fill="#2B303F"/>
<path d="M131.439 144.263L130.403 144.807C130.314 144.856 130.326 144.933 130.403 144.987L131.392 145.531C131.443 145.555 131.5 145.567 131.558 145.567C131.615 145.567 131.672 145.555 131.724 145.531L132.76 144.987C132.849 144.943 132.837 144.867 132.76 144.813L131.771 144.269C131.72 144.245 131.663 144.233 131.606 144.232C131.548 144.231 131.491 144.242 131.439 144.263Z" fill="#2B303F"/>
<path d="M134.727 142.528L131.872 144.04C131.783 144.084 131.795 144.165 131.872 144.214L132.861 144.758C132.912 144.784 132.969 144.797 133.027 144.797C133.085 144.797 133.142 144.784 133.192 144.758L136.053 143.246C136.136 143.203 136.124 143.121 136.053 143.072L135.046 142.528C134.997 142.505 134.942 142.492 134.886 142.492C134.831 142.492 134.776 142.505 134.727 142.528Z" fill="#2B303F"/>
<path d="M115.275 152.864L113.86 153.615C113.777 153.658 113.783 153.734 113.86 153.789L114.849 154.333C114.9 154.356 114.957 154.367 115.015 154.367C115.072 154.367 115.129 154.356 115.18 154.333L116.602 153.582C116.685 153.539 116.673 153.457 116.572 153.408L115.583 152.864C115.535 152.842 115.483 152.831 115.429 152.831C115.376 152.831 115.323 152.842 115.275 152.864Z" fill="#2B303F"/>
<path d="M140.484 145.569L119.611 156.639C119.528 156.683 119.54 156.759 119.611 156.813L120.108 157.075C120.16 157.098 120.217 157.111 120.274 157.111C120.332 157.111 120.389 157.098 120.44 157.075L141.307 146.004C141.396 145.961 141.384 145.884 141.307 145.83L140.816 145.569C140.764 145.545 140.707 145.533 140.65 145.533C140.592 145.533 140.535 145.545 140.484 145.569Z" fill="#2B303F"/>
<path d="M116.063 146.064L116.199 146.135L119.806 148.05L126.215 144.65L126.351 144.579L122.608 142.599L116.063 146.064Z" fill="#BFBFBF"/>
<path d="M116.199 146.135L119.806 148.05L126.215 144.65L122.608 142.74L116.199 146.135Z" fill="#E5E5E5"/>
<path d="M105.78 150.53V150.824C105.781 151.036 105.842 151.244 105.957 151.427C106.072 151.61 106.238 151.763 106.438 151.869L119.149 158.609C119.348 158.716 119.575 158.773 119.806 158.772C120.037 158.771 120.264 158.715 120.464 158.609L143.457 146.412C143.657 146.307 143.823 146.155 143.939 145.971C144.054 145.788 144.115 145.58 144.115 145.368V145.074L119.83 157.967L105.78 150.53Z" fill="#E5E5E5"/>
<path d="M120.174 158.146C120.391 158.223 120.625 158.255 120.858 158.238C121.091 158.221 121.316 158.156 121.518 158.048L144.417 145.906C144.615 145.801 144.786 145.656 144.917 145.483C145.048 145.31 145.136 145.113 145.175 144.905L147.68 131.18C147.686 131.102 147.686 131.024 147.68 130.946C147.681 130.757 147.641 130.57 147.563 130.396C147.484 130.221 147.369 130.063 147.224 129.929L123.443 142.528C123.298 142.608 123.174 142.715 123.078 142.843C122.982 142.97 122.916 143.115 122.886 143.268L120.174 158.146Z" fill="#F4F4F4"/>
<path d="M119.806 157.967L119.96 158.048C120.029 158.085 120.1 158.118 120.174 158.146L122.886 143.284C122.916 143.132 122.982 142.987 123.078 142.859C123.174 142.731 123.298 142.624 123.443 142.544L147.242 129.929C147.146 129.843 147.038 129.768 146.922 129.706L123.076 142.349C122.931 142.428 122.806 142.536 122.71 142.663C122.614 142.791 122.549 142.936 122.519 143.088L119.806 157.967Z" fill="#E5E5E5"/>
<path opacity="0.4" d="M239.571 272C252.594 272 263.151 266.401 263.151 259.493C263.151 252.586 252.594 246.987 239.571 246.987C226.548 246.987 215.991 252.586 215.991 259.493C215.991 266.401 226.548 272 239.571 272Z" fill="#D6D8E5"/>
<path d="M258.685 164.446C258.952 166.622 261.759 175.919 261.155 179.107C260.551 182.294 250.973 187.637 250.973 187.637L249.646 182.197L254.977 177.42L253.508 168.352L258.685 164.446Z" fill="#FFCEA9"/>
<path d="M251.275 155.268C252.207 154.871 253.265 154.802 254.248 155.075C255.231 155.348 256.07 155.943 256.606 156.748C258.016 158.892 259.479 166.246 259.615 167.503C259.615 167.503 257.637 170.011 254.669 169.592L251.275 155.268Z" fill="#EDEDED"/>
<path d="M240.329 259.118C238.244 259.649 236.015 259.401 234.128 258.427C232.635 258.471 224.527 255.283 223.425 257.959C222.459 260.304 225.972 262.475 227.849 262.893C231.942 263.802 234.957 265.679 236.616 265.994C237.842 266.234 239.429 266.391 240.406 265.505C241.579 264.444 241.478 260.516 240.329 259.118Z" fill="#38226D"/>
<path d="M236.616 265.347C234.975 265.031 231.942 263.171 227.849 262.241C226.274 261.892 223.567 260.309 223.295 258.433C222.927 260.609 226.096 262.507 227.849 262.899C231.942 263.807 234.957 265.684 236.616 266C237.842 266.239 239.429 266.397 240.406 265.51C240.658 265.253 240.843 264.946 240.945 264.612C240.336 265.036 239.627 265.324 238.875 265.451C238.123 265.579 237.35 265.543 236.616 265.347Z" fill="#9C73FF"/>
<path d="M253.508 253.694C251.423 254.224 249.195 253.978 247.307 253.009C245.814 253.047 237.705 249.859 236.604 252.536C235.638 254.88 239.151 257.051 241.028 257.47C245.121 258.378 248.136 260.255 249.794 260.576C251.026 260.81 252.608 260.968 253.585 260.081C254.728 259.02 254.628 255.092 253.508 253.694Z" fill="#38226D"/>
<path d="M249.765 259.923C248.124 259.608 245.091 257.747 240.999 256.817C239.423 256.469 236.716 254.891 236.444 253.009C236.077 255.185 239.245 257.078 240.999 257.47C245.091 258.378 248.106 260.255 249.765 260.576C250.997 260.81 252.578 260.968 253.556 260.081C253.807 259.824 253.992 259.516 254.095 259.183C253.486 259.608 252.777 259.896 252.025 260.025C251.273 260.153 250.499 260.118 249.765 259.923Z" fill="#9C73FF"/>
<path d="M253.639 233.463C253.292 230.696 252.665 227.964 251.767 225.303C251.767 225.303 252.33 218.264 252.608 211.589C252.928 204.016 255.783 197.352 253.526 191.308L228.086 196.504C228.086 196.504 229.626 226.696 229.97 230.351C230.157 233.192 230.536 236.019 231.107 238.816C232.292 244.675 234.157 258.618 234.157 258.618C236.847 260.054 240.377 259.259 240.377 259.259C240.377 259.259 240.187 241.628 240.009 237.407C239.802 232.25 239.63 232.642 239.63 232.642L240.477 219.814L241.028 213.427C241.028 213.427 241.733 218.117 242.213 222.306C242.61 225.956 243.569 229.258 244.641 236.058C245.571 241.955 247.082 253.803 247.082 253.803C249.771 255.245 253.425 254.048 253.425 254.048C253.425 254.048 254.367 238.577 253.639 233.463Z" fill="#8C50FF"/>
<path d="M249.954 155.394C248.018 155.481 246.578 155.938 246.335 155.394C246.126 154.476 245.977 153.548 245.891 152.614C246.116 152.097 246.306 151.526 246.306 151.526C248.74 150.149 249.51 147.718 249.83 144.922C250.375 140.113 247.544 135.907 242.314 135.402C237.391 134.934 233.772 138.122 232.807 142.474C232.286 144.65 231.249 148.697 232.653 152.266C233.435 154.246 234.43 155.818 235.449 156.122C236.424 156.1 237.398 156.021 238.363 155.889C238.363 155.889 238.623 157.227 238.807 158.065C238.991 158.902 238.914 159.376 237.06 160.426C235.206 161.475 239.867 163.641 242.918 163.423C245.968 163.205 249.362 161.568 250.298 159.735C251.346 157.716 251.257 155.334 249.954 155.394Z" fill="#FFCEA9"/>
<path d="M247.123 155.66C247.656 156.884 246.294 158.38 242.657 159.441C239.02 160.502 238.689 159.142 238.689 159.142C238.689 159.142 233.358 161.372 231.616 162.487C229.437 163.891 228.465 167.927 228.169 174.798C227.832 182.724 227.802 194.48 228.086 196.509C228.086 196.509 232.167 200.246 237.391 199.855C242.616 199.463 251.406 195.214 253.538 191.934C253.479 184.987 252.59 183.856 253.816 179.852C256.624 170.685 258.099 166.932 256.736 160.839C255.611 155.818 254.035 155.198 251.879 155.247C250.287 155.307 248.699 155.445 247.123 155.66Z" fill="#F4F4F4"/>
<path d="M219.96 181.348C224.248 182.343 225.255 179.857 225.818 177.806C227.18 172.829 227.915 168.335 228.933 165.507C230.118 162.177 231.385 161.65 233.145 160.997C235.218 160.235 236.995 161.84 236.308 166.083C235.49 171.099 234.424 174.619 232.381 180.554C231.847 182.104 230.651 184.857 228.862 186.189C226.647 187.821 223.318 187.762 218.278 186.608C216.128 186.119 213.77 184.938 209.707 183.197C208.617 182.73 207.764 182.42 205.673 181.522C203.582 180.624 201.397 179.128 200.301 177.67C199.205 176.212 199.057 175.494 199.282 175.19C199.561 174.771 200.058 174.863 200.645 175.478C201.49 176.518 202.536 177.407 203.731 178.1C203.731 178.1 202.374 176.816 201.64 175.984C200.983 175.242 200.437 174.422 200.017 173.547C199.632 172.698 200.431 171.545 201.036 172.149C201.64 172.753 201.936 173.373 203.043 174.591C203.625 175.244 204.291 175.828 205.028 176.332C204.34 175.472 203.728 174.562 203.197 173.612C202.723 172.874 202.491 172.026 202.528 171.17C202.558 170.724 203.245 170.196 203.885 171.039C204.477 171.795 204.844 172.981 206.189 174.27C207.166 175.201 208.001 175.739 208.025 175.478C208.048 175.217 207.432 174.711 207.083 173.623C206.734 172.535 207.083 171.387 207.74 171.262C208.398 171.137 208.268 171.17 208.789 172.187C209.31 173.204 210.122 173.955 210.738 175.451C211.074 176.499 211.684 177.455 212.515 178.236C213.557 179.27 215.885 180.407 219.96 181.348Z" fill="#FFCEA9"/>
<path d="M234.732 160.317C231.871 159.931 229.851 161.111 228.584 165.099C227.316 169.086 226.44 172.35 226.44 172.35C227.571 173.852 229.286 174.897 231.231 175.271C234.655 176.033 235.887 174.532 235.887 174.532C235.887 174.532 236.841 170.359 237.433 167.519C238.025 164.68 238.274 160.796 234.732 160.317Z" fill="#EDEDED"/>
<path d="M232.943 141.87C232.943 141.87 228.418 135.559 238.221 134.254C245.287 133.329 249.83 137.518 250.351 142.022C250.855 146.347 247.952 150.835 245.861 152.619C244.843 152.951 242.639 153.163 239.755 151.939C239.638 150.762 239.592 149.58 239.619 148.398C239.619 148.398 243.066 141.756 232.943 141.87Z" fill="#3A2C6D"/>
<path d="M141.467 119.957C147.218 119.957 151.88 115.676 151.88 110.394C151.88 105.112 147.218 100.83 141.467 100.83C135.716 100.83 131.054 105.112 131.054 110.394C131.054 115.676 135.716 119.957 141.467 119.957Z" fill="#3D348B"/>
<path d="M141.467 114.92C137.516 114.92 133.69 114.093 130.971 112.646C128.703 111.444 127.417 109.926 127.417 108.49C127.417 107.054 128.721 105.536 130.971 104.334C133.69 102.887 137.487 102.06 141.467 102.06C145.447 102.06 149.238 102.892 151.963 104.334C154.231 105.536 155.517 107.054 155.517 108.49C155.517 109.926 154.219 111.444 151.963 112.646C149.262 114.093 145.412 114.92 141.467 114.92Z" fill="#B7C0EE"/>
<path d="M141.467 113.272C137.516 113.272 133.69 112.445 130.971 111.003C128.703 109.801 127.417 108.283 127.417 106.847C127.417 105.411 128.721 103.893 130.971 102.685C133.69 101.244 137.487 100.417 141.467 100.417C145.447 100.417 149.238 101.244 151.963 102.685C154.231 103.893 155.517 105.405 155.517 106.847C155.517 108.289 154.219 109.801 151.963 111.003C149.262 112.445 145.412 113.272 141.467 113.272Z" fill="#3D348B"/>
<path d="M141.467 111.787C136.35 111.787 131.398 110.699 127.844 108.844C124.882 107.282 123.218 105.318 123.218 103.453C123.218 101.587 124.9 99.6445 127.844 98.0669C131.368 96.1956 136.326 95.1239 141.467 95.1239C146.608 95.1239 151.536 96.2119 155.09 98.0669C158.052 99.6228 159.722 101.587 159.722 103.453C159.722 105.318 158.034 107.261 155.09 108.844C151.542 110.715 146.585 111.787 141.467 111.787Z" fill="#B7C0EE"/>
<path d="M141.467 109.654C136.35 109.654 131.398 108.566 127.844 106.711C124.882 105.155 123.218 103.186 123.218 101.325C123.218 99.4649 124.9 97.5174 127.844 95.9344C131.368 94.063 136.326 92.9913 141.467 92.9913C146.608 92.9913 151.536 94.0793 155.09 95.9344C158.052 97.4957 159.722 99.4595 159.722 101.325C159.722 103.191 158.034 105.133 155.09 106.711C151.542 108.582 146.585 109.654 141.467 109.654Z" fill="#3D348B"/>
<path d="M141.467 107.668C135.224 107.668 129.183 106.363 124.882 104.083C121.299 102.179 119.244 99.7859 119.244 97.512C119.244 95.238 121.299 92.8444 124.882 90.9459C129.183 88.6665 135.224 87.3555 141.467 87.3555C147.71 87.3555 153.746 88.6665 158.052 90.9459C161.635 92.8444 163.69 95.238 163.69 97.512C163.69 99.7859 161.635 102.179 158.052 104.083C153.752 106.363 147.704 107.668 141.467 107.668Z" fill="#B7C0EE"/>
<path d="M141.467 105.068C135.224 105.068 129.183 103.763 124.882 101.483C121.299 99.5846 119.244 97.1856 119.244 94.9117C119.244 92.6377 121.299 90.2441 124.882 88.3456C129.183 86.0662 135.224 84.7606 141.467 84.7606C147.71 84.7606 153.746 86.0662 158.052 88.3456C161.635 90.2441 163.69 92.6432 163.69 94.9171C163.69 97.191 161.635 99.5846 158.052 101.483C153.752 103.763 147.704 105.068 141.467 105.068Z" fill="#3D348B"/>
<path d="M141.467 102.386C134.3 102.386 127.364 100.89 122.424 98.2682C118.308 96.0922 115.95 93.3396 115.95 90.7284C115.95 88.1172 118.32 85.37 122.424 83.1831C127.358 80.5664 134.3 79.0704 141.461 79.0704C148.622 79.0704 155.57 80.5664 160.504 83.1885C164.62 85.3645 166.978 88.1172 166.978 90.7284C166.978 93.3396 164.609 96.0868 160.504 98.2682C155.57 100.89 148.628 102.386 141.467 102.386Z" fill="#B7C0EE"/>
<path d="M141.467 99.4051C134.3 99.4051 127.364 97.9037 122.424 95.2871C118.308 93.1111 115.95 90.3584 115.95 87.7472C115.95 85.136 118.32 82.3834 122.424 80.2019C127.358 77.5853 134.3 76.0839 141.461 76.0839C148.622 76.0839 155.57 77.5853 160.504 80.2019C164.62 82.3779 166.978 85.136 166.978 87.7472C166.978 90.3584 164.609 93.1056 160.504 95.2871C155.57 97.92 148.628 99.4051 141.467 99.4051Z" fill="#3D348B"/>
<path d="M141.467 97.1856C157.313 97.1856 170.159 90.3733 170.159 81.9699C170.159 73.5666 157.313 66.7543 141.467 66.7543C125.621 66.7543 112.776 73.5666 112.776 81.9699C112.776 90.3733 125.621 97.1856 141.467 97.1856Z" fill="#FFDF57"/>
<path d="M134.146 44.4774H131.605V80.7568H134.146V44.4774Z" fill="#D8AA44"/>
<path d="M151.542 44.4774H149.001V80.7568H151.542V44.4774Z" fill="#D8AA44"/>
<path d="M141.396 46.8385L137.67 43.705L133.098 46.5175L131.605 44.4829L137.919 40.6749L141.538 43.7159L145.874 40.626L151.542 44.4829L149.771 46.3489L145.868 43.6561L141.396 46.8385Z" fill="#D8AA44"/>
<path id="bulb" opacity="0.69" d="M170.117 82.7642C170.164 79.3479 170.804 69.2621 179.541 55.3629C189.876 38.9178 179.102 0 141.39 0C103.678 0 92.9037 38.9178 103.239 55.3629C110.791 67.3799 112.438 78.0423 112.782 82.9165" fill="#FFDF57"/>
<path opacity="0.2" d="M121.5 181.772L119.854 180.358C119.645 180.08 119.393 179.83 119.107 179.618C118.983 179.522 118.85 179.434 118.711 179.357L116.578 178.051L114.25 177.105C114.108 177.044 113.962 176.991 113.812 176.947C113.469 176.842 113.113 176.78 112.752 176.762L110.537 176.098C110.412 176.098 110.483 176.305 110.537 176.392L110.75 176.474C111.016 176.566 110.791 176.533 111.07 176.713L112.343 177.012C113.154 176.984 113.957 177.173 114.653 177.556L116.341 178.334L117.964 179.232C118.677 179.592 119.246 180.152 119.587 180.831L120.446 181.467C120.713 181.696 120.559 181.598 120.955 181.652L121.175 181.826C121.334 181.865 121.571 181.87 121.5 181.772Z" fill="black"/>
<path opacity="0.1" d="M116.868 178.78C117 178.594 117.176 178.438 117.384 178.323C117.685 178.153 118.039 178.079 118.391 178.111C118.806 178.15 119.209 178.265 119.575 178.448H119.617L120.209 178.742C120.363 178.818 120.505 178.905 120.647 178.992L120.92 179.177C121.329 179.476 121.21 180.064 120.849 180.532C120.649 180.793 120.418 181.034 120.162 181.25C119.936 181.43 119.665 181.554 119.373 181.612C119.081 181.67 118.778 181.66 118.491 181.582C118.226 181.505 117.97 181.403 117.727 181.277C117.503 181.157 117.291 181.018 117.094 180.864C116.851 180.655 116.683 180.383 116.613 180.085C116.543 179.786 116.574 179.475 116.703 179.194C116.741 179.051 116.797 178.912 116.868 178.78ZM111.982 176.06C112.302 175.609 112.847 175.266 113.309 175.407L113.605 175.511C113.755 175.564 113.901 175.626 114.043 175.696L114.582 175.951H114.618C114.956 176.115 115.25 176.348 115.477 176.631C115.569 176.746 115.637 176.877 115.674 177.016C115.712 177.156 115.719 177.3 115.696 177.442C115.66 177.652 115.571 177.852 115.435 178.024C115.324 178.147 115.199 178.258 115.062 178.356C114.814 178.578 114.507 178.736 114.171 178.816C113.835 178.895 113.483 178.892 113.149 178.807C112.91 178.738 112.68 178.647 112.462 178.535C112.25 178.415 112.052 178.277 111.869 178.122C111.68 177.96 111.549 177.749 111.493 177.517C111.436 177.284 111.458 177.042 111.555 176.822C111.666 176.556 111.809 176.302 111.982 176.066V176.06Z" fill="black"/>
<path d="M111.354 176.724L112.622 176.615C113.424 176.542 114.232 176.69 114.943 177.039L121.939 180.265L122.347 179.721L114.517 176.55C114.046 176.347 113.537 176.231 113.018 176.207L110.531 176.076C110.504 176.072 110.475 176.075 110.45 176.086C110.425 176.096 110.404 176.114 110.39 176.136C110.376 176.157 110.369 176.183 110.371 176.208C110.373 176.234 110.383 176.258 110.4 176.278L110.466 176.359C110.568 176.484 110.703 176.583 110.859 176.647C111.014 176.71 111.185 176.737 111.354 176.724Z" fill="#2B303F"/>
<path d="M120.405 181.38L119.877 180.292C119.537 179.614 118.971 179.052 118.26 178.688L111.869 175.173L112.231 174.667L118.989 178.796C119.438 179.058 119.825 179.4 120.126 179.803L121.577 181.75C121.648 181.848 121.542 181.973 121.4 181.952H121.275C121.09 181.931 120.912 181.868 120.76 181.768C120.608 181.669 120.486 181.535 120.405 181.38Z" fill="#2B303F"/>
<path opacity="0.3" d="M118.509 177.888C118.924 177.925 119.327 178.038 119.694 178.22H119.729L120.322 178.508C120.476 178.59 120.618 178.671 120.76 178.758C120.902 178.845 120.944 178.883 121.032 178.949C121.435 179.243 121.317 179.835 120.961 180.298C120.763 180.562 120.53 180.803 120.268 181.016C120.046 181.198 119.776 181.325 119.484 181.384C119.193 181.443 118.89 181.433 118.604 181.353C118.339 181.272 118.083 181.168 117.84 181.043C117.613 180.927 117.401 180.788 117.206 180.63C116.962 180.423 116.794 180.152 116.724 179.854C116.654 179.556 116.686 179.246 116.815 178.965C116.859 178.813 116.925 178.666 117.011 178.53C117.144 178.345 117.32 178.189 117.526 178.073C117.823 177.916 118.168 177.851 118.509 177.888Z" fill="url(#paint0_linear)"/>
<path d="M112.041 174.553L111.733 174.999C111.707 175.025 111.693 175.059 111.693 175.094C111.693 175.13 111.707 175.164 111.733 175.19C111.786 175.233 111.822 175.291 111.835 175.355C111.847 175.419 111.837 175.485 111.804 175.543L111.295 176.522C111.146 176.8 111.099 177.114 111.161 177.418C111.223 177.722 111.39 178 111.638 178.209C112.069 178.561 112.579 178.823 113.131 178.976C113.543 179.091 113.98 179.102 114.398 179.006C114.815 178.91 115.196 178.712 115.5 178.432L115.974 177.991C116.079 177.898 116.142 177.772 116.152 177.638C116.161 177.578 116.185 177.522 116.223 177.473C116.261 177.423 116.31 177.383 116.368 177.355C116.426 177.327 116.49 177.312 116.555 177.311C116.621 177.31 116.685 177.323 116.744 177.349L116.863 177.404L116.981 177.469C117.029 177.501 117.068 177.544 117.093 177.593C117.118 177.643 117.129 177.697 117.125 177.752C117.121 177.806 117.102 177.859 117.069 177.904C117.037 177.95 116.992 177.988 116.94 178.013C116.807 178.078 116.7 178.181 116.637 178.307L116.371 178.851C116.203 179.197 116.161 179.583 116.252 179.953C116.343 180.323 116.561 180.655 116.874 180.902C117.327 181.268 117.857 181.544 118.432 181.712C118.801 181.821 119.195 181.834 119.57 181.748C119.946 181.663 120.288 181.483 120.559 181.228L121.447 180.369C121.506 180.314 121.581 180.275 121.662 180.256C121.743 180.237 121.828 180.238 121.909 180.26C121.952 180.273 121.998 180.274 122.042 180.263C122.085 180.251 122.124 180.227 122.152 180.194L122.513 179.738C122.551 179.696 122.571 179.644 122.571 179.591C122.571 179.537 122.551 179.485 122.513 179.444C121.948 178.927 121.296 178.498 120.582 178.171L119.99 177.877C119.552 177.658 119.071 177.521 118.574 177.474L118.136 177.431C118.038 177.435 117.942 177.404 117.87 177.344C117.826 177.288 117.769 177.241 117.704 177.208L117.218 176.969L116.732 176.724C116.662 176.691 116.586 176.673 116.507 176.669C116.451 176.668 116.396 176.655 116.345 176.631C116.295 176.608 116.251 176.574 116.217 176.533L115.98 176.24C115.706 175.903 115.352 175.629 114.943 175.44L114.404 175.179C113.767 174.832 113.07 174.587 112.343 174.455C112.288 174.445 112.231 174.448 112.177 174.465C112.124 174.483 112.077 174.513 112.041 174.553ZM116.987 178.562C117.12 178.378 117.296 178.222 117.502 178.106C117.804 177.936 118.158 177.863 118.509 177.899C118.924 177.936 119.327 178.049 119.694 178.231H119.729L120.322 178.519C120.476 178.601 120.618 178.682 120.76 178.769C120.902 178.856 120.944 178.894 121.032 178.96C121.435 179.253 121.317 179.846 120.961 180.309C120.763 180.573 120.53 180.814 120.268 181.027C120.046 181.209 119.776 181.336 119.484 181.395C119.193 181.454 118.89 181.444 118.604 181.364C118.339 181.283 118.083 181.179 117.84 181.054C117.613 180.938 117.401 180.799 117.206 180.641C116.962 180.434 116.794 180.163 116.724 179.865C116.654 179.567 116.686 179.257 116.815 178.976C116.854 178.832 116.911 178.693 116.987 178.562ZM112.094 175.842C112.42 175.396 112.959 175.054 113.427 175.195C113.528 175.223 113.627 175.256 113.723 175.293C113.871 175.347 114.019 175.413 114.162 175.478L114.701 175.739H114.736C115.072 175.906 115.365 176.138 115.595 176.419C115.688 176.535 115.754 176.667 115.791 176.807C115.827 176.948 115.833 177.093 115.808 177.235C115.774 177.444 115.685 177.642 115.548 177.812C115.439 177.938 115.313 178.051 115.174 178.149C114.926 178.371 114.619 178.529 114.283 178.608C113.948 178.687 113.595 178.685 113.261 178.601C113.024 178.531 112.796 178.438 112.58 178.323C112.367 178.208 112.168 178.071 111.988 177.915C111.799 177.752 111.667 177.54 111.611 177.307C111.555 177.074 111.577 176.831 111.674 176.61C111.786 176.343 111.927 176.088 112.094 175.848V175.842Z" fill="#2B303F"/>
<path d="M115.127 178.236C114.88 178.459 114.572 178.618 114.236 178.698C113.901 178.777 113.548 178.773 113.214 178.688C112.98 178.624 112.753 178.539 112.539 178.432C112.324 178.318 112.125 178.181 111.946 178.024C111.757 177.862 111.626 177.651 111.57 177.419C111.513 177.187 111.535 176.944 111.632 176.724C111.749 176.449 111.898 176.186 112.077 175.94C111.913 176.17 111.776 176.414 111.668 176.669C111.571 176.891 111.55 177.134 111.606 177.367C111.662 177.6 111.793 177.812 111.982 177.975C112.162 178.131 112.361 178.268 112.574 178.383C112.79 178.497 113.018 178.59 113.255 178.66C113.589 178.745 113.942 178.747 114.277 178.668C114.613 178.589 114.92 178.431 115.169 178.209C115.306 178.111 115.431 178 115.542 177.877L115.5 177.888C115.392 178.018 115.267 178.135 115.127 178.236Z" fill="#1F232D"/>
<path d="M120.191 181.119C119.968 181.301 119.698 181.427 119.406 181.485C119.115 181.543 118.812 181.531 118.527 181.451C118.261 181.374 118.005 181.272 117.763 181.146C117.539 181.026 117.327 180.888 117.129 180.733C116.886 180.525 116.718 180.253 116.649 179.954C116.579 179.656 116.61 179.345 116.738 179.063C116.785 178.913 116.851 178.769 116.934 178.633L116.981 178.573C116.9 178.707 116.836 178.85 116.791 178.998C116.662 179.278 116.63 179.589 116.7 179.887C116.77 180.185 116.938 180.456 117.182 180.662C117.377 180.821 117.589 180.959 117.816 181.076C118.06 181.201 118.315 181.305 118.58 181.386C118.866 181.465 119.169 181.476 119.46 181.417C119.752 181.358 120.022 181.231 120.245 181.049C120.485 180.851 120.702 180.631 120.89 180.39C120.69 180.659 120.456 180.903 120.191 181.119Z" fill="#1F232D"/>
<path opacity="0.3" d="M115.595 176.441C115.365 176.16 115.072 175.928 114.736 175.761H114.701L114.162 175.5C114.019 175.434 113.871 175.369 113.723 175.315C113.627 175.277 113.528 175.245 113.427 175.217C112.959 175.075 112.42 175.418 112.094 175.864C111.917 176.11 111.768 176.373 111.65 176.648C111.554 176.869 111.532 177.112 111.588 177.345C111.644 177.578 111.775 177.79 111.964 177.953C112.144 178.109 112.343 178.246 112.556 178.361C112.772 178.476 113 178.569 113.238 178.639C113.572 178.723 113.924 178.725 114.259 178.646C114.595 178.567 114.902 178.409 115.151 178.187C115.289 178.089 115.415 177.976 115.524 177.85C115.661 177.68 115.751 177.482 115.785 177.273C115.815 177.13 115.815 176.982 115.782 176.839C115.749 176.696 115.686 176.561 115.595 176.441Z" fill="url(#paint1_linear)"/>
<defs>
<linearGradient id="paint0_linear" x1="118.971" y1="177.888" x2="118.971" y2="181.457" gradientUnits="userSpaceOnUse">
<stop offset="0.01" stop-color="white"/>
<stop offset="0.88" stop-color="white" stop-opacity="0"/>
</linearGradient>
<linearGradient id="paint1_linear" x1="927.285" y1="1308.37" x2="927.285" y2="1331.21" gradientUnits="userSpaceOnUse">
<stop offset="0.01" stop-color="white"/>
<stop offset="0.88" stop-color="white" stop-opacity="0"/>
</linearGradient>
</defs>
</svg>
