<svg width="36" height="32" viewBox="0 0 36 32" fill="none" xmlns="http://www.w3.org/2000/svg">
<path d="M14.7419 13.4238C13.7159 13.4238 12.9059 14.2238 12.9059 15.1998C12.9059 16.1758 13.7339 16.9758 14.7419 16.9758C15.7679 16.9758 16.5779 16.1758 16.5779 15.1998C16.5959 14.2238 15.7679 13.4238 14.7419 13.4238ZM21.3119 13.4238C20.2859 13.4238 19.4759 14.2238 19.4759 15.1998C19.4759 16.1758 20.3039 16.9758 21.3119 16.9758C22.3379 16.9758 23.1479 16.1758 23.1479 15.1998C23.1479 14.2238 22.3379 13.4238 21.3119 13.4238Z" fill="#5680E9"/>
<path d="M30.06 0H5.94C3.906 0 2.25 1.472 2.25 3.296V24.928C2.25 26.752 3.906 28.224 5.94 28.224H26.352L25.398 25.264L27.702 27.168L29.88 28.96L33.75 32V3.296C33.75 1.472 32.094 0 30.06 0ZM23.112 20.896C23.112 20.896 22.464 20.208 21.924 19.6C24.282 19.008 25.182 17.696 25.182 17.696C24.444 18.128 23.742 18.432 23.112 18.64C22.212 18.976 21.348 19.2 20.502 19.328C18.9604 19.5803 17.3794 19.5749 15.84 19.312C14.9363 19.1548 14.0506 18.9245 13.194 18.624C12.7425 18.4697 12.3034 18.2879 11.88 18.08C11.826 18.048 11.772 18.032 11.718 18C11.682 17.984 11.664 17.968 11.646 17.952C11.322 17.792 11.142 17.68 11.142 17.68C11.142 17.68 12.006 18.96 14.292 19.568C13.752 20.176 13.086 20.896 13.086 20.896C9.108 20.784 7.596 18.464 7.596 18.464C7.596 13.312 10.188 9.136 10.188 9.136C12.78 7.408 15.246 7.456 15.246 7.456L15.426 7.648C12.186 8.48 10.692 9.744 10.692 9.744C10.692 9.744 11.088 9.552 11.754 9.28C13.68 8.528 15.21 8.32 15.84 8.272C15.948 8.256 16.038 8.24 16.146 8.24C19.2674 7.86446 22.4419 8.39179 25.2 9.744C25.2 9.744 23.778 8.544 20.718 7.712L20.97 7.456C20.97 7.456 23.436 7.408 26.028 9.136C26.028 9.136 28.62 13.312 28.62 18.464C28.62 18.464 27.09 20.784 23.112 20.896Z" fill="#5680E9"/>
</svg>
