<svg width="36" height="36" viewBox="0 0 36 36" fill="none" xmlns="http://www.w3.org/2000/svg">
<g clip-path="url(#clip0)">
<path d="M34.5 3H1.5C1.10218 3 0.720644 3.15804 0.43934 3.43934C0.158035 3.72064 0 4.10218 0 4.5L0 31.5C0 31.8978 0.158035 32.2794 0.43934 32.5607C0.720644 32.842 1.10218 33 1.5 33H34.5C34.8978 33 35.2794 32.842 35.5607 32.5607C35.842 32.2794 36 31.8978 36 31.5V4.5C36 4.10218 35.842 3.72064 35.5607 3.43934C35.2794 3.15804 34.8978 3 34.5 3ZM33 30H30V28.5H22.5V30H3V6H33V30ZM15.435 14.565C15.435 13.8847 15.7052 13.2323 16.1863 12.7513C16.6673 12.2702 17.3197 12 18 12C19.425 12 20.565 13.155 20.565 14.565C20.565 15.99 19.425 17.145 18 17.145C16.575 17.145 15.435 15.99 15.435 14.565ZM8.565 16.935C8.565 15.87 9.435 15 10.5 15C11.0132 15 11.5054 15.2039 11.8683 15.5667C12.2311 15.9296 12.435 16.4218 12.435 16.935C12.435 18 11.565 18.855 10.5 18.855C9.435 18.855 8.565 18 8.565 16.935ZM23.565 16.935C23.565 16.4218 23.7689 15.9296 24.1317 15.5667C24.4946 15.2039 24.9868 15 25.5 15C26.0132 15 26.5054 15.2039 26.8683 15.5667C27.2311 15.9296 27.435 16.4218 27.435 16.935C27.435 18 26.565 18.855 25.5 18.855C24.435 18.855 23.565 18 23.565 16.935ZM30 22.71V24H6V22.71C6 21.3 8.325 20.145 10.5 20.145C11.325 20.145 12.165 20.31 12.9 20.595C14.025 19.56 16.05 18.855 18 18.855C19.95 18.855 21.975 19.56 23.1 20.595C23.835 20.31 24.675 20.145 25.5 20.145C27.675 20.145 30 21.3 30 22.71Z" fill="#5680E9"/>
</g>
<defs>
<clipPath id="clip0">
<rect width="36" height="36" fill="white"/>
</clipPath>
</defs>
</svg>
