<svg viewBox="0 0 500 396" fill="none" xmlns="http://www.w3.org/2000/svg">
<path d="M496.53 249L250 106.67L3.47 249L0 246.99V251L250 395.34L500 251V246.99L496.53 249Z" fill="#DADCE5"/>
<path d="M250 391.33L0 246.99L250 102.65L500 246.99L250 391.33Z" fill="#F2F5F9"/>
<path d="M316.1 330.51L249.44 369.26L83.87 272.45L150.52 233.69L316.1 330.51Z" fill="#B9CC00"/>
<path d="M288.85 150.22L80.3 270.62L66.24 262.51L274.79 142.1L288.85 150.22Z" fill="#3A3A3A"/>
<path d="M74.99 266.11L73.58 266.93L72.64 266.38L74.05 265.57L74.99 266.11Z" fill="white"/>
<path d="M278.06 148.87L275.24 150.5L274.3 149.96L277.12 148.33L278.06 148.87ZM272.42 152.13L269.6 153.76L268.66 153.21L271.48 151.59L272.42 152.13ZM266.78 155.39L264 157L263.06 156.46L265.88 154.83L266.78 155.39ZM261.14 158.64L258.32 160.27L257.38 159.73L260.2 158.1L261.14 158.64ZM255.5 161.9L252.68 163.53L251.74 162.98L254.56 161.36L255.5 161.9ZM249.86 165.16L247 166.78L246.05 166.24L248.87 164.61L249.86 165.16ZM244.21 168.41L241.39 170L240.45 169.46L243.27 167.83L244.21 168.41ZM238.57 171.67L235.75 173.3L234.81 172.75L237.63 171.13L238.57 171.67ZM232.93 174.93L230.11 176.55L229.17 176.01L231.99 174.38L232.93 174.93ZM227.29 178.18L224.47 179.81L223.53 179.27L226.35 177.64L227.29 178.18ZM221.65 181.44L218.83 183.07L217.89 182.52L220.71 180.9L221.65 181.44ZM216 184.7L213.18 186.32L212.24 185.78L215.06 184.15L216 184.7ZM210.37 188L207.55 189.63L206.61 189.09L209.43 187.46L210.37 188ZM204.73 191.26L201.91 192.89L200.97 192.34L203.79 190.72L204.73 191.26ZM199.09 194.52L196.27 196.14L195.33 195.6L198.15 193.97L199.09 194.52ZM193.45 197.77L190.63 199.4L189.69 198.86L192.51 197.23L193.45 197.77ZM187.81 201L185 202.61L184.06 202.06L186.88 200.44L187.81 201ZM182.17 204.26L179.35 205.88L178.41 205.34L181.23 203.71L182.17 204.26ZM176.53 207.51L173.71 209.14L172.71 208.6L175.54 206.97L176.53 207.51ZM170.89 210.77L168.07 212.4L167.12 211.85L169.95 210.23L170.89 210.77ZM165.24 214L162.42 215.62L161.48 215.08L164.3 213.45L165.24 214ZM159.6 217.25L156.78 218.88L155.84 218.34L158.66 216.71L159.6 217.25ZM154 220.52L151.18 222.15L150.24 221.6L153 220L154 220.52ZM148.36 223.78L145.54 225.4L144.6 224.86L147.42 223.23L148.36 223.78ZM142.68 227L139.86 228.63L138.92 228.09L141.74 226.46L142.68 227ZM137 230.29L134.18 231.92L133.24 231.37L136.06 229.75L137 230.29ZM131.36 233.55L128.54 235.17L127.6 234.63L130.42 233L131.36 233.55ZM125.72 236.8L122.9 238.43L121.96 237.89L124.78 236.26L125.72 236.8ZM120.08 240.06L117.26 241.69L116.32 241.14L119.14 239.52L120.08 240.06ZM114.44 243.32L111.62 244.94L110.68 244.4L113.5 242.77L114.44 243.32ZM108.8 246.57L106 248.2L105.06 247.66L107.9 246L108.8 246.57ZM103.16 249.83L100.34 251.46L99.4 250.91L102.22 249.29L103.16 249.83ZM97.52 253.09L94.7 254.71L93.76 254.17L96.58 252.54L97.52 253.09ZM91.88 256.34L89.1 258L88.15 257.46L91 255.8L91.88 256.34ZM86.24 259.6L83.42 261.23L82.47 260.68L85.29 259.06L86.24 259.6ZM80.59 262.86L77.77 264.48L76.83 263.94L79.65 262.31L80.59 262.86Z" fill="white"/>
<path d="M282.29 146.43L280.88 147.25L279.94 146.7L281.35 145.89L282.29 146.43Z" fill="white"/>
<path d="M243.311 318.286C247.923 307.795 229.676 289.625 202.556 277.704C175.436 265.782 149.713 264.622 145.101 275.113C140.489 285.604 158.736 303.773 185.856 315.695C212.975 327.617 238.699 328.777 243.311 318.286Z" fill="#00E7FF"/>
<path d="M245.71 153.98L130.74 220.99L99.26 203.75L214.23 136.74L245.71 153.98Z" fill="#B9CC00"/>
<path d="M413.29 274.65L314.97 331.52L239.49 288.66L337.81 231.78L413.29 274.65Z" fill="#B9CC00"/>
<path d="M131.76 194.46H128.63V205.46C128.643 205.598 128.692 205.73 128.773 205.842C128.854 205.955 128.963 206.044 129.09 206.1C129.433 206.272 129.811 206.362 130.195 206.362C130.579 206.362 130.957 206.272 131.3 206.1C131.425 206.042 131.534 205.953 131.614 205.841C131.695 205.728 131.745 205.597 131.76 205.46V194.46Z" fill="#443D31"/>
<path d="M130.27 194.62C134.799 194.62 138.47 190.949 138.47 186.42C138.47 181.891 134.799 178.22 130.27 178.22C125.741 178.22 122.07 181.891 122.07 186.42C122.07 190.949 125.741 194.62 130.27 194.62Z" fill="#C6E800"/>
<path d="M150.93 183.45H147.8V194.45C147.814 194.588 147.864 194.719 147.944 194.831C148.025 194.944 148.134 195.033 148.26 195.09C148.603 195.262 148.981 195.352 149.365 195.352C149.749 195.352 150.127 195.262 150.47 195.09C150.597 195.035 150.707 194.946 150.788 194.833C150.869 194.721 150.918 194.588 150.93 194.45V183.45Z" fill="#443D31"/>
<path d="M149.44 183.62C153.969 183.62 157.64 179.949 157.64 175.42C157.64 170.891 153.969 167.22 149.44 167.22C144.911 167.22 141.24 170.891 141.24 175.42C141.24 179.949 144.911 183.62 149.44 183.62Z" fill="#C6E800"/>
<path d="M190.84 162.5H187.71V173.5C187.72 173.639 187.768 173.772 187.849 173.885C187.93 173.998 188.042 174.087 188.17 174.14C188.511 174.317 188.89 174.41 189.275 174.41C189.66 174.41 190.039 174.317 190.38 174.14C190.507 174.085 190.617 173.996 190.698 173.883C190.779 173.771 190.828 173.638 190.84 173.5V162.5Z" fill="#443D31"/>
<path d="M189.35 162.67C193.879 162.67 197.55 158.999 197.55 154.47C197.55 149.941 193.879 146.27 189.35 146.27C184.821 146.27 181.15 149.941 181.15 154.47C181.15 158.999 184.821 162.67 189.35 162.67Z" fill="#C6E800"/>
<path d="M337.81 223.76L310.04 207.72V141.04L337.81 157.07V223.76Z" fill="#E4E7EF"/>
<path d="M337.81 157.07L310.04 141.04L337.81 125.01L365.57 141.04L337.81 157.07Z" fill="#EDF1F9"/>
<path d="M332.81 170.85L315.04 160.59V151.62L332.81 161.88V170.85Z" fill="#6675FF"/>
<path d="M365.57 207.73L337.81 223.76V157.07L365.57 141.04V207.73Z" fill="#DADCE5"/>
<path d="M349.47 167.01L342.81 170.86V161.88L349.47 158.03V167.01Z" fill="#6675FF"/>
<path d="M360.58 160.6L353.91 164.45V155.47L360.58 151.62V160.6Z" fill="#6675FF"/>
<path d="M349.47 180.48L342.81 184.32V175.35L349.47 171.5V180.48Z" fill="#6675FF"/>
<path d="M360.58 174.06L353.91 177.91V168.94L360.58 165.09V174.06Z" fill="#6675FF"/>
<path d="M349.47 193.94L342.81 197.79V188.81L349.47 184.97V193.94Z" fill="#6675FF"/>
<path d="M360.58 187.53L353.91 191.38V182.4L360.58 178.55V187.53Z" fill="#6675FF"/>
<path d="M349.47 208.05L342.81 211.9V202.92L349.47 199.07V208.05Z" fill="#6675FF"/>
<path d="M360.58 201.64L353.91 205.49V196.51L360.58 192.66V201.64Z" fill="#6675FF"/>
<path d="M332.81 184.32L315.04 174.06V165.08L332.81 175.34V184.32Z" fill="#6675FF"/>
<path d="M332.81 197.79L315.04 187.53V178.55L332.81 188.81V197.79Z" fill="#6675FF"/>
<path d="M332.81 211.89L315.04 201.63V192.66L332.81 202.92V211.89Z" fill="#6675FF"/>
<path d="M337.81 150.02L321.79 140.77V137.91L337.81 147.16V150.02Z" fill="#E4E7EF"/>
<path d="M337.81 150.02L353.83 140.77V137.91L337.81 147.16V150.02Z" fill="#DADCE5"/>
<path d="M97.38 240.28L69.61 224.25V119.08L97.38 135.11V240.28Z" fill="#E4E7EF"/>
<path d="M97.38 135.11L69.61 119.08L97.38 103.05L125.14 119.08L97.38 135.11Z" fill="#EDF1F9"/>
<path d="M92.38 148.9L74.61 138.64V129.66L92.38 139.92V148.9Z" fill="#84A6F4"/>
<path d="M125.14 224.25L97.38 240.28V135.12L125.14 119.09V224.25Z" fill="#DADCE5"/>
<path d="M109.04 145.06L102.38 148.91V139.93L109.04 136.08V145.06Z" fill="#84A6F4"/>
<path d="M120.15 138.65L113.48 142.49V133.51L120.15 129.67V138.65Z" fill="#84A6F4"/>
<path d="M109.04 158.52L102.38 162.37V153.39L109.04 149.55V158.52Z" fill="#84A6F4"/>
<path d="M120.15 152.11L113.48 155.96V146.98L120.15 143.13V152.11Z" fill="#84A6F4"/>
<path d="M109.04 171.99L102.38 175.84V166.86L109.04 163.01V171.99Z" fill="#84A6F4"/>
<path d="M120.15 165.58L113.48 169.42V160.45L120.15 156.6V165.58Z" fill="#84A6F4"/>
<path d="M109.04 186.1L102.38 189.94V180.97L109.04 177.12V186.1Z" fill="#84A6F4"/>
<path d="M120.15 179.68L113.48 183.53V174.55L120.15 170.71V179.68Z" fill="#84A6F4"/>
<path d="M109.04 201.16L102.38 205.01V196.03L109.04 192.18V201.16Z" fill="#84A6F4"/>
<path d="M120.15 194.75L113.48 198.59V189.62L120.15 185.77V194.75Z" fill="#84A6F4"/>
<path d="M109.04 216.56L102.38 220.41V211.43L109.04 207.58V216.56Z" fill="#84A6F4"/>
<path d="M120.15 210.15L113.48 213.99V205.02L120.15 201.17V210.15Z" fill="#84A6F4"/>
<path d="M92.38 162.37L74.61 152.11V143.13L92.38 153.39V162.37Z" fill="#84A6F4"/>
<path d="M92.38 175.83L74.61 165.57V156.59L92.38 166.85V175.83Z" fill="#84A6F4"/>
<path d="M92.38 189.94L74.61 179.68V170.7L92.38 180.96V189.94Z" fill="#84A6F4"/>
<path d="M92.38 205.01L74.61 194.75V185.77L92.38 196.03V205.01Z" fill="#84A6F4"/>
<path d="M92.38 220.41L74.61 210.15V201.17L92.38 211.43V220.41Z" fill="#84A6F4"/>
<path d="M97.38 128.07L81.36 118.82V115.96L97.38 125.21V128.07Z" fill="#E4E7EF"/>
<path d="M97.38 128.07L113.4 118.82V115.96L97.38 125.21V128.07Z" fill="#DADCE5"/>
<path d="M97.38 240.28L69.61 224.25V119.08L97.38 135.11V240.28Z" fill="#E4E7EF"/>
<path d="M97.38 135.11L69.61 119.08L97.38 103.05L125.15 119.08L97.38 135.11Z" fill="#EDF1F9"/>
<path d="M92.38 148.9L74.61 138.64V129.66L92.38 139.92V148.9Z" fill="#6675FF"/>
<path d="M125.15 224.25L97.38 240.28V135.12L125.15 119.09V224.25Z" fill="#DADCE5"/>
<path d="M109.04 145.06L102.38 148.91V139.93L109.04 136.08V145.06Z" fill="#6675FF"/>
<path d="M120.15 138.65L113.48 142.49V133.51L120.15 129.67V138.65Z" fill="#6675FF"/>
<path d="M109.04 158.52L102.38 162.37V153.39L109.04 149.55V158.52Z" fill="#6675FF"/>
<path d="M120.15 152.11L113.48 155.96V146.98L120.15 143.13V152.11Z" fill="#6675FF"/>
<path d="M109.04 171.99L102.38 175.84V166.86L109.04 163.01V171.99Z" fill="#6675FF"/>
<path d="M120.15 165.58L113.48 169.42V160.45L120.15 156.6V165.58Z" fill="#6675FF"/>
<path d="M109.04 186.1L102.38 189.94V180.97L109.04 177.12V186.1Z" fill="#6675FF"/>
<path d="M120.15 179.68L113.48 183.53V174.55L120.15 170.71V179.68Z" fill="#6675FF"/>
<path d="M109.04 201.16L102.38 205.01V196.03L109.04 192.18V201.16Z" fill="#6675FF"/>
<path d="M120.15 194.75L113.48 198.59V189.62L120.15 185.77V194.75Z" fill="#6675FF"/>
<path d="M109.04 216.56L102.38 220.41V211.43L109.04 207.58V216.56Z" fill="#6675FF"/>
<path d="M120.15 210.15L113.48 213.99V205.02L120.15 201.17V210.15Z" fill="#6675FF"/>
<path d="M92.38 162.37L74.61 152.11V143.13L92.38 153.39V162.37Z" fill="#6675FF"/>
<path d="M92.38 175.83L74.61 165.57V156.59L92.38 166.85V175.83Z" fill="#6675FF"/>
<path d="M92.38 189.94L74.61 179.68V170.7L92.38 180.96V189.94Z" fill="#6675FF"/>
<path d="M92.38 205.01L74.61 194.75V185.77L92.38 196.03V205.01Z" fill="#6675FF"/>
<path d="M92.38 220.41L74.61 210.15V201.17L92.38 211.43V220.41Z" fill="#6675FF"/>
<path d="M97.38 128.07L81.36 118.82V115.96L97.38 125.21V128.07Z" fill="#E4E7EF"/>
<path d="M97.38 128.07L113.41 118.82V115.96L97.38 125.21V128.07Z" fill="#DADCE5"/>
<path d="M222.24 224.75L194.48 208.72V103.56L222.24 119.59V224.75Z" fill="#E4E7EF"/>
<path d="M222.24 119.59L194.47 103.56L222.24 87.53L250.01 103.56L222.24 119.59Z" fill="#EDF1F9"/>
<path d="M217.25 133.37L199.47 123.11V114.14L217.25 124.4V133.37Z" fill="#6675FF"/>
<path d="M250.01 208.72L222.24 224.75V119.59L250.01 103.56V208.72Z" fill="#DADCE5"/>
<path d="M233.9 129.53L227.24 133.38V124.4L233.9 120.55V129.53Z" fill="#6675FF"/>
<path d="M245.01 123.12L238.35 126.97V117.99L245.01 114.14V123.12Z" fill="#6675FF"/>
<path d="M233.9 143L227.24 146.84V137.87L233.9 134.02V143Z" fill="#6675FF"/>
<path d="M245.01 136.58L238.35 140.43V131.45L245.01 127.61V136.58Z" fill="#6675FF"/>
<path d="M233.9 156.46L227.24 160.31V151.33L233.9 147.49V156.46Z" fill="#6675FF"/>
<path d="M245.01 150.05L238.35 153.9V144.92L245.01 141.07V150.05Z" fill="#6675FF"/>
<path d="M233.9 170.57L227.24 174.42V165.44L233.9 161.59V170.57Z" fill="#6675FF"/>
<path d="M245.01 164.16L238.35 168V159.03L245.01 155.18V164.16Z" fill="#6675FF"/>
<path d="M233.9 185.63L227.24 189.48V180.5L233.9 176.66V185.63Z" fill="#6675FF"/>
<path d="M245.01 179.22L238.35 183.07V174.09L245.01 170.24V179.22Z" fill="#6675FF"/>
<path d="M233.9 201.03L227.24 204.88V195.9L233.9 192.06V201.03Z" fill="#6675FF"/>
<path d="M245.01 194.62L238.35 198.47V189.49L245.01 185.64V194.62Z" fill="#6675FF"/>
<path d="M217.25 146.84L199.47 136.58V127.6L217.25 137.86V146.84Z" fill="#6675FF"/>
<path d="M217.25 160.31L199.47 150.04V141.07L217.25 151.33V160.31Z" fill="#6675FF"/>
<path d="M217.25 174.41L199.47 164.15V155.18L217.25 165.43V174.41Z" fill="#6675FF"/>
<path d="M217.25 189.48L199.47 179.22V170.24L217.25 180.5V189.48Z" fill="#6675FF"/>
<path d="M217.25 204.88L199.47 194.62V185.64L217.25 195.9V204.88Z" fill="#6675FF"/>
<path d="M222.24 112.54L206.22 103.29V100.43L222.24 109.68V112.54Z" fill="#E4E7EF"/>
<path d="M222.24 112.54L238.27 103.29V100.43L222.24 109.68V112.54Z" fill="#DADCE5"/>
<path d="M61.28 260.8L33.52 244.77V178.08L61.28 194.11V260.8Z" fill="#E4E7EF"/>
<path d="M61.28 194.11L33.52 178.08L61.28 162.05L89.05 178.08L61.28 194.11Z" fill="#EDF1F9"/>
<path d="M56.29 207.9L38.52 197.64V188.66L56.29 198.92V207.9Z" fill="#6675FF"/>
<path d="M89.05 244.77L61.28 260.8V194.12L89.05 178.08V244.77Z" fill="#DADCE5"/>
<path d="M72.94 204.05L66.28 207.9V198.92L72.94 195.08V204.05Z" fill="#6675FF"/>
<path d="M84.05 197.64L77.39 201.49V192.51L84.05 188.66V197.64Z" fill="#6675FF"/>
<path d="M72.94 217.52L66.28 221.37V212.39L72.94 208.54V217.52Z" fill="#6675FF"/>
<path d="M84.05 211.11L77.39 214.95V205.98L84.05 202.13V211.11Z" fill="#6675FF"/>
<path d="M72.94 230.99L66.28 234.83V225.86L72.94 222.01V230.99Z" fill="#6675FF"/>
<path d="M84.05 224.57L77.39 228.42V219.44L84.05 215.6V224.57Z" fill="#6675FF"/>
<path d="M72.94 245.09L66.28 248.94V239.96L72.94 236.12V245.09Z" fill="#6675FF"/>
<path d="M84.05 238.68L77.39 242.53V233.55L84.05 229.7V238.68Z" fill="#6675FF"/>
<path d="M56.29 221.36L38.52 211.1V202.13L56.29 212.38V221.36Z" fill="#6675FF"/>
<path d="M56.29 234.83L38.52 224.57V215.59L56.29 225.85V234.83Z" fill="#6675FF"/>
<path d="M56.29 248.94L38.52 238.68V229.7L56.29 239.96V248.94Z" fill="#6675FF"/>
<path d="M61.28 187.06L45.26 177.81V174.95L61.28 184.2V187.06Z" fill="#E4E7EF"/>
<path d="M61.28 187.06L77.31 177.81V174.95L61.28 184.2V187.06Z" fill="#DADCE5"/>
<path d="M182.54 246.82L154.78 230.79V164.11L182.54 180.14V246.82Z" fill="#E4E7EF"/>
<path d="M182.54 180.14L154.78 164.1L182.54 148.07L210.31 164.11L182.54 180.14Z" fill="#EDF1F9"/>
<path d="M177.54 193.92L159.77 183.66V174.69L177.54 184.95V193.92Z" fill="#6675FF"/>
<path d="M210.31 230.8L182.54 246.83V180.14L210.31 164.11V230.8Z" fill="#DADCE5"/>
<path d="M194.2 190.08L187.54 193.93V184.95L194.2 181.1V190.08Z" fill="#6675FF"/>
<path d="M205.31 183.67L198.65 187.52V178.54L205.31 174.69V183.67Z" fill="#6675FF"/>
<path class="lights" d="M194.2 203.55L187.54 207.39V198.42L194.2 194.57V203.55Z" fill="#6675FF"/>
<path d="M205.31 197.13L198.65 200.98V192L205.31 188.16V197.13Z" fill="#6675FF"/>
<path d="M194.2 217.01L187.54 220.86V211.88L194.2 208.03V217.01Z" fill="#6675FF"/>
<path d="M205.31 210.6L198.65 214.45V205.47L205.31 201.62V210.6Z" fill="#6675FF"/>
<path d="M194.2 231.12L187.54 234.97V225.99L194.2 222.14V231.12Z" fill="#6675FF"/>
<path d="M205.31 224.71L198.65 228.55V219.58L205.31 215.73V224.71Z" fill="#6675FF"/>
<path d="M177.54 207.39L159.77 197.13V188.15L177.54 198.41V207.39Z" fill="#6675FF"/>
<path d="M177.54 220.85L159.77 210.59V201.62L177.54 211.88V220.85Z" fill="#6675FF"/>
<path d="M177.54 234.96L159.77 224.7V215.72L177.54 225.98V234.96Z" fill="#6675FF"/>
<path d="M182.54 173.09L166.52 163.84V160.98L182.54 170.23V173.09Z" fill="#E4E7EF"/>
<path d="M182.54 173.09L198.57 163.84V160.98L182.54 170.23V173.09Z" fill="#DADCE5"/>
<path d="M282.9 254.69L239.48 229.63V25.0699L282.9 50.1399V254.69Z" fill="#E4E7EF"/>
<path d="M277.72 60.27L244.59 41.15V32.63L277.72 51.75V60.27Z" fill="#6675FF"/>
<path class="lights" d="M277.72 70.04L244.59 50.91V42.39L277.72 61.52V70.04Z" fill="#6675FF"/>
<path d="M277.72 79.81L244.59 60.68V52.16L277.72 71.28V79.81Z" fill="#6675FF"/>
<path d="M277.72 89.5701L244.59 70.4501V61.9301L277.72 81.0501V89.5701Z" fill="#6675FF"/>
<path d="M277.72 99.3399L244.59 80.2199V71.6899L277.72 90.8199V99.3399Z" fill="#6675FF"/>
<path d="M277.72 109.11L244.59 89.98V81.46L277.72 100.59V109.11Z" fill="#6675FF"/>
<path d="M277.72 118.88L244.59 99.75V91.23L277.72 110.35V118.88Z" fill="#6675FF"/>
<path d="M277.72 128.64L244.59 109.52V101L277.72 120.12V128.64Z" fill="#6675FF"/>
<path class="lights" d="M277.72 138.41L244.59 119.29V110.76L277.72 129.89V138.41Z" fill="#6675FF"/>
<path d="M277.72 148.18L244.59 129.05V120.53L277.72 139.66V148.18Z" fill="#6675FF"/>
<path d="M277.72 157.94L244.59 138.82V130.3L277.72 149.42V157.94Z" fill="#6675FF"/>
<path d="M277.72 167.71L244.59 148.59V140.06L277.72 159.19V167.71Z" fill="#6675FF"/>
<path d="M277.72 177.48L244.59 158.35V149.83L277.72 168.96V177.48Z" fill="#6675FF"/>
<path d="M277.72 187.25L244.59 168.12V159.6L277.72 178.72V187.25Z" fill="#6675FF"/>
<path d="M277.72 197.01L244.59 177.89V169.37L277.72 188.49V197.01Z" fill="#6675FF"/>
<path class="lights" d="M277.72 206.78L244.59 187.66V179.13L277.72 198.26V206.78Z" fill="#6675FF"/>
<path d="M277.72 216.55L244.59 197.42V188.9L277.72 208.03V216.55Z" fill="#6675FF"/>
<path d="M252.75 202.13L252.17 201.8V37L252.75 37.34V202.13Z" fill="#DADCE5"/>
<path d="M261.07 206.94L260.5 206.6V41.8101L261.07 42.1401V206.94Z" fill="#DADCE5"/>
<path d="M269.4 211.74L268.82 211.41V46.61L269.4 46.95V211.74Z" fill="#DADCE5"/>
<path d="M282.9 50.14L239.49 25.07L282.9 0L326.32 25.07L282.9 50.14Z" fill="#EDF1F9"/>
<path d="M326.32 229.63L282.9 254.69V50.1399L326.32 25.0699V229.63Z" fill="#DADCE5"/>
<path d="M321.14 41.19L288.01 60.32V51.79L321.14 32.67V41.19Z" fill="#6675FF"/>
<path d="M321.14 50.9599L288.01 70.0799V61.5599L321.14 42.4399V50.9599Z" fill="#6675FF"/>
<path d="M321.14 60.7299L288.01 79.8499V71.33L321.14 52.2V60.7299Z" fill="#6675FF"/>
<path d="M321.14 70.49L288.01 89.62V81.09L321.14 61.97V70.49Z" fill="#6675FF"/>
<path d="M321.14 80.26L288.01 99.38V90.86L321.14 71.74V80.26Z" fill="#6675FF"/>
<path d="M321.14 90.03L288.01 109.15V100.63L321.14 81.5V90.03Z" fill="#6675FF"/>
<path d="M321.14 99.79L288.01 118.92V110.4L321.14 91.27V99.79Z" fill="#6675FF"/>
<path d="M321.14 109.56L288.01 128.69V120.16L321.14 101.04V109.56Z" fill="#6675FF"/>
<path d="M321.14 119.33L288.01 138.45V129.93L321.14 110.81V119.33Z" fill="#6675FF"/>
<path d="M321.14 129.1L288.01 148.22V139.7L321.14 120.57V129.1Z" fill="#6675FF"/>
<path d="M321.14 138.86L288.01 157.99V149.47L321.14 130.34V138.86Z" fill="#6675FF"/>
<path d="M321.14 148.63L288.01 167.75V159.23L321.14 140.11V148.63Z" fill="#6675FF"/>
<path class="lights" d="M321.14 158.4L288.01 177.52V169L321.14 149.88V158.4Z" fill="#6675FF"/>
<path d="M321.14 168.16L288.01 187.29V178.77L321.14 159.64V168.16Z" fill="#6675FF"/>
<path d="M321.14 177.93L288.01 197.06V188.53L321.14 169.41V177.93Z" fill="#6675FF"/>
<path d="M321.14 187.7L288.01 206.82V198.3L321.14 179.18V187.7Z" fill="#6675FF"/>
<path d="M321.14 197.47L288.01 216.59V208.07L321.14 188.94V197.47Z" fill="#6675FF"/>
<path d="M296.17 211.88L295.6 212.22V47.42L296.17 47.08V211.88Z" fill="#DADCE5"/>
<path d="M304.5 207.08L303.92 207.41V42.61L304.5 42.28V207.08Z" fill="#DADCE5"/>
<path d="M312.82 202.27L312.24 202.61V37.81L312.82 37.47V202.27Z" fill="#DADCE5"/>
<path d="M212.69 264.18L194.82 253.86V231.55L212.69 241.87V264.18Z" fill="#E4E7EF"/>
<path d="M212.68 241.89L194.81 231.57L210.61 222.07L228.47 232.39L212.68 241.89Z" fill="#EDF1F9"/>
<path d="M240.46 280.2L212.69 264.17V197.49L240.46 213.52V280.2Z" fill="#E4E7EF"/>
<path d="M240.45 213.52L212.69 197.49L240.45 181.46L268.22 197.49L240.45 213.52Z" fill="#EDF1F9"/>
<path d="M235.46 227.3L217.69 217.04V208.07L235.46 218.33V227.3Z" fill="#6675FF"/>
<path d="M268.22 264.18L240.45 280.21V213.52L268.22 197.49V264.18Z" fill="#DADCE5"/>
<path class="lights" d="M252.12 223.46L245.45 227.31V218.33L252.12 214.48V223.46Z" fill="#6675FF"/>
<path d="M263.22 217.05L256.56 220.9V211.92L263.22 208.07V217.05Z" fill="#6675FF"/>
<path d="M252.12 236.93L245.45 240.77V231.8L252.12 227.95V236.93Z" fill="#6675FF"/>
<path d="M263.22 230.51L256.56 234.36V225.38L263.22 221.54V230.51Z" fill="#6675FF"/>
<path d="M252.12 250.39L245.45 254.24V245.26L252.12 241.41V250.39Z" fill="#6675FF"/>
<path d="M263.22 243.98L256.56 247.83V238.85L263.22 235V243.98Z" fill="#6675FF"/>
<path d="M252.12 264.5L245.45 268.35V259.37L252.12 255.52V264.5Z" fill="#6675FF"/>
<path d="M263.22 258.09L256.56 261.93V252.96L263.22 249.11V258.09Z" fill="#6675FF"/>
<path d="M235.46 240.77L217.69 230.51V221.53L235.46 231.79V240.77Z" fill="#6675FF"/>
<path d="M235.46 254.24L217.69 243.97V235L235.46 245.26V254.24Z" fill="#6675FF"/>
<path d="M235.46 268.34L217.69 258.08V249.1L235.46 259.37V268.34Z" fill="#6675FF"/>
<path d="M209.95 254.24L197.76 247.22V238.25L209.95 245.26V254.24Z" fill="#6675FF"/>
<path class="lights" d="M240.46 206.47L224.43 197.22V194.36L240.46 203.61V206.47Z" fill="#E4E7EF"/>
<path d="M240.46 206.47L256.48 197.22V194.36L240.46 203.61V206.47Z" fill="#DADCE5"/>
<path d="M377.24 246.52L349.47 230.49V125.33L377.24 141.36V246.52Z" fill="#E4E7EF"/>
<path d="M377.24 141.36L349.47 125.33L377.24 109.3L405 125.33L377.24 141.36Z" fill="#EDF1F9"/>
<path d="M372.24 155.15L354.47 144.89V135.91L372.24 146.17V155.15Z" fill="#6675FF"/>
<path d="M405 230.5L377.24 246.53V141.37L405 125.33V230.5Z" fill="#DADCE5"/>
<path d="M388.9 151.3L382.23 155.15V146.17L388.9 142.33V151.3Z" fill="#6675FF"/>
<path d="M400 144.89L393.34 148.74V139.76L400 135.91V144.89Z" fill="#6675FF"/>
<path d="M388.9 164.77L382.23 168.62V159.64L388.9 155.79V164.77Z" fill="#6675FF"/>
<path d="M400 158.36L393.34 162.21V153.23L400 149.38V158.36Z" fill="#6675FF"/>
<path d="M388.9 178.24L382.23 182.08V173.11L388.9 169.26V178.24Z" fill="#6675FF"/>
<path d="M400 171.82L393.34 175.67V166.69L400 162.85V171.82Z" fill="#6675FF"/>
<path d="M388.9 192.34L382.23 196.19V187.21L388.9 183.37V192.34Z" fill="#6675FF"/>
<path d="M400 185.93L393.34 189.78V180.8L400 176.95V185.93Z" fill="#6675FF"/>
<path d="M388.9 207.41L382.23 211.25V202.28L388.9 198.43V207.41Z" fill="#6675FF"/>
<path d="M400 200.99L393.34 204.84V195.86L400 192.02V200.99Z" fill="#6675FF"/>
<path d="M388.9 222.81L382.23 226.65V217.68L388.9 213.83V222.81Z" fill="#6675FF"/>
<path d="M400 216.39L393.34 220.24V211.26L400 207.42V216.39Z" fill="#6675FF"/>
<path d="M372.24 168.61L354.47 158.35V149.38L372.24 159.63V168.61Z" fill="#6675FF"/>
<path d="M372.24 182.08L354.47 171.82V162.84L372.24 173.1V182.08Z" fill="#6675FF"/>
<path d="M372.24 196.19L354.47 185.93V176.95L372.24 187.21V196.19Z" fill="#6675FF"/>
<path d="M372.24 211.25L354.47 200.99V192.02L372.24 202.28V211.25Z" fill="#6675FF"/>
<path d="M372.24 226.65L354.47 216.39V207.42L372.24 217.68V226.65Z" fill="#6675FF"/>
<path d="M377.24 134.32L361.21 125.06V122.2L377.24 131.45V134.32Z" fill="#E4E7EF"/>
<path d="M377.24 134.32L393.26 125.06V122.2L377.24 131.45V134.32Z" fill="#DADCE5"/>
<path d="M421.11 270.23L393.34 254.2V187.51L421.11 203.54V270.23Z" fill="#E4E7EF"/>
<path d="M421.11 203.54L393.34 187.51L421.11 171.48L448.87 187.51L421.11 203.54Z" fill="#EDF1F9"/>
<path d="M416.11 217.33L398.34 207.07V198.09L416.11 208.35V217.33Z" fill="#6675FF"/>
<path d="M448.87 254.21L421.11 270.24V203.55L448.87 187.52V254.21Z" fill="#DADCE5"/>
<path d="M432.77 213.49L426.11 217.34V208.36L432.77 204.51V213.49Z" fill="#6675FF"/>
<path d="M443.88 207.08L437.21 210.92V201.95L443.88 198.1V207.08Z" fill="#6675FF"/>
<path d="M432.77 226.95L426.11 230.8V221.82L432.77 217.98V226.95Z" fill="#6675FF"/>
<path d="M443.88 220.54L437.21 224.39V215.41L443.88 211.56V220.54Z" fill="#6675FF"/>
<path d="M432.77 240.42L426.11 244.27V235.29L432.77 231.44V240.42Z" fill="#6675FF"/>
<path d="M443.88 234.01L437.21 237.85V228.88L443.88 225.03V234.01Z" fill="#6675FF"/>
<path d="M432.77 254.53L426.11 258.37V249.4L432.77 245.55V254.53Z" fill="#6675FF"/>
<path d="M443.88 248.11L437.21 251.96V242.98L443.88 239.14V248.11Z" fill="#6675FF"/>
<path d="M416.11 230.8L398.34 220.54V211.56L416.11 221.82V230.8Z" fill="#6675FF"/>
<path d="M416.11 244.26L398.34 234V225.03L416.11 235.28V244.26Z" fill="#6675FF"/>
<path d="M416.11 258.37L398.34 248.11V239.13L416.11 249.39V258.37Z" fill="#6675FF"/>
<path d="M421.11 196.5L405.08 187.25V184.39L421.11 193.64V196.5Z" fill="#E4E7EF"/>
<path d="M421.11 196.5L437.13 187.25V184.39L421.11 193.64V196.5Z" fill="#DADCE5"/>
<path d="M344.47 235.11H341.34V246.11C341.353 246.248 341.402 246.38 341.483 246.492C341.564 246.605 341.673 246.694 341.8 246.75C342.143 246.922 342.521 247.012 342.905 247.012C343.289 247.012 343.667 246.922 344.01 246.75C344.137 246.694 344.246 246.605 344.327 246.492C344.408 246.38 344.457 246.248 344.47 246.11V235.11Z" fill="#443D31"/>
<path d="M342.98 235.27C347.509 235.27 351.18 231.599 351.18 227.07C351.18 222.541 347.509 218.87 342.98 218.87C338.451 218.87 334.78 222.541 334.78 227.07C334.78 231.599 338.451 235.27 342.98 235.27Z" fill="#C6E800"/>
<path d="M325.49 246.08H322.36V257.08C322.371 257.217 322.421 257.348 322.502 257.459C322.583 257.571 322.693 257.657 322.82 257.71C323.161 257.887 323.54 257.979 323.925 257.979C324.31 257.979 324.689 257.887 325.03 257.71C325.157 257.657 325.267 257.571 325.348 257.459C325.429 257.348 325.478 257.217 325.49 257.08V246.08Z" fill="#443D31"/>
<path d="M324 246.25C328.529 246.25 332.2 242.579 332.2 238.05C332.2 233.521 328.529 229.85 324 229.85C319.471 229.85 315.8 233.521 315.8 238.05C315.8 242.579 319.471 246.25 324 246.25Z" fill="#C6E800"/>
<path d="M305.18 257.69H302.05V268.69C302.063 268.828 302.112 268.96 302.193 269.072C302.274 269.185 302.383 269.274 302.51 269.33C302.853 269.502 303.231 269.592 303.615 269.592C303.999 269.592 304.377 269.502 304.72 269.33C304.847 269.274 304.956 269.185 305.037 269.072C305.118 268.96 305.167 268.828 305.18 268.69V257.69Z" fill="#443D31"/>
<path d="M303.69 257.85C308.219 257.85 311.89 254.179 311.89 249.65C311.89 245.121 308.219 241.45 303.69 241.45C299.161 241.45 295.49 245.121 295.49 249.65C295.49 254.179 299.161 257.85 303.69 257.85Z" fill="#C6E800"/>
<path d="M285.14 270H282V281C282.013 281.138 282.062 281.27 282.143 281.382C282.224 281.495 282.333 281.584 282.46 281.64C282.803 281.812 283.181 281.902 283.565 281.902C283.949 281.902 284.327 281.812 284.67 281.64C284.797 281.584 284.906 281.495 284.987 281.382C285.068 281.27 285.117 281.138 285.13 281L285.14 270Z" fill="#443D31"/>
<path d="M283.65 270.15C288.179 270.15 291.85 266.479 291.85 261.95C291.85 257.421 288.179 253.75 283.65 253.75C279.121 253.75 275.45 257.421 275.45 261.95C275.45 266.479 279.121 270.15 283.65 270.15Z" fill="#C6E800"/>
<path d="M151.37 241.31H148.24V252.31C148.253 252.448 148.302 252.58 148.383 252.692C148.464 252.805 148.573 252.894 148.7 252.95C149.043 253.122 149.421 253.212 149.805 253.212C150.189 253.212 150.567 253.122 150.91 252.95C151.037 252.894 151.146 252.805 151.227 252.692C151.308 252.58 151.357 252.448 151.37 252.31V241.31Z" fill="#443D31"/>
<path d="M149.88 241.47C154.409 241.47 158.08 237.799 158.08 233.27C158.08 228.741 154.409 225.07 149.88 225.07C145.351 225.07 141.68 228.741 141.68 233.27C141.68 237.799 145.351 241.47 149.88 241.47Z" fill="#C6E800"/>
<path d="M132.39 252.28H129.26V263.28C129.27 263.419 129.318 263.552 129.399 263.665C129.48 263.778 129.592 263.867 129.72 263.92C130.061 264.097 130.44 264.19 130.825 264.19C131.21 264.19 131.589 264.097 131.93 263.92C132.059 263.867 132.17 263.778 132.251 263.665C132.332 263.552 132.38 263.419 132.39 263.28V252.28Z" fill="#443D31"/>
<path d="M130.9 252.45C135.429 252.45 139.1 248.779 139.1 244.25C139.1 239.721 135.429 236.05 130.9 236.05C126.371 236.05 122.7 239.721 122.7 244.25C122.7 248.779 126.371 252.45 130.9 252.45Z" fill="#C6E800"/>
<path d="M112.08 264H109V275C109.012 275.137 109.061 275.268 109.142 275.38C109.223 275.491 109.333 275.577 109.46 275.63C109.801 275.807 110.18 275.9 110.565 275.9C110.95 275.9 111.329 275.807 111.67 275.63C111.797 275.577 111.907 275.491 111.988 275.38C112.069 275.268 112.118 275.137 112.13 275L112.08 264Z" fill="#443D31"/>
<path d="M110.59 264.19C115.119 264.19 118.79 260.519 118.79 255.99C118.79 251.461 115.119 247.79 110.59 247.79C106.061 247.79 102.39 251.461 102.39 255.99C102.39 260.519 106.061 264.19 110.59 264.19Z" fill="#C6E800"/>
<path d="M361.68 247.8H358.55V258.8C358.562 258.938 358.611 259.071 358.692 259.183C358.773 259.296 358.883 259.385 359.01 259.44C359.351 259.617 359.73 259.71 360.115 259.71C360.5 259.71 360.879 259.617 361.22 259.44C361.349 259.387 361.46 259.298 361.541 259.185C361.622 259.072 361.67 258.939 361.68 258.8V247.8Z" fill="#443D31"/>
<path d="M360.19 247.97C364.719 247.97 368.39 244.299 368.39 239.77C368.39 235.241 364.719 231.57 360.19 231.57C355.661 231.57 351.99 235.241 351.99 239.77C351.99 244.299 355.661 247.97 360.19 247.97Z" fill="#C6E800"/>
<path d="M342.7 258.78H339.57V269.78C339.585 269.917 339.635 270.048 339.716 270.161C339.796 270.273 339.905 270.362 340.03 270.42C340.373 270.592 340.751 270.682 341.135 270.682C341.519 270.682 341.897 270.592 342.24 270.42C342.367 270.364 342.476 270.275 342.557 270.162C342.638 270.05 342.687 269.918 342.7 269.78V258.78Z" fill="#443D31"/>
<path d="M341.21 258.94C345.739 258.94 349.41 255.269 349.41 250.74C349.41 246.211 345.739 242.54 341.21 242.54C336.681 242.54 333.01 246.211 333.01 250.74C333.01 255.269 336.681 258.94 341.21 258.94Z" fill="#C6E800"/>
<path d="M323.39 270.52H320.27V281.52C320.283 281.657 320.331 281.787 320.41 281.9C320.489 282.012 320.596 282.102 320.72 282.16C321.065 282.333 321.445 282.422 321.83 282.422C322.215 282.422 322.595 282.333 322.94 282.16C323.064 282.102 323.171 282.012 323.25 281.9C323.329 281.787 323.377 281.657 323.39 281.52V270.52Z" fill="#443D31"/>
<path d="M321.91 270.68C326.439 270.68 330.11 267.009 330.11 262.48C330.11 257.951 326.439 254.28 321.91 254.28C317.381 254.28 313.71 257.951 313.71 262.48C313.71 267.009 317.381 270.68 321.91 270.68Z" fill="#C6E800"/>
<path d="M305.1 281H302V292C302.015 292.137 302.065 292.268 302.146 292.381C302.226 292.493 302.335 292.582 302.46 292.64C302.805 292.812 303.185 292.902 303.57 292.902C303.955 292.902 304.335 292.812 304.68 292.64C304.804 292.582 304.911 292.492 304.99 292.38C305.069 292.267 305.117 292.137 305.13 292L305.1 281Z" fill="#443D31"/>
<path d="M303.62 281.13C308.149 281.13 311.82 277.459 311.82 272.93C311.82 268.401 308.149 264.73 303.62 264.73C299.091 264.73 295.42 268.401 295.42 272.93C295.42 277.459 299.091 281.13 303.62 281.13Z" fill="#C6E800"/>
<path d="M284.47 293H281.34V304C281.353 304.138 281.402 304.27 281.483 304.382C281.564 304.495 281.673 304.584 281.8 304.64C282.143 304.812 282.521 304.902 282.905 304.902C283.289 304.902 283.667 304.812 284.01 304.64C284.137 304.584 284.246 304.495 284.327 304.382C284.408 304.27 284.457 304.138 284.47 304V293Z" fill="#443D31"/>
<path d="M282.98 293.14C287.509 293.14 291.18 289.469 291.18 284.94C291.18 280.411 287.509 276.74 282.98 276.74C278.451 276.74 274.78 280.411 274.78 284.94C274.78 289.469 278.451 293.14 282.98 293.14Z" fill="#C6E800"/>
<path d="M284.47 317H281.34V328C281.35 328.139 281.398 328.272 281.479 328.385C281.56 328.498 281.671 328.587 281.8 328.64C282.141 328.817 282.52 328.91 282.905 328.91C283.29 328.91 283.669 328.817 284.01 328.64C284.138 328.587 284.25 328.498 284.331 328.385C284.412 328.272 284.46 328.139 284.47 328V317Z" fill="#443D31"/>
<path d="M282.98 317.16C287.509 317.16 291.18 313.489 291.18 308.96C291.18 304.431 287.509 300.76 282.98 300.76C278.451 300.76 274.78 304.431 274.78 308.96C274.78 313.489 278.451 317.16 282.98 317.16Z" fill="#C6E800"/>
<path d="M265.49 328H262.36V339C262.373 339.138 262.422 339.27 262.503 339.382C262.584 339.495 262.693 339.584 262.82 339.64C263.163 339.812 263.541 339.902 263.925 339.902C264.309 339.902 264.687 339.812 265.03 339.64C265.157 339.584 265.266 339.495 265.347 339.382C265.428 339.27 265.477 339.138 265.49 339V328Z" fill="#443D31"/>
<path d="M264 328.13C268.529 328.13 272.2 324.459 272.2 319.93C272.2 315.401 268.529 311.73 264 311.73C259.471 311.73 255.8 315.401 255.8 319.93C255.8 324.459 259.471 328.13 264 328.13Z" fill="#C6E800"/>
<path d="M245.18 339.71H242.05V350.71C242.063 350.848 242.112 350.98 242.193 351.092C242.274 351.205 242.383 351.294 242.51 351.35C242.853 351.522 243.231 351.612 243.615 351.612C243.999 351.612 244.377 351.522 244.72 351.35C244.847 351.294 244.956 351.205 245.037 351.092C245.118 350.98 245.167 350.848 245.18 350.71V339.71Z" fill="#443D31"/>
<path d="M243.69 339.87C248.219 339.87 251.89 336.199 251.89 331.67C251.89 327.141 248.219 323.47 243.69 323.47C239.161 323.47 235.49 327.141 235.49 331.67C235.49 336.199 239.161 339.87 243.69 339.87Z" fill="#C6E800"/>
<path d="M344.47 282H341.34V293C341.353 293.138 341.402 293.27 341.483 293.382C341.564 293.495 341.673 293.584 341.8 293.64C342.143 293.812 342.521 293.902 342.905 293.902C343.289 293.902 343.667 293.812 344.01 293.64C344.137 293.584 344.246 293.495 344.327 293.382C344.408 293.27 344.457 293.138 344.47 293V282Z" fill="#443D31"/>
<path d="M342.98 282.16C347.509 282.16 351.18 278.489 351.18 273.96C351.18 269.431 347.509 265.76 342.98 265.76C338.451 265.76 334.78 269.431 334.78 273.96C334.78 278.489 338.451 282.16 342.98 282.16Z" fill="#C6E800"/>
<path d="M325.49 293H322.36V304C322.373 304.138 322.422 304.27 322.503 304.382C322.584 304.495 322.693 304.584 322.82 304.64C323.163 304.812 323.541 304.902 323.925 304.902C324.309 304.902 324.687 304.812 325.03 304.64C325.157 304.584 325.266 304.495 325.347 304.382C325.428 304.27 325.477 304.138 325.49 304V293Z" fill="#443D31"/>
<path d="M324 293.14C328.529 293.14 332.2 289.469 332.2 284.94C332.2 280.411 328.529 276.74 324 276.74C319.471 276.74 315.8 280.411 315.8 284.94C315.8 289.469 319.471 293.14 324 293.14Z" fill="#C6E800"/>
<path d="M305.18 304.72H302.05V315.72C302.063 315.858 302.112 315.99 302.193 316.102C302.274 316.215 302.383 316.304 302.51 316.36C302.853 316.532 303.231 316.622 303.615 316.622C303.999 316.622 304.377 316.532 304.72 316.36C304.847 316.304 304.956 316.215 305.037 316.102C305.118 315.99 305.167 315.858 305.18 315.72V304.72Z" fill="#443D31"/>
<path d="M303.69 304.88C308.219 304.88 311.89 301.209 311.89 296.68C311.89 292.151 308.219 288.48 303.69 288.48C299.161 288.48 295.49 292.151 295.49 296.68C295.49 301.209 299.161 304.88 303.69 304.88Z" fill="#C6E800"/>
<path d="M382.34 260H379.21V271C379.221 271.137 379.27 271.268 379.352 271.38C379.433 271.491 379.543 271.577 379.67 271.63C380.011 271.807 380.39 271.9 380.775 271.9C381.16 271.9 381.539 271.807 381.88 271.63C382.007 271.577 382.117 271.491 382.198 271.38C382.279 271.268 382.328 271.137 382.34 271V260Z" fill="#443D31"/>
<path d="M380.85 260.2C385.379 260.2 389.05 256.529 389.05 252C389.05 247.471 385.379 243.8 380.85 243.8C376.321 243.8 372.65 247.471 372.65 252C372.65 256.529 376.321 260.2 380.85 260.2Z" fill="#C6E800"/>
<path d="M363.36 271H360.23V282C360.243 282.138 360.292 282.27 360.373 282.382C360.454 282.495 360.563 282.584 360.69 282.64C361.033 282.812 361.411 282.902 361.795 282.902C362.179 282.902 362.557 282.812 362.9 282.64C363.027 282.584 363.136 282.495 363.217 282.382C363.298 282.27 363.347 282.138 363.36 282V271Z" fill="#443D31"/>
<path d="M361.87 271.17C366.399 271.17 370.07 267.499 370.07 262.97C370.07 258.441 366.399 254.77 361.87 254.77C357.341 254.77 353.67 258.441 353.67 262.97C353.67 267.499 357.341 271.17 361.87 271.17Z" fill="#C6E800"/>
<defs>
<clipPath id="clip0">
<rect width="500" height="395.34" fill="white"/>
</clipPath>
</defs>
</svg>
