<svg width="283" height="58" viewBox="0 0 283 58" fill="none" xmlns="http://www.w3.org/2000/svg">
<path d="M19.8401 57.56C16.1601 57.56 12.8534 56.92 9.92006 55.64C7.04006 54.3067 4.77339 52.4934 3.12006 50.2C1.46672 47.8534 0.613392 45.16 0.560059 42.12H8.32006C8.58673 44.7334 9.65339 46.9467 11.5201 48.76C13.4401 50.52 16.2134 51.4 19.8401 51.4C23.3067 51.4 26.0267 50.5467 28.0001 48.84C30.0267 47.08 31.0401 44.84 31.0401 42.12C31.0401 39.9867 30.4534 38.2534 29.2801 36.92C28.1067 35.5867 26.6401 34.5734 24.8801 33.88C23.1201 33.1867 20.7467 32.44 17.7601 31.64C14.0801 30.68 11.1201 29.72 8.88006 28.76C6.69339 27.8 4.80006 26.3067 3.20006 24.28C1.65339 22.2 0.880058 19.4267 0.880058 15.96C0.880058 12.92 1.65339 10.2267 3.20006 7.88002C4.74673 5.53335 6.90673 3.72002 9.68006 2.44002C12.5067 1.16002 15.7334 0.52002 19.3601 0.52002C24.5867 0.52002 28.8534 1.82669 32.1601 4.44002C35.5201 7.05335 37.4134 10.52 37.8401 14.84H29.8401C29.5734 12.7067 28.4534 10.84 26.4801 9.24002C24.5067 7.58669 21.8934 6.76002 18.6401 6.76002C15.6001 6.76002 13.1201 7.56002 11.2001 9.16002C9.28006 10.7067 8.32006 12.8934 8.32006 15.72C8.32006 17.7467 8.88006 19.4 10.0001 20.68C11.1734 21.96 12.5867 22.9467 14.2401 23.64C15.9467 24.28 18.3201 25.0267 21.3601 25.88C25.0401 26.8934 28.0001 27.9067 30.2401 28.92C32.4801 29.88 34.4001 31.4 36.0001 33.48C37.6001 35.5067 38.4001 38.28 38.4001 41.8C38.4001 44.52 37.6801 47.08 36.2401 49.48C34.8001 51.88 32.6667 53.8267 29.8401 55.32C27.0134 56.8134 23.6801 57.56 19.8401 57.56Z" stroke="#79D9FF" stroke-width="5"/>
<path d="M83.4332 1.24002V7.16002H68.2332V57H60.9532V7.16002H45.6732V1.24002H83.4332Z" stroke="#79D9FF" stroke-width="5"/>
<path d="M99.6744 7.16002V25.8H119.994V31.8H99.6744V51H122.394V57H92.3944V1.16002H122.394V7.16002H99.6744Z" stroke="#79D9FF" stroke-width="5"/>
<path d="M189.97 1.64002V57H182.69V15.72L164.29 57H159.17L140.69 15.64V57H133.41V1.64002H141.25L161.73 47.4L182.21 1.64002H189.97Z" stroke="#79D9FF" stroke-width="5"/>
<path d="M209.596 7.16002V25.8H229.916V31.8H209.596V51H232.316V57H202.316V1.16002H232.316V7.16002H209.596Z" stroke="#79D9FF" stroke-width="5"/>
<path d="M282.372 1.24002L264.212 35.96V57H256.932V35.96L238.692 1.24002H246.772L260.532 29.48L274.292 1.24002H282.372Z" stroke="#79D9FF" stroke-width="5"/>
</svg>