<svg width="319" height="255" viewBox="0 0 319 255" fill="none" xmlns="http://www.w3.org/2000/svg">
<path d="M146.995 89.25C146.995 89.097 147.059 88.944 147.123 88.791V88.74C147.187 88.587 147.25 88.434 147.314 88.281C147.378 88.128 147.506 87.975 147.633 87.822C147.761 87.669 147.888 87.516 148.016 87.363C148.016 87.363 148.016 87.312 148.08 87.312C148.207 87.21 148.335 87.057 148.463 86.955L148.526 86.904C148.654 86.802 148.718 86.751 148.845 86.649C148.909 86.598 148.973 86.598 148.973 86.547C149.101 86.445 149.292 86.343 149.483 86.292C149.675 86.241 149.802 86.139 149.93 86.139H149.994C150.121 86.088 150.249 86.088 150.44 86.088C150.44 86.088 150.44 86.088 150.504 86.088C150.632 86.088 150.759 86.088 150.887 86.088C151.015 86.088 151.142 86.139 151.27 86.19L148.399 84.864C148.335 84.864 148.335 84.813 148.271 84.813C148.207 84.813 148.207 84.762 148.144 84.762H148.08C148.016 84.762 147.952 84.762 147.952 84.762C147.888 84.762 147.825 84.762 147.761 84.762H147.697C147.697 84.762 147.697 84.762 147.633 84.762C147.569 84.762 147.569 84.762 147.506 84.762C147.442 84.762 147.378 84.762 147.25 84.813C147.25 84.813 147.187 84.813 147.123 84.864H147.059C146.995 84.864 146.995 84.864 146.931 84.915C146.804 84.966 146.676 85.017 146.549 85.068C146.357 85.119 146.23 85.221 146.038 85.323C145.974 85.374 145.911 85.374 145.911 85.425C145.847 85.476 145.783 85.527 145.655 85.578C145.592 85.629 145.592 85.629 145.528 85.68L145.464 85.731C145.4 85.782 145.4 85.782 145.336 85.833C145.273 85.884 145.209 85.986 145.145 86.037L145.081 86.088C145.081 86.088 145.081 86.088 145.017 86.139L144.954 86.19C144.89 86.241 144.826 86.292 144.826 86.343C144.762 86.394 144.762 86.445 144.698 86.496C144.635 86.547 144.635 86.598 144.571 86.649C144.507 86.7 144.507 86.751 144.443 86.802C144.443 86.853 144.379 86.904 144.379 86.955C144.316 87.006 144.316 87.057 144.316 87.159C144.316 87.21 144.252 87.312 144.252 87.363C144.252 87.414 144.252 87.414 144.188 87.465V87.516V87.567C144.188 87.669 144.124 87.72 144.124 87.822C144.124 87.873 144.124 87.924 144.124 87.975V88.026V88.077C144.124 88.23 144.06 88.332 144.06 88.485C144.06 89.148 144.316 89.556 144.826 89.811L147.697 91.137C147.25 90.933 146.931 90.474 146.931 89.811C146.931 89.658 146.931 89.505 146.995 89.352C146.995 89.301 146.995 89.25 146.995 89.25Z" fill="#595D69"/>
<path d="M149.483 86.241C150.887 85.578 152.035 86.088 152.035 87.414C152.035 88.689 150.887 90.27 149.483 90.933C148.08 91.596 146.931 91.086 146.931 89.76C146.931 88.485 148.08 86.904 149.483 86.241Z" fill="#616774"/>
<path d="M129.386 192.168C119.497 196.758 103.356 196.758 93.467 192.168C83.578 187.578 83.578 180.183 93.467 175.593C103.356 171.003 119.497 171.003 129.386 175.593C139.339 180.183 139.339 187.578 129.386 192.168Z" fill="#E7E9F2"/>
<path d="M215.389 122.043C215.325 122.094 215.325 122.094 215.261 122.145C215.325 122.145 215.325 122.094 215.389 122.043Z" fill="#323846"/>
<path d="M215.453 121.941C215.453 121.89 215.516 121.89 215.516 121.839C215.516 121.89 215.453 121.941 215.453 121.941Z" fill="#323846"/>
<path d="M215.07 122.298C215.006 122.349 215.006 122.349 214.942 122.4C214.942 122.349 215.006 122.349 215.07 122.298Z" fill="#323846"/>
<path d="M210.923 121.737C210.923 121.788 210.923 121.788 210.923 121.839C210.987 121.788 210.987 121.788 210.923 121.737Z" fill="#323846"/>
<path d="M211.05 121.941C211.05 121.992 211.05 121.992 211.114 122.043C211.05 121.992 211.05 121.992 211.05 121.941Z" fill="#323846"/>
<path d="M211.242 122.145L211.306 122.196C211.306 122.196 211.242 122.196 211.242 122.145Z" fill="#323846"/>
<path d="M290.162 67.779L290.928 67.422L290.609 152.082L289.843 152.439L290.162 67.779Z" fill="#9FA0A2"/>
<path d="M152.099 4.029L152.865 3.672L290.928 67.422L290.162 67.779L152.099 4.029Z" fill="#A1A2A4"/>
<path d="M290.162 67.779L289.843 152.439L151.78 88.689L152.099 4.02899L290.162 67.779Z" fill="#F4F6F9"/>
<path d="M151.334 4.58999C151.334 4.43699 151.397 4.28399 151.461 4.13099V4.07999C151.525 3.92699 151.589 3.77399 151.653 3.62099C151.716 3.46799 151.844 3.31499 151.972 3.16199C152.099 3.00899 152.227 2.85599 152.354 2.70299C152.354 2.70299 152.354 2.65199 152.418 2.65199C152.546 2.54999 152.673 2.39699 152.801 2.29499L152.865 2.24399C152.992 2.14199 153.056 2.09099 153.184 1.98899C153.248 1.93799 153.311 1.93799 153.311 1.88699C153.439 1.78499 153.63 1.68299 153.822 1.63199C154.013 1.58099 154.141 1.47899 154.268 1.47899H154.332C154.46 1.42799 154.587 1.42799 154.779 1.42799C154.779 1.42799 154.779 1.42799 154.843 1.42799C154.97 1.42799 155.098 1.42799 155.225 1.42799C155.353 1.42799 155.481 1.47899 155.608 1.52999L152.737 0.20399C152.673 0.20399 152.673 0.15299 152.61 0.15299C152.546 0.15299 152.546 0.10199 152.482 0.10199H152.418C152.354 0.10199 152.291 0.10199 152.291 0.10199C152.227 0.10199 152.163 0.10199 152.099 0.10199H152.035C152.035 0.10199 152.035 0.10199 151.972 0.10199C151.908 0.10199 151.908 0.10199 151.844 0.10199C151.78 0.10199 151.716 0.10199 151.589 0.15299C151.589 0.15299 151.525 0.15299 151.461 0.20399H151.397C151.334 0.20399 151.334 0.20399 151.27 0.25499C151.142 0.30599 151.015 0.35699 150.887 0.40799C150.696 0.45899 150.568 0.56099 150.377 0.66299C150.313 0.71399 150.249 0.71399 150.249 0.76499C150.185 0.81599 150.121 0.86699 149.994 0.91799C149.93 0.96899 149.93 0.96899 149.866 1.01999L149.802 1.07099C149.739 1.12199 149.739 1.12199 149.675 1.17299C149.611 1.22399 149.547 1.32599 149.483 1.37699L149.42 1.42799C149.42 1.42799 149.42 1.42799 149.356 1.47899L149.292 1.52999C149.228 1.58099 149.164 1.63199 149.164 1.68299C149.101 1.73399 149.101 1.78499 149.037 1.83599C148.973 1.88699 148.973 1.93799 148.909 1.98899C148.845 2.03999 148.845 2.09099 148.782 2.14199C148.782 2.19299 148.718 2.24399 148.718 2.29499C148.654 2.34599 148.654 2.39699 148.654 2.49899C148.654 2.54999 148.59 2.65199 148.59 2.70299C148.59 2.75399 148.59 2.75399 148.526 2.80499V2.85599V2.90699C148.526 3.00899 148.463 3.05999 148.463 3.16199C148.463 3.21299 148.463 3.26399 148.463 3.31499V3.36599V3.41699C148.463 3.56999 148.399 3.67199 148.399 3.82499C148.399 4.48799 148.718 4.89599 149.164 5.15099L152.035 6.47699C151.589 6.27299 151.27 5.81399 151.27 5.15099C151.27 4.99799 151.27 4.84499 151.334 4.69199C151.334 4.64099 151.334 4.64099 151.334 4.58999Z" fill="#595D69"/>
<path d="M153.822 1.63197C155.225 0.968967 156.374 1.47897 156.374 2.80497C156.374 4.07997 155.225 5.66097 153.822 6.32397C152.418 6.98697 151.27 6.47697 151.27 5.15097C151.27 3.82497 152.418 2.24397 153.822 1.63197Z" fill="#616774"/>
<path d="M287.738 68.085L153.758 6.27303C152.61 5.76303 152.227 4.59003 152.865 3.67203C153.503 2.75403 154.97 2.44803 156.119 2.95803L290.099 64.77C291.247 65.28 291.63 66.453 290.992 67.371C290.29 68.289 288.823 68.595 287.738 68.085Z" fill="#D5D7E2"/>
<path d="M290.162 68.799C290.162 68.646 290.226 68.493 290.29 68.34V68.289C290.354 68.136 290.418 67.983 290.481 67.83C290.545 67.677 290.673 67.524 290.8 67.371C290.928 67.218 291.056 67.065 291.183 66.912C291.183 66.912 291.183 66.861 291.247 66.861C291.375 66.759 291.502 66.606 291.63 66.504L291.694 66.453C291.821 66.351 291.885 66.3 292.013 66.198C292.076 66.147 292.14 66.147 292.14 66.096C292.268 65.994 292.459 65.892 292.651 65.841C292.842 65.79 292.97 65.688 293.097 65.688H293.161C293.289 65.637 293.416 65.637 293.608 65.637C293.608 65.637 293.608 65.637 293.671 65.637C293.799 65.637 293.927 65.637 294.054 65.637C294.182 65.637 294.309 65.688 294.437 65.739L291.566 64.413C291.502 64.413 291.502 64.362 291.438 64.362C291.375 64.362 291.375 64.311 291.311 64.311H291.247C291.183 64.311 291.119 64.311 291.119 64.311C291.056 64.311 290.992 64.311 290.928 64.311H290.864C290.864 64.311 290.864 64.311 290.8 64.311C290.737 64.311 290.737 64.311 290.673 64.311C290.609 64.311 290.545 64.311 290.418 64.362C290.418 64.362 290.354 64.362 290.29 64.413H290.226C290.162 64.413 290.162 64.413 290.099 64.464C289.971 64.515 289.843 64.566 289.716 64.617C289.524 64.668 289.397 64.77 289.205 64.872C289.142 64.923 289.078 64.923 289.078 64.974C289.014 65.025 288.95 65.076 288.823 65.127C288.759 65.178 288.759 65.178 288.695 65.229L288.631 65.28C288.567 65.331 288.567 65.331 288.504 65.382C288.44 65.433 288.376 65.535 288.312 65.586L288.248 65.637C288.248 65.637 288.248 65.688 288.185 65.688L288.121 65.739C288.057 65.79 287.993 65.841 287.993 65.892C287.929 65.943 287.929 65.994 287.866 66.045C287.802 66.096 287.802 66.147 287.738 66.198C287.674 66.249 287.674 66.3 287.61 66.351C287.547 66.402 287.547 66.453 287.547 66.504C287.483 66.555 287.483 66.606 287.483 66.708C287.483 66.759 287.419 66.861 287.419 66.912C287.419 66.963 287.419 66.963 287.355 67.014V67.065V67.116C287.355 67.218 287.291 67.269 287.291 67.371C287.291 67.422 287.291 67.473 287.291 67.524V67.575V67.626C287.291 67.779 287.228 67.881 287.228 68.034C287.228 68.697 287.483 69.105 287.993 69.36L290.864 70.686C290.418 70.482 290.099 70.023 290.099 69.36C290.099 69.207 290.099 69.054 290.162 68.901C290.162 68.85 290.162 68.85 290.162 68.799Z" fill="#616774"/>
<path d="M292.651 65.79C294.054 65.127 295.203 65.637 295.203 66.963C295.203 68.238 294.054 69.819 292.651 70.482C291.247 71.145 290.099 70.635 290.099 69.309C290.099 68.034 291.247 66.453 292.651 65.79Z" fill="#595D69"/>
<g opacity="0.8">
<g opacity="0.8">
<path opacity="0.8" d="M205.564 63.546L169.006 46.665C166.837 45.696 165.114 46.461 165.114 48.45V73.338C165.114 75.327 166.837 77.724 169.006 78.744L183.297 85.323L187.253 93.483L191.209 88.995L205.5 95.574C207.669 96.543 209.392 95.778 209.392 93.789V68.901C209.455 66.912 207.733 64.515 205.564 63.546Z" fill="#DFE1EA"/>
<path opacity="0.8" d="M180.937 26.979V36.414L185.594 38.556V40.698L178.066 37.23L178.13 25.653L180.937 26.979Z" fill="#3A4151"/>
<path opacity="0.8" d="M194.59 33.252V35.394L190.124 33.303V35.904L194.271 37.791V39.933L190.124 37.995V40.647L194.845 42.84V44.982L187.253 41.463L187.317 29.886L194.59 33.252Z" fill="#3A4151"/>
<path opacity="0.8" d="M201.225 36.108C201.863 36.414 202.437 36.72 202.948 37.026C203.458 37.332 203.905 37.638 204.351 37.995V40.392C204.16 40.137 203.905 39.933 203.65 39.729C203.394 39.525 203.139 39.321 202.884 39.117C202.629 38.913 202.374 38.76 202.118 38.607C201.863 38.454 201.608 38.301 201.353 38.199C201.034 38.046 200.715 37.944 200.46 37.893C200.204 37.842 199.949 37.791 199.822 37.842C199.63 37.842 199.503 37.893 199.375 37.995C199.247 38.097 199.247 38.25 199.247 38.403C199.247 38.607 199.311 38.811 199.439 39.015C199.566 39.219 199.694 39.423 199.885 39.678C200.077 39.933 200.332 40.137 200.651 40.443C200.97 40.698 201.289 41.004 201.672 41.31C202.182 41.718 202.629 42.177 203.012 42.534C203.394 42.942 203.777 43.35 204.032 43.758C204.288 44.166 204.543 44.574 204.67 44.982C204.798 45.39 204.926 45.849 204.926 46.308C204.926 46.971 204.798 47.43 204.543 47.736C204.288 48.042 203.905 48.246 203.458 48.297C203.012 48.348 202.437 48.297 201.863 48.144C201.225 47.991 200.587 47.736 199.949 47.43C199.247 47.124 198.609 46.767 197.971 46.359C197.333 45.951 196.823 45.543 196.376 45.135V42.534C196.887 43.146 197.461 43.707 198.035 44.166C198.609 44.625 199.247 45.033 199.822 45.288C200.204 45.441 200.523 45.594 200.779 45.645C201.034 45.696 201.289 45.747 201.417 45.696C201.608 45.696 201.736 45.594 201.799 45.492C201.863 45.39 201.927 45.237 201.927 45.084C201.927 44.88 201.863 44.625 201.736 44.37C201.608 44.115 201.417 43.86 201.161 43.605C200.906 43.35 200.651 43.044 200.268 42.789C199.949 42.483 199.566 42.177 199.184 41.871C198.227 41.055 197.461 40.239 197.014 39.474C196.504 38.709 196.313 37.944 196.313 37.179C196.313 36.567 196.44 36.108 196.695 35.802C196.951 35.496 197.333 35.292 197.78 35.241C198.227 35.19 198.737 35.19 199.375 35.343C200.013 35.496 200.523 35.802 201.225 36.108Z" fill="#3A4151"/>
<path opacity="0.8" d="M211.306 40.749C211.944 41.055 212.518 41.361 213.028 41.667C213.539 41.973 213.985 42.279 214.432 42.636V45.033C214.24 44.778 213.985 44.574 213.73 44.37C213.475 44.166 213.22 43.962 212.964 43.758C212.709 43.554 212.454 43.401 212.199 43.248C211.944 43.095 211.688 42.942 211.433 42.84C211.114 42.687 210.795 42.585 210.54 42.534C210.285 42.483 210.03 42.432 209.902 42.483C209.711 42.483 209.583 42.534 209.455 42.636C209.328 42.738 209.328 42.891 209.328 43.044C209.328 43.248 209.392 43.452 209.519 43.656C209.647 43.86 209.774 44.064 209.966 44.319C210.157 44.574 210.412 44.778 210.731 45.084C211.05 45.339 211.369 45.645 211.752 45.951C212.263 46.359 212.709 46.818 213.092 47.175C213.475 47.583 213.858 47.991 214.113 48.399C214.432 48.807 214.623 49.215 214.751 49.623C214.878 50.031 215.006 50.49 215.006 50.949C215.006 51.612 214.878 52.071 214.623 52.377C214.368 52.683 213.985 52.887 213.539 52.938C213.092 52.989 212.582 52.938 211.944 52.785C211.306 52.632 210.668 52.377 210.03 52.071C209.328 51.765 208.69 51.408 208.052 51C207.414 50.592 206.903 50.184 206.457 49.776V47.175C206.967 47.787 207.541 48.348 208.116 48.807C208.69 49.266 209.328 49.674 209.902 49.929C210.285 50.082 210.54 50.235 210.859 50.286C211.114 50.337 211.369 50.388 211.497 50.337C211.688 50.337 211.816 50.235 211.88 50.133C211.944 50.031 212.007 49.878 212.007 49.725C212.007 49.521 211.944 49.266 211.816 49.011C211.688 48.756 211.497 48.501 211.242 48.246C210.987 47.991 210.731 47.685 210.349 47.43C210.03 47.124 209.647 46.818 209.264 46.512C208.307 45.696 207.541 44.88 207.095 44.115C206.584 43.35 206.393 42.585 206.393 41.82C206.393 41.208 206.521 40.749 206.776 40.443C207.031 40.137 207.414 39.933 207.86 39.882C208.307 39.831 208.817 39.831 209.455 39.984C210.03 40.239 210.668 40.443 211.306 40.749Z" fill="#3A4151"/>
<path opacity="0.8" d="M227 49.623C228.085 51.204 228.659 52.887 228.659 54.672C228.659 56.508 228.085 57.681 226.937 58.293C225.788 58.854 224.257 58.752 222.407 57.885C220.62 57.069 219.153 55.845 218.005 54.213C216.856 52.632 216.282 50.949 216.282 49.215C216.282 47.379 216.856 46.155 218.005 45.594C219.153 44.982 220.684 45.135 222.598 46.002C224.448 46.818 225.852 48.042 227 49.623ZM224.767 55.743C225.342 55.335 225.661 54.57 225.661 53.448C225.661 52.224 225.405 51.204 224.831 50.235C224.257 49.317 223.491 48.603 222.534 48.195C221.514 47.736 220.748 47.736 220.174 48.144C219.6 48.552 219.281 49.317 219.281 50.439C219.281 51.612 219.536 52.632 220.174 53.55C220.748 54.468 221.514 55.182 222.471 55.59C223.428 56.1 224.193 56.151 224.767 55.743Z" fill="#3A4151"/>
<path opacity="0.8" d="M242.121 55.182L242.057 66.759L239.186 65.433L234.018 55.743C233.699 55.182 233.508 54.774 233.38 54.468C233.38 54.876 233.444 55.539 233.38 56.355V62.73L230.701 61.506L230.765 49.929L233.827 51.357L238.803 60.741C239.059 61.149 239.25 61.557 239.441 61.965C239.441 61.71 239.441 61.149 239.441 60.384V53.958L242.121 55.182Z" fill="#3A4151"/>
<path opacity="0.8" d="M255.391 61.098L255.328 70.89L257.943 72.063V74.103L249.968 70.38V68.391L252.584 69.615V62.373L249.905 61.659V59.619L255.391 61.098Z" fill="#3A4151"/>
<path opacity="0.8" d="M259.411 114.648V117.555L222.279 100.419V97.512L259.411 114.648Z" fill="#D5D7E2"/>
<path opacity="0.8" d="M265.727 111.996V114.954L222.279 94.86V91.953L265.727 111.996Z" fill="#D5D7E2"/>
<path opacity="0.8" d="M272.554 104.091V106.998L222.343 83.793V80.886L272.554 104.091Z" fill="#D5D7E2"/>
<path opacity="0.8" d="M272.617 93.687V99.5011L222.343 76.2961V70.4821L272.617 93.687Z" fill="#D5D7E2"/>
<path opacity="0.8" d="M272.554 109.599V112.506L222.279 89.352L222.343 86.445L272.554 109.599Z" fill="#D5D7E2"/>
</g>
</g>
<path d="M120.773 73.848C123.198 75.99 125.622 78.132 128.047 80.223C130.599 82.467 133.278 84.813 136.851 85.935C142.784 87.873 149.611 86.088 155.353 83.844C157.714 82.926 160.01 81.957 162.243 80.886C164.795 79.662 164.604 79.56 167.028 78.234C168.56 77.418 170.091 76.602 171.686 75.888C173.217 75.225 175.131 74.715 176.279 73.695C176.981 73.032 177.428 72.267 177.874 71.502C178.959 69.615 180.554 67.269 179.916 65.127C179.852 64.872 179.725 64.617 179.725 64.311C179.725 63.852 179.98 63.444 180.044 62.985C180.044 62.526 179.597 61.965 179.023 62.169C178.831 62.22 178.64 62.424 178.512 62.577C177.874 63.189 177.045 63.597 176.216 64.005C172.834 65.688 169.772 67.779 166.965 70.023C162.754 73.389 160.84 74.715 155.289 76.5C151.653 77.673 152.354 77.265 148.463 77.52C144.571 77.775 140.424 77.01 137.553 74.919C136.085 73.848 135.001 72.471 133.98 71.094L129.259 64.974L120.773 73.848Z" fill="#FFCEA9"/>
<path d="M93.4032 180.234C95.8276 181.815 99.4004 180.387 99.5918 180.489C102.08 182.478 105.78 184.722 108.524 186.405C110.055 187.374 112.352 188.598 111.969 190.434C111.203 193.698 104.696 192.678 102.208 191.709C99.7832 190.74 97.7416 189.057 95.381 187.884C93.7222 187.068 92.0634 186.609 91.8082 184.977C91.6806 184.008 92.9566 180.183 93.4032 180.234Z" fill="#38226D"/>
<path d="M91.872 184.365C92.191 185.946 93.786 186.405 95.4448 187.221C97.8054 188.394 99.9108 190.077 102.335 191.097C104.632 192.015 110.31 192.933 111.905 190.587C111.012 193.749 104.632 192.729 102.208 191.76C99.7832 190.791 97.7416 189.108 95.381 187.935C93.7222 187.119 92.0634 186.66 91.8082 185.028C91.8082 184.875 91.8082 184.62 91.872 184.365Z" fill="#9C73FF"/>
<path d="M114.393 174.012C116.818 175.593 121.029 173.859 121.22 174.012C123.708 176.001 126.452 178.041 129.195 179.775C130.726 180.744 133.023 181.968 132.64 183.804C131.875 187.068 125.367 186.048 122.879 185.079C120.454 184.11 118.413 182.427 116.052 181.254C114.393 180.438 112.735 179.979 112.479 178.347C112.352 177.327 113.947 173.961 114.393 174.012Z" fill="#38226D"/>
<path d="M112.607 177.888C112.926 179.469 114.521 179.928 116.18 180.744C118.54 181.917 120.646 183.6 123.07 184.62C125.367 185.538 131.045 186.456 132.64 184.11C131.747 187.272 125.367 186.252 122.943 185.283C120.518 184.314 118.477 182.631 116.116 181.458C114.457 180.642 112.798 180.183 112.543 178.551C112.543 178.398 112.543 178.143 112.607 177.888Z" fill="#9C73FF"/>
<path d="M93.2756 108.885C93.4032 111.792 94.5516 124.491 95.062 131.223C95.5724 137.955 95.7 146.166 95.7 146.166C95.7 146.166 94.2326 151.062 93.3394 156.825C92.3824 162.588 93.3394 180.744 93.3394 180.744C93.3394 180.744 96.0828 182.376 99.528 180.744C99.528 180.744 103.42 166.209 105.206 159.681C106.993 153.153 107.312 149.379 108.269 145.299C109.417 140.403 111.841 117.504 111.841 117.504L112.798 117.555L115.414 143.412C115.414 143.412 114.393 145.554 113.755 149.277C113.054 153.51 114.521 174.675 114.521 174.675C114.521 174.675 117.52 176.256 121.22 174.471C121.22 174.471 127.664 146.421 127.664 142.137C127.664 139.332 127.09 102.051 127.09 102.051L93.2756 108.885Z" fill="#8C50FF"/>
<path d="M102.016 52.428C102.016 52.428 102.399 58.803 102.271 59.364C102.08 59.925 98.6348 61.812 97.614 62.475C96.5932 63.138 103.101 68.289 106.291 69.462C109.481 70.635 119.497 67.575 119.689 63.597C119.88 59.67 117.966 56.355 116.435 56.151C114.84 55.998 102.016 52.428 102.016 52.428Z" fill="#FFCEA9"/>
<path d="M101.123 60.435C101.123 60.435 106.929 67.32 114.968 67.983C117.52 65.994 117.775 58.854 114.202 56.559C114.202 56.559 117.456 54.468 119.625 54.876C119.625 54.876 123.134 56.304 124.601 59.976C126.069 63.597 127.6 67.983 127.472 74.715C127.345 81.498 127.472 102.153 127.472 102.153C127.472 102.153 126.324 106.539 119.051 109.752C111.778 113.016 106.355 113.322 101.378 112.404C97.295 111.639 93.9136 110.466 92.51 108.12C92.8928 103.377 95.5086 91.035 94.5516 85.068C93.5946 79.101 91.9996 74.664 91.553 69.819C91.1702 65.025 92.3186 65.076 95.381 63.393C99.4642 61.098 101.123 60.435 101.123 60.435Z" fill="#F4F4F4"/>
<path d="M105.972 114.036C104.696 113.424 103.739 112.557 101.825 111.843C100.166 111.18 98.9538 110.925 97.8054 109.905C96.5294 108.783 95.1896 104.652 93.9136 100.725C92.4462 96.033 92.6376 89.811 93.2118 87.159C94.3602 81.753 97.4226 74.256 98.3158 71.145C99.209 68.034 98.0606 66.708 96.338 65.484C94.2964 64.005 91.2978 64.464 89.3838 68.748C87.406 73.032 84.9816 80.937 84.2798 87.159C83.9608 90.168 83.897 95.013 85.811 101.031C87.087 105.213 89.001 108.324 91.4892 112.2C92.1272 113.271 92.3186 114.189 93.2756 116.28C94.2326 118.422 96.019 120.666 97.8692 121.89C99.7194 123.114 100.613 123.318 101.059 123.114C101.633 122.859 101.57 122.4 100.804 121.737C100.038 121.125 98.6348 120.156 97.614 118.473C97.614 118.473 99.209 119.901 100.23 120.717C101.251 121.533 102.399 122.145 103.292 122.502C104.377 122.961 106.036 122.298 105.27 121.635C104.504 120.972 103.739 120.666 102.208 119.442C100.804 118.371 100.102 117.351 100.102 117.351C100.102 117.351 101.825 118.575 103.484 119.391C105.142 120.207 106.099 120.258 106.674 120.258C107.248 120.258 108.077 119.646 106.993 118.932C106.036 118.32 104.504 117.81 102.909 116.382C101.761 115.362 101.123 114.495 101.506 114.495C101.825 114.495 102.463 115.158 103.866 115.566C105.206 115.974 106.865 115.77 107.056 115.158C107.312 114.495 107.248 114.648 105.972 114.036Z" fill="#FFCEA9"/>
<path d="M120.072 42.942C119.115 37.995 114.649 34.272 108.269 34.527C101.506 34.833 96.2742 39.474 96.657 44.88C96.8484 48.042 98.9538 50.745 102.016 52.428C102.016 52.428 102.59 54.213 102.973 54.57C105.206 56.661 112.033 57.987 114.011 57.783C116.499 57.477 117.902 56.661 119.115 54.468C121.22 50.541 120.582 45.39 120.072 42.942Z" fill="#FFCEA9"/>
<path d="M102.016 52.428L102.59 48.093C102.59 48.093 98.1882 38.964 108.588 40.698C115.478 41.871 117.201 42.381 119.306 38.658C121.411 34.986 114.011 31.671 105.27 32.589C96.5294 33.507 94.1688 39.678 94.424 42.432C94.6154 45.135 95.5724 50.643 102.016 52.428Z" fill="#3A2C6D"/>
<path d="M84.1522 77.214C84.1522 77.214 89.8304 81.753 96.5932 80.427C97.5502 79.917 99.847 69.309 99.847 69.309C99.847 69.309 99.847 63.444 94.2326 63.597C88.6182 63.75 84.1522 77.214 84.1522 77.214Z" fill="#EDEDED"/>
<path d="M127.153 68.442C127.153 68.442 130.152 68.34 131.364 66.963C131.109 64.617 127.345 55.59 119.753 54.927C119.753 54.927 123.07 56.661 124.538 59.517C125.814 62.22 127.153 68.442 127.153 68.442Z" fill="#EDEDED"/>
<path d="M170.027 77.061L171.622 74.358L173.536 74.97L172.451 77.775L170.027 77.061Z" fill="#666666"/>
<path id="pointer" d="M175.705 65.433L187.508 41.565L188.465 41.871L178.066 66.147L175.705 65.433Z" fill="#666666"/>
<path d="M27.9444 224.349L39.4284 232.713L50.2744 224.604" stroke="#323846" stroke-width="1.472" stroke-miterlimit="10"/>
<path d="M41.9166 213.078L63.0982 236.334L61.1842 237.456L39.4284 214.557L41.9166 213.078Z" fill="#E0E2E5"/>
<path d="M61.7584 234.906C61.8222 234.906 61.8222 234.906 61.7584 234.906C61.7584 234.957 61.7584 234.957 61.7584 234.957C61.7584 235.008 61.7584 235.008 61.7584 235.059C61.7584 235.11 61.7584 235.11 61.7584 235.161V235.212C61.7584 235.263 61.6946 235.365 61.6308 235.416C61.6308 235.416 61.6308 235.467 61.567 235.467C61.567 235.518 61.5032 235.518 61.5032 235.569C61.5032 235.569 61.5032 235.569 61.5032 235.62L61.4394 235.671C61.3756 235.722 61.3756 235.722 61.3118 235.722L61.1842 235.773C61.1204 235.773 61.1204 235.824 61.0566 235.824C61.0566 235.824 61.0566 235.824 60.9928 235.824C60.9928 235.824 60.9928 235.824 60.929 235.824C60.8652 235.824 60.8652 235.875 60.8014 235.875C60.8014 235.875 60.8014 235.875 60.7376 235.875C60.7376 235.875 60.7376 235.875 60.6738 235.875H60.61C60.5462 235.875 60.5462 235.875 60.4824 235.926C60.4824 235.926 60.4824 235.926 60.4186 235.926C60.3548 235.926 60.291 235.926 60.2272 235.977C60.0996 235.977 59.972 235.977 59.8444 235.926L61.0566 237.303C61.1842 237.456 61.3756 237.507 61.6946 237.507C61.7584 237.507 61.8222 237.507 61.886 237.507C61.9498 237.507 61.9498 237.507 62.0136 237.507H62.0774C62.1412 237.507 62.1412 237.456 62.205 237.456C62.205 237.456 62.205 237.456 62.2688 237.456C62.2688 237.456 62.2688 237.456 62.3326 237.456C62.3964 237.456 62.3964 237.405 62.4602 237.405L62.5878 237.354C62.6516 237.354 62.6516 237.303 62.7154 237.252L62.7792 237.201C62.7792 237.201 62.7792 237.201 62.7792 237.15C62.843 237.048 62.9068 236.997 62.9706 236.895C63.0344 236.793 63.0982 236.64 63.0982 236.538C63.0982 236.334 62.9068 236.232 62.7792 236.079C62.6516 235.926 62.524 235.773 62.3326 235.62C62.205 235.365 62.0136 235.11 61.7584 234.906C61.7584 234.855 61.7584 234.906 61.7584 234.906Z" fill="#323846"/>
<path d="M38.28 214.761L14.4188 240.261L12.5048 239.139L35.7918 213.282L38.28 214.761Z" fill="#E0E2E5"/>
<path d="M15.6948 238.833C15.631 238.833 15.631 238.833 15.631 238.833C15.5672 238.833 15.5672 238.833 15.5034 238.833C15.4396 238.833 15.4396 238.833 15.3758 238.833H15.312C15.2482 238.833 15.1206 238.833 15.0568 238.782H14.993C14.9292 238.782 14.9292 238.782 14.8654 238.731C14.8654 238.731 14.8654 238.731 14.8016 238.731C14.7378 238.731 14.7378 238.731 14.674 238.68C14.674 238.68 14.674 238.68 14.6102 238.68C14.5464 238.68 14.5464 238.629 14.4826 238.629L14.355 238.578C14.2912 238.578 14.2912 238.527 14.2274 238.527C14.2274 238.527 14.2274 238.527 14.1636 238.527C14.1636 238.527 14.1636 238.527 14.0998 238.527C14.036 238.527 14.036 238.476 14.036 238.476C14.036 238.476 14.036 238.425 13.9722 238.425C13.9722 238.425 13.9084 238.374 13.9084 238.323C13.9084 238.323 13.9084 238.323 13.9084 238.272C13.8446 238.221 13.8446 238.17 13.8446 238.119C13.7808 238.017 13.7808 237.915 13.7808 237.813L12.5048 239.139C12.3772 239.292 12.3772 239.445 12.441 239.7C12.441 239.751 12.5048 239.802 12.5048 239.853C12.5048 239.853 12.5686 239.904 12.5686 239.955C12.5686 239.955 12.5686 239.955 12.6324 240.006L12.6962 240.057C12.6962 240.057 12.6962 240.057 12.76 240.057C12.76 240.057 12.76 240.057 12.8238 240.057L12.8876 240.108L13.0152 240.159C13.079 240.159 13.079 240.21 13.1428 240.21C13.2066 240.21 13.2066 240.261 13.2066 240.261C13.2066 240.261 13.2066 240.261 13.2704 240.261C13.398 240.312 13.5256 240.312 13.6532 240.363C13.8446 240.363 13.9722 240.363 14.1636 240.363C14.355 240.312 14.4826 240.108 14.6102 240.006C14.7378 239.853 14.8654 239.7 15.0568 239.547C15.312 239.292 15.5034 239.088 15.6948 238.833C15.7586 238.833 15.7586 238.833 15.6948 238.833Z" fill="#323846"/>
<path d="M34.1968 215.373C34.1968 215.373 34.5158 215.985 35.1538 216.393C35.7918 216.801 36.5574 216.903 36.5574 216.903L37.3868 216.036C37.3868 216.036 37.7696 215.628 37.961 215.424C38.2162 215.169 38.4714 214.914 38.7266 214.608C38.918 214.404 39.0456 214.098 38.918 213.792C38.918 213.741 38.8542 213.639 38.8542 213.588C38.8542 213.588 38.8542 213.588 38.8542 213.537C38.8542 213.486 38.7904 213.486 38.7904 213.435L38.7266 213.384C38.7266 213.384 38.7266 213.384 38.7266 213.333C38.7266 213.333 38.7266 213.333 38.7266 213.282C38.7266 213.231 38.6628 213.231 38.599 213.18C38.599 213.18 38.599 213.18 38.5352 213.129C38.5352 213.129 38.5352 213.129 38.4714 213.078C38.4076 213.027 38.4076 213.027 38.3438 213.027L38.2162 212.976C38.1524 212.925 38.0886 212.925 38.0248 212.874C38.0248 212.874 38.0248 212.874 37.961 212.874C37.8972 212.874 37.8972 212.823 37.8334 212.823H37.7696C37.5782 212.823 37.4506 212.772 37.2592 212.772C37.004 212.772 36.8126 212.772 36.5574 212.874C36.2384 213.027 36.047 213.282 35.8556 213.486C35.6004 213.741 35.409 213.996 35.1538 214.251L34.5796 214.863C34.5158 214.914 34.1968 215.373 34.1968 215.373Z" fill="#3A4151"/>
<path d="M41.6614 216.801C41.6614 216.801 42.4908 216.75 43.1288 216.342C43.7668 215.985 44.1496 215.373 44.1496 215.373L43.3202 214.506C43.3202 214.506 42.9374 214.098 42.746 213.894C42.4908 213.639 42.2356 213.333 41.9804 213.078C41.789 212.874 41.47 212.721 41.0234 212.67C40.9596 212.67 40.832 212.67 40.7044 212.67C40.7044 212.67 40.7044 212.67 40.6406 212.67C40.5768 212.67 40.513 212.67 40.513 212.67H40.4492C40.4492 212.67 40.4492 212.67 40.3854 212.67C40.3854 212.67 40.3854 212.67 40.3216 212.67C40.2578 212.67 40.2578 212.721 40.194 212.721C40.194 212.721 40.194 212.721 40.1302 212.721C40.1302 212.721 40.1302 212.721 40.0664 212.721H40.0026C39.9388 212.721 39.9388 212.772 39.875 212.772L39.7474 212.874C39.6836 212.925 39.6836 212.925 39.6198 212.976C39.6198 212.976 39.6198 212.976 39.6198 213.027C39.556 213.078 39.556 213.078 39.556 213.129V213.18C39.4922 213.333 39.3646 213.435 39.3646 213.537C39.3008 213.741 39.237 213.894 39.3008 214.098C39.3646 214.404 39.6198 214.608 39.875 214.812C40.1302 215.067 40.3216 215.271 40.5768 215.526C40.7682 215.73 40.9596 215.934 41.151 216.138C41.2148 216.393 41.6614 216.801 41.6614 216.801Z" fill="#3A4151"/>
<path d="M41.9166 230.673V232.203C41.9166 232.254 41.9166 232.254 41.8528 232.305V230.775C41.9166 230.724 41.9166 230.673 41.9166 230.673Z" fill="#1F232B"/>
<path d="M41.8528 230.775V232.305C41.8528 232.356 41.789 232.356 41.789 232.407V230.877C41.8528 230.826 41.8528 230.775 41.8528 230.775Z" fill="#20242D"/>
<path d="M41.789 230.877V232.407C41.789 232.458 41.7252 232.509 41.6614 232.509V230.979C41.7252 230.928 41.789 230.928 41.789 230.877Z" fill="#21252E"/>
<path d="M41.7252 230.979V232.509C41.6614 232.56 41.5976 232.611 41.5976 232.662V231.132C41.5976 231.081 41.6614 231.03 41.7252 230.979Z" fill="#222630"/>
<path d="M41.5338 231.132V232.662C41.47 232.713 41.3424 232.815 41.2148 232.866V231.336C41.3424 231.234 41.47 231.183 41.5338 231.132Z" fill="#232731"/>
<path d="M41.2148 231.336V232.866C41.0234 232.968 40.8958 233.019 40.7044 233.07V231.54C40.832 231.489 41.0234 231.387 41.2148 231.336Z" fill="#242832"/>
<path d="M40.6406 231.54V233.07C40.513 233.121 40.3216 233.121 40.194 233.172V231.642C40.3854 231.591 40.513 231.54 40.6406 231.54Z" fill="#232731"/>
<path d="M40.194 231.591V233.121C40.0664 233.121 40.0026 233.172 39.875 233.172V231.642C40.0026 231.642 40.0664 231.642 40.194 231.591Z" fill="#222630"/>
<path d="M39.875 231.642V233.172C39.8112 233.172 39.6836 233.172 39.6198 233.172V231.642C39.6836 231.642 39.8112 231.642 39.875 231.642Z" fill="#21252E"/>
<path d="M39.6198 231.642V233.172C39.556 233.172 39.4284 233.172 39.3646 233.172V231.642C39.4284 231.642 39.4922 231.642 39.6198 231.642Z" fill="#20242D"/>
<path d="M39.3646 231.642V233.172C39.3008 233.172 39.1732 233.172 39.1094 233.172V231.642C39.1732 231.642 39.3008 231.642 39.3646 231.642Z" fill="#1F232B"/>
<path d="M39.1094 231.642V233.172C39.0456 233.172 38.918 233.172 38.8542 233.172V231.642C38.918 231.642 39.0456 231.642 39.1094 231.642Z" fill="#1E222A"/>
<path d="M38.8542 231.642V233.172C38.7904 233.172 38.6628 233.172 38.599 233.121V231.591C38.7266 231.591 38.7904 231.642 38.8542 231.642Z" fill="#1D2029"/>
<path d="M38.599 231.591V233.121C38.5352 233.121 38.4076 233.07 38.3438 233.07V231.54C38.4714 231.54 38.5352 231.591 38.599 231.591Z" fill="#1C1F27"/>
<path d="M38.3438 231.54V233.07C38.2162 233.07 38.1524 233.019 38.0248 232.968V231.438C38.1524 231.489 38.28 231.54 38.3438 231.54Z" fill="#1B1E26"/>
<path d="M38.0878 231.438V232.968C37.9602 232.917 37.8326 232.866 37.705 232.815C37.1946 232.611 37.0032 232.305 37.0032 231.999V230.469C37.0032 230.775 37.2584 231.081 37.705 231.285C37.8326 231.387 37.9602 231.438 38.0878 231.438Z" fill="#1A1D24"/>
<path d="M41.2148 229.704C42.1718 230.163 42.1718 230.877 41.2148 231.336C40.2578 231.795 38.6628 231.795 37.7058 231.336C36.7488 230.877 36.7488 230.163 37.7058 229.704C38.6628 229.245 40.2578 229.245 41.2148 229.704Z" fill="#2B303C"/>
<path d="M40.8958 143.667L40.832 211.344V214.863V230.622V230.673C40.832 230.673 40.832 230.673 40.832 230.724C40.832 230.775 40.832 230.775 40.7682 230.775C40.7682 230.775 40.7682 230.775 40.7682 230.826C40.7682 230.877 40.7044 230.877 40.7044 230.877C40.7044 230.877 40.6406 230.928 40.5768 230.928C40.5768 230.928 40.513 230.928 40.513 230.979C40.4492 231.03 40.3216 231.03 40.2578 231.081H40.194C40.1302 231.081 40.1302 231.081 40.0664 231.081C40.0664 231.081 40.0664 231.081 40.0026 231.081C39.9388 231.081 39.9388 231.081 39.875 231.081C39.875 231.081 39.875 231.081 39.8112 231.081C39.7474 231.081 39.6836 231.081 39.6836 231.081H39.556C39.4922 231.081 39.4284 231.081 39.4284 231.081C39.4284 231.081 39.4284 231.081 39.3646 231.081C39.3646 231.081 39.3646 231.081 39.3008 231.081H39.1732C39.1732 231.081 39.1732 231.081 39.1094 231.081C39.1094 231.081 39.1094 231.081 39.0456 231.081H38.9818C38.918 231.081 38.918 231.081 38.8542 231.03C38.8542 231.03 38.8542 231.03 38.7904 231.03C38.7266 231.03 38.6628 230.979 38.599 230.979C38.3438 230.826 38.2162 230.673 38.2162 230.52V214.761V211.293L38.28 143.565C38.28 143.412 38.4076 143.259 38.6628 143.106C39.1732 142.851 40.0664 142.851 40.6406 143.106C40.9596 143.259 41.0872 143.463 41.0234 143.616C40.8958 143.718 40.8958 143.667 40.8958 143.667Z" fill="#E0E2E5"/>
<path d="M40.832 211.344V214.863V214.914V214.965V215.016C40.832 215.016 40.832 215.016 40.832 215.067L40.7682 215.118L40.7044 215.169L40.6406 215.22C40.5768 215.271 40.3854 215.322 40.3854 215.322C40.3854 215.322 40.3854 215.322 40.3216 215.322H40.2578C40.194 215.322 40.194 215.322 40.1302 215.373C40.1302 215.373 40.1302 215.373 40.0664 215.373C40.0026 215.373 40.0026 215.373 39.9388 215.373C39.9388 215.373 39.9388 215.373 39.875 215.373C39.8112 215.373 39.7474 215.373 39.7474 215.373H39.6198C39.556 215.373 39.4922 215.373 39.4922 215.373C39.4922 215.373 39.4922 215.373 39.4284 215.373H39.3646C39.3008 215.373 39.3008 215.373 39.237 215.373C39.237 215.373 39.237 215.373 39.1732 215.373C39.1732 215.373 39.1732 215.373 39.1094 215.373H39.0456C38.9818 215.373 38.9818 215.373 38.918 215.322C38.918 215.322 38.918 215.322 38.8542 215.322C38.7904 215.322 38.7266 215.271 38.6628 215.271C38.4076 215.169 38.28 214.965 38.28 214.812V211.344C38.3438 211.395 38.4714 211.497 38.6628 211.548C38.7266 211.599 38.7904 211.599 38.8542 211.599C38.8542 211.599 38.8542 211.599 38.918 211.599C38.9818 211.599 38.9818 211.599 39.0456 211.65H39.1094C39.1094 211.65 39.1094 211.65 39.1732 211.65C39.237 211.65 39.1732 211.65 39.237 211.65C39.3008 211.65 39.3008 211.65 39.3646 211.65H39.4284C39.4284 211.65 39.4284 211.65 39.4922 211.65C39.4922 211.65 39.4922 211.65 39.556 211.65C39.6198 211.65 39.6836 211.65 39.6836 211.65H39.556C39.6198 211.65 39.6836 211.65 39.7474 211.65H39.8112C39.875 211.65 39.875 211.65 39.9388 211.65C39.9388 211.65 39.9388 211.65 40.0026 211.65C40.0664 211.65 40.0664 211.65 40.1302 211.599H40.194C40.3216 211.548 40.3854 211.548 40.513 211.497C40.513 211.497 40.5768 211.497 40.5768 211.446L40.6406 211.395L40.7044 211.344C40.7682 211.395 40.7682 211.395 40.832 211.344C40.832 211.395 40.832 211.395 40.832 211.344C40.832 211.395 40.832 211.395 40.832 211.344Z" fill="#252935"/>
<path d="M41.2148 214.506L48.1052 254.235L45.7446 254.541L38.1524 214.863L41.2148 214.506Z" fill="#E0E2E5"/>
<path d="M47.7862 252.501C47.7862 252.501 47.7862 252.552 47.7862 252.501C47.7862 252.552 47.7862 252.552 47.7862 252.552C47.7862 252.603 47.7224 252.603 47.7224 252.654L47.6586 252.705L47.5948 252.756C47.531 252.807 47.4672 252.858 47.3396 252.858H47.2758C47.212 252.858 47.212 252.909 47.1482 252.909C47.1482 252.909 47.1482 252.909 47.0844 252.909C47.0206 252.909 47.0206 252.909 46.9568 252.96C46.9568 252.96 46.9568 252.96 46.893 252.96C46.8292 252.96 46.8292 252.96 46.7654 252.96H46.6378C46.574 252.96 46.574 252.96 46.5102 252.96C46.5102 252.96 46.5102 252.96 46.4464 252.96C46.4464 252.96 46.4464 252.96 46.3826 252.96C46.3826 252.96 46.3826 252.96 46.3188 252.96C46.255 252.96 46.255 252.96 46.1912 252.96C46.1912 252.96 46.1912 252.96 46.1274 252.96C46.1274 252.96 46.1274 252.96 46.0636 252.96H45.9998C45.936 252.96 45.936 252.96 45.8722 252.96C45.8722 252.96 45.8722 252.96 45.8084 252.96C45.7446 252.96 45.6808 252.909 45.617 252.909C45.4894 252.858 45.3618 252.807 45.298 252.705L45.5532 254.388C45.5532 254.541 45.7446 254.694 45.9998 254.796C46.0636 254.796 46.1274 254.847 46.1912 254.847C46.255 254.847 46.255 254.847 46.3188 254.847H46.3826C46.3826 254.847 46.3826 254.847 46.4464 254.847C46.4464 254.847 46.4464 254.847 46.5102 254.847C46.574 254.847 46.574 254.847 46.6378 254.847C46.6378 254.847 46.6378 254.847 46.7016 254.847C46.7016 254.847 46.7016 254.847 46.7654 254.847C46.8292 254.847 46.8292 254.847 46.893 254.847H47.0206C47.0844 254.847 47.0844 254.847 47.1482 254.847C47.212 254.847 47.212 254.847 47.2758 254.847C47.2758 254.847 47.2758 254.847 47.3396 254.847C47.4672 254.796 47.5948 254.745 47.6586 254.694C47.7862 254.592 47.9138 254.541 47.9776 254.388C48.1052 254.235 48.0414 254.031 47.9776 253.878C47.9138 253.674 47.9138 253.521 47.85 253.317C47.9138 253.062 47.85 252.756 47.7862 252.501C47.85 252.501 47.7862 252.501 47.7862 252.501Z" fill="#323846"/>
<path d="M38.5352 216.699V216.648C38.5352 216.648 38.5352 216.648 38.5352 216.597C38.5352 216.597 38.5352 216.597 38.5352 216.546C38.5352 216.495 38.599 216.444 38.599 216.444C38.599 216.393 38.6628 216.393 38.6628 216.342C38.6628 216.291 38.7266 216.291 38.7266 216.291C38.7904 216.24 38.918 216.138 38.9818 216.087C38.9818 216.087 38.9818 216.087 39.0456 216.087C39.0456 216.087 39.1094 216.087 39.1094 216.036C39.1732 216.036 39.1732 215.985 39.237 215.985H39.3008C39.3646 215.985 39.3646 215.934 39.4284 215.934C39.4284 215.934 39.4284 215.934 39.4922 215.934C39.556 215.934 39.6198 215.934 39.6836 215.883H39.875C39.9388 215.883 40.0026 215.883 40.0664 215.883H40.1302C40.1302 215.883 40.1302 215.883 40.194 215.883H40.2578C40.3216 215.883 40.3854 215.883 40.4492 215.883C40.4492 215.883 40.4492 215.883 40.513 215.883C40.513 215.883 40.513 215.883 40.5768 215.883H40.6406C40.7044 215.883 40.7682 215.883 40.7682 215.934H40.832C40.8958 215.985 41.0234 215.985 41.0872 216.036C41.2786 216.138 41.4062 216.24 41.5338 216.342L41.0872 213.69C41.0234 213.435 40.832 213.18 40.513 212.976C40.4492 212.925 40.3854 212.925 40.2578 212.874C40.2578 212.874 40.2578 212.874 40.194 212.874C40.1302 212.874 40.1302 212.823 40.0664 212.823H40.0026C40.0026 212.823 40.0026 212.823 39.9388 212.823C39.9388 212.823 39.9388 212.823 39.875 212.823C39.8112 212.823 39.7474 212.823 39.7474 212.823H39.6836C39.6836 212.823 39.6836 212.823 39.6198 212.823H39.556C39.4922 212.823 39.4284 212.823 39.4284 212.823H39.3008C39.237 212.823 39.1732 212.823 39.1094 212.874C39.1094 212.874 39.1094 212.874 39.0456 212.874C38.9818 212.874 38.9818 212.874 38.918 212.925H38.8542C38.7266 213.027 38.5352 213.078 38.4076 213.18C38.2162 213.333 38.0886 213.435 38.0248 213.639C37.8972 213.894 38.0248 214.2 38.0886 214.506C38.1524 214.812 38.2162 215.118 38.28 215.424C38.3438 215.883 38.4714 216.393 38.5352 216.852C38.5352 216.75 38.5352 216.75 38.5352 216.699Z" fill="#3A4151"/>
<path d="M58.3132 139.74C58.3132 139.689 58.3132 139.638 58.3132 139.536C58.3132 139.485 58.3132 139.485 58.3132 139.434V139.383V139.332C58.3132 139.281 58.3132 139.23 58.3132 139.128C58.3132 139.077 58.3132 139.026 58.2494 138.924C58.2494 138.873 58.2494 138.822 58.1856 138.771C58.1856 138.72 58.1856 138.618 58.1218 138.567V138.516V138.465C58.1218 138.414 58.1218 138.414 58.1218 138.363C58.1218 138.312 58.058 138.21 58.058 138.159C58.058 138.108 57.9942 138.057 57.9942 138.006C57.9942 138.006 57.9942 138.006 57.9942 137.955C57.9942 137.904 57.9304 137.802 57.9304 137.751C57.9304 137.7 57.8666 137.649 57.8666 137.547V137.496C57.8666 137.496 57.8666 137.496 57.8666 137.445C57.8666 137.394 57.8028 137.343 57.8028 137.343C57.8028 137.292 57.739 137.241 57.739 137.139C57.739 137.088 57.6752 137.037 57.6752 136.986C57.6114 136.935 57.6114 136.884 57.5476 136.782C57.4838 136.731 57.4838 136.629 57.42 136.578C57.42 136.578 57.42 136.578 57.42 136.527V136.476C57.3562 136.425 57.3562 136.374 57.2924 136.323C57.2286 136.272 57.2286 136.17 57.1648 136.119C57.1648 136.068 57.101 136.068 57.101 136.017C57.101 136.017 57.101 136.017 57.101 135.966C57.0372 135.915 57.0372 135.864 56.9734 135.813C56.9096 135.711 56.8458 135.66 56.782 135.558V135.507C56.7182 135.405 56.5906 135.303 56.463 135.15C56.3992 135.099 56.3354 134.997 56.2716 134.946C56.2078 134.895 56.144 134.844 56.0802 134.793C56.0164 134.742 55.9526 134.691 55.8888 134.64C55.825 134.589 55.7612 134.538 55.6974 134.487C55.6974 134.487 55.6974 134.487 55.6974 134.436C55.6336 134.385 55.6336 134.385 55.5698 134.334C55.506 134.283 55.4422 134.232 55.3784 134.181L55.3146 134.13C55.3146 134.13 55.3146 134.13 55.2508 134.079C55.187 134.079 55.187 134.028 55.1232 134.028C55.0594 133.977 54.9956 133.926 54.9318 133.875L54.868 133.824C54.868 133.824 54.868 133.824 54.8042 133.773L54.7404 133.722C54.6766 133.671 54.6128 133.62 54.549 133.62C54.4852 133.569 54.4214 133.569 54.4214 133.518C54.3576 133.467 54.2938 133.467 54.23 133.416C54.1662 133.365 54.1024 133.365 54.0386 133.314C54.0386 133.314 54.0386 133.314 53.9748 133.314C53.911 133.314 53.8472 133.263 53.8472 133.263C53.7834 133.212 53.7196 133.212 53.6558 133.161C53.592 133.161 53.592 133.11 53.5282 133.11C53.5282 133.11 53.5282 133.11 53.4644 133.11C53.4006 133.11 53.3368 133.059 53.273 133.059C53.2092 133.059 53.1454 133.008 53.0816 133.008C53.0816 133.008 53.0816 133.008 53.0178 133.008C52.954 133.008 52.954 133.008 52.8902 132.957C52.8264 132.957 52.7626 132.906 52.6988 132.906H52.635C52.635 132.906 52.635 132.906 52.5712 132.906H52.5074C52.4436 132.906 52.3798 132.906 52.316 132.855C52.2522 132.855 52.2522 132.855 52.1884 132.855C52.1884 132.855 52.1884 132.855 52.1246 132.855C52.1246 132.855 52.1246 132.855 52.0608 132.855C51.997 132.855 51.9332 132.855 51.8694 132.855H51.8056H51.7418H51.678C51.6142 132.855 51.4866 132.855 51.4228 132.906H51.359C51.2952 132.906 51.1676 132.957 51.1038 132.957C50.9762 133.008 50.8486 133.059 50.721 133.11L46.893 134.895C47.0206 134.844 47.1482 134.793 47.2758 134.742C47.3396 134.691 47.4672 134.691 47.531 134.691H47.5948C47.7224 134.691 47.85 134.64 47.9138 134.64H47.9776C48.1052 134.64 48.2328 134.64 48.3604 134.64C48.3604 134.64 48.3604 134.64 48.4242 134.64C48.5518 134.64 48.6794 134.691 48.807 134.691C48.807 134.691 48.807 134.691 48.8708 134.691C48.9984 134.691 49.126 134.742 49.2536 134.793C49.3812 134.844 49.5726 134.895 49.7002 134.946C49.8278 134.997 50.0192 135.048 50.1468 135.15C50.2744 135.201 50.4658 135.303 50.5934 135.405C50.721 135.507 50.8486 135.558 51.04 135.66C51.04 135.66 51.04 135.66 51.1038 135.711C51.2314 135.813 51.359 135.915 51.4866 135.966C51.4866 135.966 51.4866 135.966 51.5504 136.017C51.678 136.119 51.8056 136.221 51.9332 136.323C51.9332 136.323 51.9332 136.323 51.997 136.374C52.1246 136.476 52.2522 136.629 52.3798 136.731C52.5074 136.833 52.635 136.986 52.7626 137.139C52.8902 137.241 52.954 137.394 53.0816 137.496C53.1454 137.598 53.2092 137.649 53.273 137.751C53.3368 137.802 53.4006 137.904 53.4006 137.955C53.4006 138.006 53.4644 138.006 53.4644 138.057C53.5282 138.159 53.6558 138.312 53.7196 138.414C53.7196 138.414 53.7196 138.414 53.7196 138.465C53.7834 138.618 53.911 138.771 53.9748 138.873C54.0386 139.026 54.1024 139.179 54.1662 139.281C54.1662 139.281 54.1662 139.281 54.1662 139.332C54.23 139.485 54.2938 139.638 54.3576 139.791C54.3576 139.791 54.3576 139.791 54.3576 139.842C54.4214 139.995 54.4852 140.148 54.4852 140.25V140.301C54.549 140.454 54.549 140.607 54.6128 140.76C54.6128 140.913 54.6766 141.066 54.6766 141.219C54.6766 141.219 54.6766 141.219 54.6766 141.27C54.6766 141.423 54.6766 141.576 54.6766 141.678C54.6766 141.78 54.6766 141.933 54.6766 142.086C54.6766 142.086 54.6766 142.086 54.6766 142.137C54.6766 142.239 54.6128 142.392 54.6128 142.494V142.545C54.6128 142.647 54.549 142.749 54.4852 142.851V142.902C54.4214 143.004 54.4214 143.106 54.3576 143.157C54.3576 143.157 54.3576 143.157 54.3576 143.208C54.2938 143.31 54.23 143.412 54.1662 143.463C54.1662 143.463 54.1662 143.463 54.1662 143.514C54.1024 143.565 54.0386 143.667 53.9748 143.718L53.911 143.769C53.8472 143.82 53.7834 143.871 53.7196 143.922L53.6558 143.973C53.592 144.024 53.4644 144.075 53.4006 144.126L57.2286 142.341C57.2924 142.29 57.42 142.239 57.4838 142.188L57.5476 142.137C57.6114 142.086 57.6752 142.035 57.739 141.984L57.8028 141.933C57.8666 141.882 57.9304 141.831 57.9942 141.729C57.9942 141.729 57.9942 141.729 57.9942 141.678C58.058 141.576 58.1218 141.525 58.1856 141.423C58.1856 141.423 58.1856 141.423 58.1856 141.372C58.2494 141.321 58.2494 141.27 58.2494 141.219C58.2494 141.168 58.2494 141.168 58.3132 141.117V141.066V141.015C58.3132 140.964 58.377 140.913 58.377 140.811V140.76V140.709V140.658C58.377 140.607 58.377 140.556 58.4408 140.505C58.4408 140.454 58.4408 140.454 58.4408 140.403C58.4408 140.403 58.4408 140.403 58.4408 140.352V140.301C58.4408 140.25 58.4408 140.199 58.4408 140.148C58.4408 140.097 58.4408 140.046 58.4408 139.944C58.3132 139.842 58.3132 139.791 58.3132 139.74Z" fill="#3A4151"/>
<path d="M49.8278 135.201C52.3798 136.374 54.4852 139.281 54.4852 141.627C54.4852 143.973 52.3798 144.942 49.8278 143.769C47.2758 142.596 45.1704 139.689 45.1704 137.343C45.1704 134.997 47.2758 134.028 49.8278 135.201Z" fill="#2B303F"/>
<path d="M52.5074 141.423C52.5074 141.372 52.5074 141.321 52.5074 141.27V141.219C52.5074 141.219 52.5074 141.219 52.5074 141.168V141.117C52.5074 141.066 52.5074 141.015 52.5074 140.964C52.5074 140.913 52.5074 140.862 52.5074 140.811C52.5074 140.76 52.5074 140.709 52.5074 140.658C52.5074 140.607 52.5074 140.556 52.4436 140.505V140.454C52.4436 140.454 52.4436 140.454 52.4436 140.403V140.352C52.4436 140.301 52.3798 140.25 52.3798 140.199C52.3798 140.148 52.3798 140.148 52.316 140.097C52.316 140.046 52.2522 139.995 52.2522 139.944C52.2522 139.893 52.1884 139.842 52.1884 139.791C52.1884 139.791 52.1884 139.791 52.1884 139.74C52.1884 139.689 52.1884 139.689 52.1246 139.638C52.1246 139.587 52.0608 139.536 52.0608 139.485C52.0608 139.434 51.997 139.434 51.997 139.383C51.997 139.332 51.9332 139.281 51.9332 139.23C51.9332 139.179 51.8694 139.128 51.8694 139.077C51.8694 139.077 51.8694 139.077 51.8694 139.026C51.8694 138.975 51.8056 138.924 51.8056 138.924C51.7418 138.873 51.7418 138.822 51.678 138.771L51.6142 138.72C51.6142 138.72 51.6142 138.72 51.6142 138.669C51.5504 138.618 51.5504 138.567 51.4866 138.567C51.4228 138.516 51.4228 138.465 51.359 138.363C51.359 138.363 51.359 138.363 51.359 138.312C51.2952 138.21 51.2314 138.159 51.1038 138.057C51.04 138.006 50.9762 137.955 50.9124 137.904C50.8486 137.853 50.8486 137.802 50.7848 137.751C50.721 137.7 50.721 137.649 50.6572 137.598C50.5934 137.547 50.5934 137.496 50.5296 137.496C50.4658 137.445 50.4658 137.445 50.402 137.394C50.3382 137.343 50.2744 137.292 50.2744 137.292C50.2744 137.292 50.2106 137.292 50.2106 137.241C50.2106 137.241 50.2106 137.241 50.1468 137.19L50.083 137.139C50.0192 137.088 49.9554 137.088 49.8916 137.037L49.8278 136.986C49.8278 136.986 49.8278 136.986 49.764 136.986C49.764 136.986 49.7002 136.986 49.7002 136.935C49.6364 136.884 49.5726 136.884 49.5088 136.833C49.445 136.833 49.445 136.782 49.3812 136.782C49.3174 136.731 49.2536 136.731 49.2536 136.68C49.1898 136.629 49.126 136.629 49.126 136.629C49.126 136.629 49.126 136.629 49.0622 136.629C48.9984 136.629 48.9984 136.578 48.9346 136.578C48.8708 136.578 48.807 136.527 48.807 136.527C48.7432 136.527 48.7432 136.527 48.6794 136.476C48.6156 136.476 48.5518 136.425 48.5518 136.425C48.488 136.425 48.4242 136.374 48.4242 136.374C48.3604 136.374 48.3604 136.374 48.2966 136.323C48.2328 136.323 48.169 136.323 48.169 136.272H48.1052C48.1052 136.272 48.1052 136.272 48.0414 136.272C47.9776 136.272 47.9138 136.272 47.9138 136.272C47.85 136.272 47.85 136.272 47.7862 136.272C47.7862 136.272 47.7862 136.272 47.7224 136.272C47.6586 136.272 47.5948 136.272 47.531 136.272H47.4672H47.4034H47.3396C47.2758 136.272 47.212 136.272 47.1482 136.272C47.1482 136.272 47.1482 136.272 47.0844 136.272C47.0206 136.272 46.9568 136.323 46.893 136.323C46.7654 136.374 46.7016 136.374 46.6378 136.425L33.3036 142.596C33.3674 142.545 33.495 142.545 33.5588 142.494C33.6226 142.494 33.6864 142.443 33.7502 142.443C33.7502 142.443 33.7502 142.443 33.814 142.443C33.8778 142.443 34.0054 142.443 34.0692 142.392H34.133C34.1968 142.392 34.3244 142.392 34.3882 142.392C34.3882 142.392 34.3882 142.392 34.452 142.392C34.5796 142.392 34.6434 142.392 34.771 142.443C34.8986 142.443 34.9624 142.494 35.09 142.494C35.2176 142.545 35.3452 142.545 35.409 142.596C35.5366 142.647 35.6642 142.698 35.7918 142.749C35.9194 142.8 36.047 142.851 36.1746 142.953C36.3022 143.004 36.366 143.106 36.4936 143.157C36.4936 143.157 36.4936 143.157 36.5574 143.157C36.685 143.208 36.7488 143.31 36.8764 143.361C36.8764 143.361 36.8764 143.361 36.9402 143.412C37.0678 143.514 37.1316 143.565 37.2592 143.667C37.3868 143.769 37.4506 143.871 37.5782 143.922C37.7058 144.024 37.7696 144.126 37.8972 144.228C37.961 144.33 38.0886 144.432 38.1524 144.534C38.2162 144.585 38.28 144.636 38.28 144.738C38.3438 144.789 38.3438 144.84 38.4076 144.891L38.4714 144.942C38.5352 145.044 38.599 145.095 38.6628 145.197C38.6628 145.197 38.6628 145.197 38.6628 145.248C38.7266 145.35 38.7904 145.452 38.8542 145.605C38.918 145.707 38.9818 145.809 39.0456 145.962C39.1094 146.064 39.1732 146.217 39.1732 146.319C39.237 146.421 39.237 146.523 39.3008 146.676C39.3008 146.676 39.3008 146.676 39.3008 146.727C39.3646 146.829 39.3646 146.931 39.3646 147.084C39.3646 147.186 39.4284 147.288 39.4284 147.441C39.4284 147.441 39.4284 147.441 39.4284 147.492C39.4284 147.594 39.4284 147.696 39.4284 147.849C39.4284 147.951 39.4284 148.053 39.4284 148.155C39.4284 148.155 39.4284 148.155 39.4284 148.206C39.4284 148.308 39.4284 148.41 39.3646 148.461C39.3646 148.461 39.3646 148.461 39.3646 148.512C39.3646 148.614 39.3008 148.665 39.3008 148.767V148.818C39.3008 148.869 39.237 148.971 39.1732 149.022C39.1094 149.073 39.1094 149.175 39.0456 149.226C39.0456 149.226 39.0456 149.226 39.0456 149.277C38.9818 149.328 38.9818 149.379 38.918 149.43L38.8542 149.481C38.7904 149.532 38.7904 149.532 38.7266 149.583L38.6628 149.634C38.599 149.685 38.5352 149.736 38.4714 149.736L51.8056 143.565C51.8694 143.514 51.9332 143.514 51.997 143.463L52.0608 143.412C52.1246 143.361 52.1246 143.361 52.1884 143.31L52.2522 143.259C52.316 143.208 52.3798 143.157 52.3798 143.106C52.3798 143.106 52.3798 143.106 52.3798 143.055C52.4436 143.004 52.4436 142.902 52.5074 142.851C52.5074 142.8 52.5712 142.749 52.5712 142.698V142.647V142.596C52.5712 142.596 52.5712 142.596 52.5712 142.545C52.5712 142.494 52.635 142.443 52.635 142.392V142.341C52.635 142.341 52.635 142.341 52.635 142.29V142.239C52.635 142.188 52.635 142.137 52.635 142.086C52.635 142.035 52.635 142.035 52.635 141.984C52.635 141.984 52.635 141.984 52.635 141.933C52.635 141.933 52.635 141.933 52.635 141.882C52.635 141.831 52.635 141.78 52.635 141.729C52.635 141.678 52.635 141.627 52.635 141.576C52.5074 141.525 52.5074 141.474 52.5074 141.423Z" fill="#3A4151"/>
<path d="M35.5366 142.749C37.5144 143.667 39.1732 145.911 39.1732 147.747C39.1732 149.583 37.5144 150.348 35.5366 149.379C33.5588 148.461 31.9 146.217 31.9 144.381C31.9 142.545 33.5588 141.831 35.5366 142.749Z" fill="#2B303F"/>
<path d="M53.7196 141.423C53.7196 141.474 53.7196 141.474 53.6558 141.474L53.592 141.525C53.592 141.525 53.5282 141.525 53.5282 141.576C53.5282 141.576 53.4644 141.576 53.4644 141.627L48.8708 143.769L48.807 157.896L53.4006 155.754C53.4006 155.754 53.4006 155.754 53.4644 155.703C53.4644 155.703 53.5282 155.703 53.5282 155.652L53.592 155.601V155.55V155.499L53.6558 141.372C53.7834 141.372 53.7834 141.423 53.7196 141.423Z" fill="#252935"/>
<path d="M48.7432 143.82H48.6794H48.6156C48.5518 143.82 48.5518 143.82 48.488 143.82C48.4242 143.82 48.3604 143.82 48.3604 143.82C48.2966 143.82 48.2328 143.82 48.2328 143.82C48.169 143.82 48.169 143.82 48.1052 143.82C48.0414 143.82 48.0414 143.82 47.9776 143.769C47.9138 143.769 47.9138 143.718 47.85 143.718L27.4978 134.334C27.434 134.334 27.434 134.283 27.3702 134.283C27.2426 134.232 27.2426 134.13 27.2426 134.079L27.1788 148.206C27.1788 148.308 27.2426 148.41 27.434 148.512L47.7862 157.896C47.85 157.896 47.85 157.947 47.9138 157.947H47.9776C47.9776 157.947 47.9776 157.947 48.0414 157.947H48.1052C48.1052 157.947 48.1052 157.947 48.169 157.947C48.169 157.947 48.169 157.947 48.2328 157.947H48.2966H48.3604C48.4242 157.947 48.4242 157.947 48.488 157.947H48.5518H48.6156C48.6156 157.947 48.6156 157.947 48.6794 157.947C48.7432 157.947 48.807 157.896 48.8708 157.896L48.9346 143.769C48.8708 143.82 48.807 143.82 48.7432 143.82Z" fill="#2B303F"/>
<path d="M53.5282 141.066C53.8472 141.219 53.8472 141.474 53.5282 141.627L48.9346 143.769C48.6156 143.922 48.0414 143.922 47.7224 143.769L27.3702 134.385C27.0512 134.232 27.0512 133.977 27.3702 133.824L31.9638 131.682C32.2828 131.529 32.857 131.529 33.176 131.682L53.5282 141.066Z" fill="#323846"/>
<path d="M37.1316 151.827C37.1316 151.776 37.1316 151.776 37.1316 151.776L34.5796 150.603L34.3244 150.705H34.3882C34.3882 150.705 34.452 150.705 34.5158 150.756L37.0678 151.929C37.1316 151.929 37.1316 151.98 37.1954 151.98C37.1954 152.031 37.2592 152.031 37.2592 152.082C37.2592 152.133 37.323 152.133 37.323 152.184C37.323 152.235 37.323 152.235 37.323 152.286V152.592C37.323 152.643 37.323 152.643 37.323 152.694C37.323 152.694 37.323 152.745 37.2592 152.745L37.5144 152.643C37.5144 152.643 37.5782 152.643 37.5782 152.592L37.1316 151.827C37.1316 151.878 37.1316 151.878 37.1316 151.827Z" fill="#828485"/>
<path d="M36.685 151.623C36.8126 151.674 36.9402 151.827 36.9402 151.98V152.286C36.9402 152.439 36.8126 152.49 36.685 152.388L34.133 151.215C34.0054 151.164 33.8778 151.011 33.8778 150.858V150.552C33.8778 150.399 34.0054 150.348 34.133 150.45L36.685 151.623Z" fill="#BDBEC1"/>
<path d="M42.2356 138.21L42.1718 138.261L41.7252 138.465C41.6614 138.516 41.5976 138.516 41.5338 138.516C41.47 138.516 41.4062 138.516 41.3424 138.465L38.6628 137.241C38.599 137.19 38.599 137.19 38.599 137.139V137.343C38.599 137.394 38.599 137.394 38.6628 137.445L41.2786 138.669C41.2786 138.669 41.2786 138.669 41.3424 138.669C41.3424 138.669 41.3424 138.669 41.4062 138.669C41.4062 138.669 41.4062 138.669 41.47 138.669C41.47 138.669 41.47 138.669 41.5338 138.669C41.5338 138.669 41.5338 138.669 41.5976 138.669H41.6614H41.7252L42.1718 138.465C42.1718 138.465 42.1718 138.465 42.2356 138.465V138.261C42.2356 138.159 42.2356 138.159 42.2356 138.21Z" fill="#7F8081"/>
<path d="M42.1718 138.057C42.2994 138.108 42.2994 138.21 42.1718 138.261L41.7252 138.465C41.5976 138.516 41.4062 138.516 41.2786 138.465L38.599 137.241C38.4714 137.19 38.4714 137.088 38.599 137.037L39.0456 136.833C39.1732 136.782 39.3646 136.782 39.4922 136.833L42.1718 138.057Z" fill="#D2D4D7"/>
<path d="M51.8056 149.94L51.6142 149.838C51.6142 149.838 51.6142 149.838 51.5504 149.838L51.2314 149.991L51.1676 150.042C51.1676 150.042 51.1676 150.042 51.1676 150.093V150.144V152.49C51.1676 152.541 51.1676 152.541 51.1676 152.592C51.1676 152.592 51.1676 152.643 51.2314 152.643L51.4866 152.745C51.4228 152.745 51.4228 152.694 51.4228 152.592V150.246C51.4228 150.195 51.4228 150.195 51.4228 150.144C51.4228 150.093 51.4228 150.093 51.4866 150.042C51.4866 149.991 51.5504 149.991 51.5504 149.94C51.5504 149.889 51.6142 149.889 51.678 149.889L51.997 149.736C52.0608 149.736 52.0608 149.736 52.1246 149.685C51.7418 149.94 51.7418 149.94 51.8056 149.94Z" fill="#828485"/>
<path d="M51.6142 149.94C51.7418 149.889 51.8694 149.94 51.8694 150.042V152.388C51.8694 152.541 51.7418 152.694 51.6142 152.745L51.2952 152.898C51.1676 152.949 51.04 152.898 51.04 152.796V150.45C51.04 150.297 51.1676 150.144 51.2952 150.093L51.6142 149.94Z" fill="#BDBEC1"/>
<path d="M51.8056 145.452L51.6142 145.35C51.6142 145.35 51.6142 145.35 51.5504 145.35L51.2314 145.503L51.1676 145.554C51.1676 145.554 51.1676 145.554 51.1676 145.605V145.656V148.002C51.1676 148.053 51.1676 148.053 51.1676 148.104C51.1676 148.104 51.1676 148.155 51.2314 148.155L51.4866 148.257C51.4228 148.257 51.4228 148.206 51.4228 148.104V145.758C51.4228 145.707 51.4228 145.707 51.4228 145.656C51.4228 145.605 51.4228 145.605 51.4866 145.554C51.4866 145.503 51.5504 145.503 51.5504 145.452C51.5504 145.401 51.6142 145.401 51.678 145.401L51.997 145.248C52.0608 145.248 52.0608 145.248 52.1246 145.197C51.7418 145.452 51.7418 145.452 51.8056 145.452Z" fill="#828485"/>
<path d="M51.6142 145.452C51.7418 145.401 51.8694 145.452 51.8694 145.554V147.9C51.8694 148.053 51.7418 148.206 51.6142 148.257L51.2952 148.41C51.1676 148.461 51.04 148.41 51.04 148.308V145.962C51.04 145.809 51.1676 145.656 51.2952 145.605L51.6142 145.452Z" fill="#BDBEC1"/>
<path d="M28.2634 147.135L28.3272 136.374L45.5532 144.33V155.091L28.2634 147.135Z" fill="white"/>
<path d="M47.9776 147.135C47.9776 147.084 47.9776 147.084 47.9776 147.135C47.9776 147.084 47.9776 147.084 47.9776 147.135C47.9776 147.084 47.9776 147.084 47.9776 147.084C47.9776 147.084 47.9776 147.084 47.9776 147.033C47.9776 147.033 47.9776 147.033 47.9776 146.982C47.9776 146.982 47.9776 146.982 47.9776 146.931C47.9776 146.931 47.9776 146.931 47.9776 146.88C47.9776 146.88 47.9776 146.88 47.9776 146.829C47.9776 146.829 47.9776 146.829 47.9776 146.778C47.9776 146.778 47.9776 146.778 47.9776 146.727C47.9776 146.727 47.9776 146.727 47.9776 146.676C47.9776 146.676 47.9776 146.676 47.9776 146.625C47.9776 146.625 47.9776 146.625 47.9776 146.574L47.9138 146.523C47.9138 146.523 47.9138 146.472 47.85 146.472C47.85 146.472 47.85 146.472 47.85 146.421C47.85 146.421 47.85 146.421 47.7862 146.421C47.7862 146.421 47.7862 146.421 47.7224 146.421C47.7224 146.421 47.7224 146.421 47.6586 146.421H47.5948L47.3396 146.523C47.4034 146.472 47.4672 146.472 47.531 146.472C47.5948 146.472 47.7224 146.523 47.7862 146.523C47.85 146.574 47.9776 146.625 48.0414 146.676C48.1052 146.727 48.169 146.829 48.2328 146.88C48.2966 146.982 48.3604 147.033 48.3604 147.135C48.4242 147.237 48.4242 147.288 48.4242 147.39C48.4242 147.492 48.4242 147.543 48.3604 147.594C48.2966 147.645 48.2966 147.696 48.2328 147.696L48.488 147.594C48.5518 147.594 48.5518 147.543 48.6156 147.492C48.6156 147.492 48.6156 147.492 48.6156 147.441C48.6156 147.441 48.6156 147.441 48.6156 147.39C48.6156 147.39 48.6156 147.39 48.6156 147.339C48.6156 147.339 48.6156 147.339 48.6156 147.288C47.9776 147.186 47.9776 147.186 47.9776 147.135Z" fill="#828485"/>
<path d="M47.0844 146.37C47.4672 146.523 47.7224 146.931 47.7224 147.237C47.7224 147.543 47.4034 147.696 47.0844 147.543C46.7016 147.39 46.4464 146.982 46.4464 146.676C46.4464 146.319 46.7654 146.217 47.0844 146.37Z" fill="#BDBEC1"/>
<path d="M47.9776 151.674C47.9776 151.623 47.9776 151.623 47.9776 151.674C47.9776 151.623 47.9776 151.623 47.9776 151.623C47.9776 151.623 47.9776 151.623 47.9776 151.572C47.9776 151.572 47.9776 151.572 47.9776 151.521C47.9776 151.521 47.9776 151.521 47.9776 151.47C47.9776 151.47 47.9776 151.47 47.9776 151.419C47.9776 151.419 47.9776 151.419 47.9776 151.368C47.9776 151.368 47.9776 151.368 47.9776 151.317C47.9776 151.317 47.9776 151.317 47.9776 151.266C47.9776 151.266 47.9776 151.266 47.9776 151.215C47.9776 151.215 47.9776 151.215 47.9776 151.164C47.9776 151.164 47.9776 151.164 47.9776 151.113L47.9138 151.062C47.9138 151.062 47.9138 151.011 47.85 151.011C47.85 151.011 47.85 151.011 47.85 150.96C47.85 150.96 47.85 150.96 47.7862 150.96C47.7862 150.96 47.7862 150.96 47.7224 150.96C47.7224 150.96 47.7224 150.96 47.6586 150.96H47.5948L47.3396 151.062C47.4034 151.011 47.4672 151.011 47.531 151.011C47.5948 151.011 47.7224 151.062 47.7862 151.062C47.85 151.113 47.9776 151.164 48.0414 151.215C48.1052 151.266 48.169 151.368 48.2328 151.419C48.2966 151.521 48.3604 151.572 48.3604 151.674C48.4242 151.776 48.4242 151.827 48.4242 151.929C48.4242 152.031 48.4242 152.082 48.3604 152.133C48.2966 152.184 48.2966 152.235 48.2328 152.235L48.488 152.133C48.5518 152.133 48.5518 152.082 48.6156 152.031C48.6156 152.031 48.6156 152.031 48.6156 151.98C48.6156 151.98 48.6156 151.98 48.6156 151.929C48.6156 151.929 48.6156 151.929 48.6156 151.878C48.6156 151.878 48.6156 151.878 48.6156 151.827C47.9776 151.725 47.9776 151.725 47.9776 151.674C47.9776 151.725 47.9776 151.725 47.9776 151.674Z" fill="#828485"/>
<path d="M47.0844 150.909C47.4672 151.062 47.7224 151.47 47.7224 151.776C47.7224 152.082 47.4034 152.235 47.0844 152.082C46.7016 151.929 46.4464 151.521 46.4464 151.215C46.4464 150.858 46.7654 150.756 47.0844 150.909Z" fill="#BDBEC1"/>
<g opacity="0.8">
<g opacity="0.8">
<path opacity="0.8" d="M31.581 139.485V140.76L32.219 141.066V141.372L31.1982 140.862V139.281L31.581 139.485Z" fill="#3A4151"/>
<path opacity="0.8" d="M33.495 140.352V140.607L32.857 140.352V140.709L33.4312 140.964V141.27L32.857 141.015V141.372L33.495 141.678V141.933L32.4742 141.474V139.893L33.495 140.352Z" fill="#3A4151"/>
<path opacity="0.8" d="M34.3882 140.709C34.452 140.76 34.5796 140.811 34.6434 140.811C34.7072 140.862 34.771 140.913 34.8348 140.964V141.321C34.8348 141.27 34.771 141.27 34.771 141.219C34.7072 141.168 34.7072 141.168 34.6434 141.117C34.5796 141.066 34.5796 141.066 34.5158 141.066C34.452 141.066 34.452 141.015 34.3882 141.015C34.3244 141.015 34.3244 140.964 34.2606 140.964C34.1968 140.964 34.1968 140.964 34.1968 140.964H34.133V141.015C34.133 141.066 34.133 141.066 34.133 141.117C34.133 141.168 34.1968 141.168 34.1968 141.219C34.1968 141.27 34.2606 141.27 34.3244 141.321C34.3882 141.372 34.3882 141.423 34.452 141.423C34.5158 141.474 34.5796 141.525 34.6434 141.576C34.7072 141.627 34.771 141.678 34.771 141.729C34.8348 141.78 34.8348 141.831 34.8348 141.882C34.8348 141.933 34.8348 141.984 34.8348 142.086C34.8348 142.188 34.8348 142.239 34.771 142.29C34.7072 142.341 34.7072 142.341 34.6434 142.392C34.5796 142.392 34.5158 142.392 34.452 142.392C34.3882 142.392 34.2606 142.341 34.1968 142.29C34.133 142.239 34.0054 142.188 33.9416 142.137C33.8778 142.086 33.7502 142.035 33.7502 141.984V141.627C33.814 141.729 33.8778 141.78 34.0054 141.831C34.0692 141.882 34.1968 141.933 34.2606 141.984C34.3244 141.984 34.3244 142.035 34.3882 142.035C34.452 142.035 34.452 142.035 34.452 142.035C34.452 142.035 34.5158 142.035 34.5158 141.984V141.933C34.5158 141.882 34.5158 141.882 34.5158 141.831C34.5158 141.78 34.452 141.78 34.452 141.729C34.3882 141.678 34.3882 141.678 34.3244 141.627C34.2606 141.576 34.2606 141.525 34.1968 141.474C34.0692 141.372 33.9416 141.27 33.8778 141.168C33.814 141.066 33.7502 140.964 33.7502 140.862C33.7502 140.76 33.7502 140.709 33.814 140.658C33.8778 140.607 33.8778 140.607 33.9416 140.556C34.0054 140.556 34.0692 140.556 34.133 140.556C34.1968 140.658 34.3244 140.709 34.3882 140.709Z" fill="#3A4151"/>
<path opacity="0.8" d="M35.7918 141.372C35.8556 141.423 35.9832 141.474 36.047 141.474C36.1108 141.525 36.1746 141.576 36.2384 141.627V141.984C36.2384 141.933 36.1746 141.933 36.1746 141.882C36.1108 141.831 36.1108 141.831 36.047 141.78C35.9832 141.78 35.9832 141.729 35.9194 141.729C35.8556 141.729 35.8556 141.678 35.7918 141.678C35.728 141.678 35.728 141.627 35.6642 141.627C35.6004 141.627 35.6004 141.627 35.6004 141.627H35.5366V141.678C35.5366 141.729 35.5366 141.729 35.5366 141.78C35.5366 141.831 35.6004 141.831 35.6004 141.882C35.6004 141.933 35.6642 141.933 35.728 141.984C35.7918 142.035 35.7918 142.086 35.8556 142.086C35.9194 142.137 35.9832 142.188 36.047 142.239C36.1108 142.29 36.1746 142.341 36.1746 142.392C36.2384 142.443 36.2384 142.494 36.2384 142.545C36.2384 142.596 36.2384 142.647 36.2384 142.749C36.2384 142.851 36.2384 142.902 36.1746 142.953C36.1108 143.004 36.1108 143.004 36.047 143.055C35.9832 143.055 35.9194 143.055 35.8556 143.055C35.7918 143.055 35.6642 143.004 35.6004 142.953C35.5366 142.902 35.409 142.851 35.3452 142.8C35.2814 142.749 35.1538 142.698 35.1538 142.647V142.29C35.2176 142.392 35.2814 142.443 35.409 142.494C35.4728 142.545 35.6004 142.596 35.6642 142.647C35.728 142.647 35.728 142.698 35.7918 142.698C35.8556 142.698 35.8556 142.698 35.8556 142.698C35.8556 142.698 35.9194 142.698 35.9194 142.647V142.596C35.9194 142.545 35.9194 142.545 35.9194 142.494C35.9194 142.443 35.8556 142.443 35.8556 142.392C35.7918 142.341 35.7918 142.341 35.728 142.29C35.6642 142.239 35.6642 142.188 35.6004 142.137C35.4728 142.035 35.3452 141.933 35.2814 141.831C35.2176 141.729 35.1538 141.627 35.1538 141.525C35.1538 141.423 35.1538 141.372 35.2176 141.321C35.2814 141.27 35.2814 141.27 35.3452 141.219C35.409 141.219 35.4728 141.219 35.5366 141.219C35.6004 141.321 35.728 141.321 35.7918 141.372Z" fill="#3A4151"/>
<path opacity="0.8" d="M37.961 142.596C38.0886 142.8 38.2162 143.055 38.2162 143.31C38.2162 143.565 38.1524 143.718 37.961 143.82C37.7696 143.922 37.5782 143.871 37.323 143.769C37.0678 143.667 36.8764 143.463 36.685 143.259C36.5574 143.055 36.4298 142.8 36.4298 142.545C36.4298 142.29 36.4936 142.137 36.685 142.035C36.8764 141.933 37.0678 141.984 37.323 142.086C37.5782 142.188 37.8334 142.392 37.961 142.596ZM37.642 143.463C37.7058 143.412 37.7696 143.31 37.7696 143.157C37.7696 143.004 37.7058 142.851 37.642 142.698C37.5782 142.596 37.4506 142.494 37.323 142.392C37.1954 142.341 37.0678 142.341 37.004 142.392C36.9402 142.443 36.8764 142.545 36.8764 142.698C36.8764 142.851 36.9402 143.004 37.004 143.106C37.0678 143.259 37.1954 143.31 37.323 143.412C37.4506 143.514 37.5782 143.514 37.642 143.463Z" fill="#3A4151"/>
<path opacity="0.8" d="M40.0664 143.361V144.942L39.6836 144.738L38.9818 143.412C38.918 143.31 38.918 143.259 38.918 143.259C38.918 143.31 38.918 143.412 38.918 143.514V144.381L38.5352 144.228V142.647L38.9818 142.851L39.6836 144.126C39.6836 144.177 39.7474 144.228 39.7474 144.279C39.7474 144.228 39.7474 144.177 39.7474 144.075V143.208L40.0664 143.361Z" fill="#3A4151"/>
<path opacity="0.8" d="M41.8528 144.177V145.503L42.2356 145.707V145.962L41.151 145.452V145.197L41.47 145.35V144.33L41.151 144.279V143.973L41.8528 144.177Z" fill="#3A4151"/>
<path opacity="0.8" d="M34.9624 144.483L30.4964 142.443C30.2412 142.341 30.0498 142.443 30.0498 142.647V145.707C30.0498 145.962 30.2412 146.268 30.4964 146.37L32.219 147.186L32.7294 148.206L33.2398 147.645L34.9624 148.461C35.2176 148.563 35.409 148.461 35.409 148.257V145.197C35.409 144.891 35.2176 144.585 34.9624 144.483Z" fill="#DFE1EA"/>
<path opacity="0.8" d="M41.789 151.164V151.572L36.685 149.175V148.818L41.789 151.164Z" fill="#DFE1EA"/>
<path opacity="0.8" d="M42.6822 150.807V151.215L36.685 148.41V148.053L42.6822 150.807Z" fill="#DFE1EA"/>
<path opacity="0.8" d="M43.6392 149.685V150.093L36.685 146.88V146.523L43.6392 149.685Z" fill="#DFE1EA"/>
<path opacity="0.8" d="M43.6392 148.257V149.073L36.685 145.86V145.044L43.6392 148.257Z" fill="#DFE1EA"/>
<path opacity="0.8" d="M43.6392 150.45L43.5754 150.858L36.685 147.645V147.288L43.6392 150.45Z" fill="#DFE1EA"/>
</g>
</g>
<path d="M287.738 154.428L149.93 90.831C148.782 90.321 148.399 89.148 149.037 88.23C149.675 87.312 151.142 87.006 152.291 87.516L290.099 151.113C291.247 151.623 291.63 152.796 290.992 153.714C290.29 154.632 288.823 154.989 287.738 154.428Z" fill="#D5D7E2"/>
<path d="M290.162 155.142C290.162 154.989 290.226 154.836 290.29 154.683V154.632C290.354 154.479 290.418 154.326 290.481 154.173C290.545 154.02 290.673 153.867 290.8 153.714C290.928 153.561 291.056 153.408 291.183 153.255L291.247 153.204C291.375 153.102 291.502 152.949 291.63 152.847L291.694 152.796C291.821 152.694 291.885 152.643 292.013 152.541C292.076 152.49 292.14 152.49 292.14 152.439C292.268 152.337 292.459 152.235 292.651 152.184C292.842 152.133 292.97 152.031 293.097 152.031H293.161C293.289 151.98 293.416 151.98 293.608 151.98C293.608 151.98 293.608 151.98 293.671 151.98C293.799 151.98 293.927 151.98 294.054 151.98C294.182 151.98 294.309 152.031 294.437 152.082L291.566 150.756C291.502 150.756 291.502 150.705 291.438 150.705C291.375 150.705 291.375 150.654 291.311 150.654H291.247C291.183 150.654 291.119 150.654 291.119 150.654C291.056 150.654 290.992 150.654 290.928 150.654H290.864C290.864 150.654 290.864 150.654 290.8 150.654C290.737 150.654 290.737 150.654 290.673 150.654C290.609 150.654 290.545 150.654 290.418 150.705C290.418 150.705 290.354 150.705 290.29 150.756H290.226C290.162 150.756 290.162 150.756 290.099 150.807C289.971 150.858 289.843 150.909 289.716 150.96C289.524 151.011 289.397 151.113 289.205 151.215C289.142 151.266 289.078 151.266 289.078 151.317C289.014 151.368 288.95 151.419 288.823 151.47C288.759 151.521 288.759 151.521 288.695 151.572L288.631 151.623C288.567 151.674 288.567 151.674 288.504 151.725C288.44 151.776 288.376 151.878 288.312 151.929L288.248 151.98L288.185 152.031L288.121 152.082C288.057 152.133 287.993 152.184 287.993 152.235C287.929 152.286 287.929 152.337 287.866 152.388C287.802 152.439 287.802 152.49 287.738 152.541C287.674 152.592 287.674 152.643 287.61 152.694C287.547 152.745 287.547 152.796 287.547 152.847C287.483 152.898 287.483 152.949 287.483 153.051C287.483 153.102 287.419 153.204 287.419 153.255C287.419 153.306 287.419 153.306 287.355 153.357V153.408V153.459C287.355 153.561 287.291 153.612 287.291 153.714C287.291 153.765 287.291 153.816 287.291 153.867V153.918V153.969C287.291 154.122 287.228 154.224 287.228 154.377C287.228 155.04 287.483 155.448 287.993 155.703L290.864 157.029C290.418 156.825 290.099 156.366 290.099 155.703C290.099 155.55 290.099 155.397 290.162 155.244C290.162 155.193 290.162 155.193 290.162 155.142Z" fill="#616774"/>
<path d="M292.651 152.184C294.054 151.521 295.203 152.031 295.203 153.357C295.203 154.632 294.054 156.213 292.651 156.876C291.247 157.539 290.099 157.029 290.099 155.703C290.099 154.377 291.247 152.796 292.651 152.184Z" fill="#595D69"/>
</svg>