<svg width="493" height="503" viewBox="0 0 448 402" fill="none" xmlns="http://www.w3.org/2000/svg">
<path opacity="0.4" d="M326.646 236.605L136.604 341.392L0 266.075L190.328 161.45L326.646 236.605Z" fill="#D6D8E5"/>
<path d="M334.853 220.45L144.812 325.245L8.20749 249.928L198.536 145.295L334.853 220.45Z" fill="#41538C"/>
<path d="M334.853 232.036L144.812 336.823V325.245L334.853 220.458V232.036Z" fill="#263351"/>
<path d="M144.812 336.823L8.20749 261.514V249.937L144.812 325.245V336.823Z" fill="#314366"/>
<path d="M137.276 287.912L53.088 241.491L106.301 212.149L190.481 258.57L137.276 287.912Z" fill="#41538C"/>
<path d="M190.49 267.358L137.276 296.7V287.938L190.49 258.596V267.358Z" fill="#263351"/>
<path d="M137.276 296.7L53.088 250.279V241.525L137.276 287.937V296.7Z" fill="#314366"/>
<path d="M132.438 268.539L81.312 240.353L111.131 223.915L162.257 252.101L132.438 268.539Z" fill="#8DBBFF"/>
<path d="M132.438 272.005L81.312 243.818V240.293L132.438 268.479V272.005Z" fill="#7FAEDD"/>
<path d="M162.257 255.567L132.438 272.005V268.479L162.257 252.042V255.567Z" fill="#6F98C9"/>
<path opacity="0.2" d="M121.964 253.24C128.986 253.24 134.678 250.098 134.678 246.223C134.678 242.348 128.986 239.206 121.964 239.206C114.942 239.206 109.249 242.348 109.249 246.223C109.249 250.098 114.942 253.24 121.964 253.24Z" fill="white"/>
<path d="M178.94 174.243C178.94 174.243 195.068 146.305 182.201 113.831C169.335 81.3583 196.654 84.55 196.654 84.55L225.72 110.426L230.2 184.16L208.365 205.8L178.573 195.156L178.94 174.243Z" fill="#314366"/>
<path d="M169.344 43.563C169.344 43.563 206.591 53.4632 221.312 69.1394C236.033 84.8155 178.026 70.0549 178.026 70.0549L169.344 43.563Z" fill="#41538C"/>
<path d="M196.52 57.4422L137.052 90.232L109.832 76.3528L169.299 43.563L196.52 57.4422Z" fill="#41538C"/>
<path d="M225.147 220.458C225.147 220.458 248.371 165.198 240.531 110.691C234.402 68.5831 206.725 59.2219 206.725 59.2219C206.725 59.2219 198.885 55.9447 192.765 55.7136L151.352 78.0726V132.836L192.765 110.015C192.765 110.015 217.011 120.771 206.725 161.014C202.724 179.565 197.724 197.907 191.744 215.966L225.147 220.458Z" fill="#263351"/>
<path d="M196.905 207.58L215.148 194.36L187.748 179.103L171.369 170.076C167.695 168.048 161.406 174.354 161.406 180.122V222.675L193.222 240.37L219.565 213.844L196.905 207.58Z" fill="#314366"/>
<path d="M245.907 211.354L193.222 240.447V197.808C193.222 192.075 199.494 185.735 203.186 187.763L219.565 196.807L245.907 211.354Z" fill="#263351"/>
<path d="M215.161 217.628C218.935 211.386 218.936 204.641 215.165 202.562C211.394 200.482 205.278 203.856 201.505 210.098C197.731 216.339 197.73 223.084 201.501 225.163C205.272 227.243 211.388 223.869 215.161 217.628Z" fill="#ACBAD1"/>
<path d="M211.747 215.745C213.633 212.626 213.632 209.255 211.747 208.216C209.861 207.176 206.804 208.861 204.919 211.98C203.033 215.099 203.034 218.47 204.919 219.509C206.805 220.549 209.862 218.864 211.747 215.745Z" fill="#99A9BF"/>
<path d="M173.399 102.508C177.172 96.2671 177.173 89.5218 173.402 87.4425C169.631 85.3631 163.515 88.7371 159.742 94.9784C155.969 101.22 155.967 107.965 159.738 110.044C163.509 112.124 169.625 108.75 173.399 102.508Z" fill="#ACBAD1"/>
<path d="M169.984 100.626C171.87 97.5074 171.87 94.1365 169.984 93.0968C168.098 92.0571 165.041 93.7424 163.156 96.8611C161.271 99.9797 161.271 103.351 163.156 104.39C165.042 105.43 168.099 103.745 169.984 100.626Z" fill="#99A9BF"/>
<path d="M130.753 190.21V169.425H113.156V190.484C113.219 191.673 114.052 192.854 115.718 193.769C117.649 194.702 119.782 195.188 121.946 195.188C124.109 195.188 126.242 194.702 128.173 193.769C129.92 192.76 130.816 191.485 130.753 190.21Z" fill="#314366"/>
<path d="M121.955 174.072C126.819 174.072 130.762 171.896 130.762 169.211C130.762 166.527 126.819 164.351 121.955 164.351C117.09 164.351 113.147 166.527 113.147 169.211C113.147 171.896 117.09 174.072 121.955 174.072Z" fill="#BCC0CE"/>
<path d="M139.561 172.317V130.688C139.74 128.121 138.038 125.443 134.436 123.458C127.554 119.659 116.399 119.659 109.527 123.458C105.943 125.443 104.223 128.079 104.393 130.688V172.352C104.384 172.451 104.384 172.551 104.393 172.651V172.797C104.527 175.184 106.185 177.546 109.527 179.368C116.408 183.159 127.554 183.159 134.436 179.368C137.984 177.426 139.65 174.867 139.561 172.317Z" fill="#263351"/>
<path d="M151.352 146.365V48.8169L92.5837 48.3206V146.382C92.5837 150.532 95.4509 154.682 101.194 157.848C112.672 164.172 131.282 164.172 142.769 157.848C148.485 154.665 151.352 150.515 151.352 146.365Z" fill="#314366"/>
<path d="M121.964 64.51C138.199 64.51 151.361 57.254 151.361 48.3033C151.361 39.3526 138.199 32.0967 121.964 32.0967C105.728 32.0967 92.5658 39.3526 92.5658 48.3033C92.5658 57.254 105.728 64.51 121.964 64.51Z" fill="#41538C"/>
<path d="M136.273 47.6787V13.8535H107.672V48.0808C107.771 50.0147 109.151 51.94 111.839 53.4203C117.43 56.5008 126.488 56.5008 132.07 53.4203C134.955 51.8202 136.344 49.7409 136.273 47.6787Z" fill="#263351"/>
<path d="M121.973 21.4519C129.875 21.4519 136.282 17.9197 136.282 13.5625C136.282 9.2053 129.875 5.6731 121.973 5.6731C114.07 5.6731 107.663 9.2053 107.663 13.5625C107.663 17.9197 114.07 21.4519 121.973 21.4519Z" fill="#8DBBFF"/>
<path d="M141.362 10.6961L140.125 11.3978C139.33 10.2586 138.322 9.26943 137.15 8.4799C136.681 8.14824 136.19 7.84529 135.681 7.57288C134.855 7.11688 133.996 6.71935 133.109 6.38348C125.927 3.79112 118 3.79112 110.817 6.38348C109.936 6.72459 109.08 7.12196 108.254 7.57288C107.86 7.79536 107.484 8.00928 107.134 8.24031C105.734 9.11179 104.551 10.2654 103.667 11.6203L102.565 10.679V15.1286C102.587 16.5798 103.082 17.9883 103.981 19.1588C105.122 20.6174 106.58 21.823 108.254 22.6928C115.826 26.8771 128.11 26.8771 135.681 22.6928C139.471 20.6049 141.371 17.8668 141.371 15.1286V10.6961H141.362ZM112.349 9.84044C117.662 6.914 126.273 6.914 131.577 9.84044C132.981 10.5444 134.15 11.6083 134.955 12.9123V12.9979C135.26 13.536 135.445 14.128 135.501 14.7373C135.556 15.3466 135.48 15.9602 135.278 16.5404L123.442 19.2273C123.442 19.2273 115.817 18.6968 114.759 18.5684C112.685 18.0524 110.639 17.4355 108.631 16.7201C108.39 16.1022 108.292 15.4417 108.345 14.7843C108.397 14.1268 108.599 13.4881 108.935 12.9123C109.752 11.6076 110.935 10.5466 112.349 9.849V9.84044Z" fill="#314366"/>
<path d="M137.401 6.23802L137.151 8.49703L136.658 12.9209L135 13.0065H134.893C134.918 12.9777 134.939 12.9461 134.955 12.9124C134.15 11.6083 132.981 10.5444 131.577 9.84045C126.273 6.91401 117.663 6.91401 112.349 9.84045C110.956 10.5434 109.793 11.6006 108.989 12.8952L106.893 12.0396L107.152 8.27455L107.269 6.56318L111.202 3.99613C111.202 3.99613 117.008 1.66868 117.322 1.61733C117.636 1.56599 129.06 2.47302 129.06 2.47302L137.401 6.23802Z" fill="#263351"/>
<path d="M135.681 3.1318C128.11 -1.04393 115.826 -1.04393 108.255 3.1318C104.456 5.21967 102.565 7.95785 102.565 10.696C102.565 13.4342 104.456 16.1639 108.255 18.2517C115.826 22.436 128.11 22.436 135.681 18.2517C139.472 16.1639 141.362 13.4513 141.362 10.7132C141.362 7.95785 139.472 5.21967 135.681 3.1318ZM108.981 12.9208C107.771 10.7559 108.389 8.35147 110.826 6.42618C111.303 6.04773 111.816 5.71257 112.359 5.42503C117.672 2.49004 126.282 2.49004 131.587 5.42503C132.128 5.71467 132.64 6.04971 133.119 6.42618C135.574 8.35147 136.183 10.7731 134.965 12.9465C134.948 12.9803 134.927 13.0119 134.902 13.0406C134.095 14.2984 132.951 15.3267 131.587 16.0184C126.282 18.9534 117.672 18.9534 112.359 16.0184C110.951 15.3085 109.78 14.2352 108.981 12.9208Z" fill="#41538C"/>
<path opacity="0.2" d="M117.788 14.4181C120.297 14.4181 122.331 13.2956 122.331 11.911C122.331 10.5263 120.297 9.40381 117.788 9.40381C115.279 9.40381 113.246 10.5263 113.246 11.911C113.246 13.2956 115.279 14.4181 117.788 14.4181Z" fill="white"/>
<path opacity="0.2" d="M127.769 15.3597C129.279 15.3597 130.502 14.6854 130.502 13.8537C130.502 13.0219 129.279 12.3477 127.769 12.3477C126.26 12.3477 125.037 13.0219 125.037 13.8537C125.037 14.6854 126.26 15.3597 127.769 15.3597Z" fill="white"/>
<path opacity="0.4" d="M57.2185 402C78.9225 402 96.5171 392.3 96.5171 380.334C96.5171 368.368 78.9225 358.668 57.2185 358.668C35.5145 358.668 17.92 368.368 17.92 380.334C17.92 392.3 35.5145 402 57.2185 402Z" fill="#D6D8E5"/>
<path d="M101.499 300.542H22.9106C22.9106 300.542 23.1794 364.179 22.9733 376.252C22.9225 376.796 22.9076 377.342 22.9285 377.887C22.9349 377.972 22.9349 378.058 22.9285 378.143C23.2421 383.449 27.068 388.703 34.4152 392.758C49.7547 401.221 74.6366 401.221 89.9672 392.758C97.3144 388.703 101.131 383.449 101.445 378.143L101.499 300.542Z" fill="#8C50FF"/>
<path d="M62.2091 321.497C83.9131 321.497 101.508 311.797 101.508 299.831C101.508 287.866 83.9131 278.166 62.2091 278.166C40.5051 278.166 22.9106 287.866 22.9106 299.831C22.9106 311.797 40.5051 321.497 62.2091 321.497Z" fill="#8C50FF"/>
<path d="M103.425 302.732C103.014 303.768 102.492 304.76 101.866 305.693C100.632 307.528 99.1223 309.18 97.3861 310.596C96.8665 311.033 96.3109 311.452 95.7285 311.871C94.5711 312.703 93.359 313.463 92.0997 314.147C91.8309 314.301 91.5621 314.447 91.2844 314.584C90.7289 314.883 90.1465 315.166 89.5641 315.439C88.1484 316.098 86.67 316.706 85.1468 317.245C84.5823 317.45 84.0178 317.647 83.4354 317.827C81.9749 318.297 80.4697 318.682 78.9554 319.076C78.4447 319.204 77.9161 319.316 77.3964 319.427C75.8911 319.743 74.3679 320.017 72.8268 320.231C72.3071 320.308 71.7785 320.377 71.2588 320.437C69.7445 320.616 68.2213 320.753 66.6892 320.839C66.1695 320.839 65.6498 320.899 65.1212 320.907C63.6069 320.976 62.0837 320.984 60.5605 320.95L58.9298 320.881C57.4006 320.813 55.8774 320.702 54.3602 320.548C53.8316 320.488 53.3119 320.437 52.7922 320.359C51.2511 320.171 49.7279 319.932 48.2316 319.641L46.6636 319.324C45.1045 318.982 43.5813 318.588 42.094 318.143L40.526 317.656C38.958 317.134 37.4258 316.552 35.9564 315.901C35.4248 315.673 34.9051 315.434 34.3973 315.183C33.6985 314.852 33.0175 314.501 32.3545 314.13C31.4585 313.634 30.6252 313.129 29.8277 312.607C29.2812 312.256 28.7615 311.888 28.2597 311.512C26.5578 310.271 25.0229 308.834 23.6901 307.233C23.1176 306.533 22.5967 305.795 22.1311 305.026C17.2748 296.931 20.6796 287.664 32.3545 281.229C48.8409 272.142 75.5685 272.142 92.0549 281.229C96.6962 283.796 100.02 286.782 102.054 289.983C102.595 290.828 103.054 291.719 103.425 292.644C104.751 295.888 104.751 299.489 103.425 302.732Z" fill="#EF990F"/>
<path d="M19.9898 297.692C19.9898 297.478 19.9898 286.098 19.9898 286.098L34.048 291.891L19.9898 297.692Z" fill="#EF990F"/>
<path d="M104.429 285.482L104.411 297.136L96.7682 303.357L92.0911 292.669L104.429 285.482Z" fill="#EF990F"/>
<path d="M23.6904 292.31V307.233C23.1179 306.532 22.597 305.795 22.1314 305.025V292.31H23.6904Z" fill="#DD8910"/>
<path d="M29.8279 296.922V312.615C29.2813 312.264 28.7616 311.896 28.2599 311.52V296.922H29.8279Z" fill="#DD8910"/>
<path d="M35.9566 300.995V315.918C35.425 315.69 34.9053 315.45 34.3976 315.199V300.995H35.9566Z" fill="#DD8910"/>
<path d="M42.112 302.801V318.16L40.544 317.672V302.801H42.112Z" fill="#DD8910"/>
<path d="M48.2318 304.812V319.658L46.6638 319.341V304.794L48.2318 304.812Z" fill="#DD8910"/>
<path d="M54.3602 306.334V320.599C53.8316 320.539 53.3119 320.487 52.7922 320.41V306.334H54.3602Z" fill="#DD8910"/>
<path d="M60.4979 306.334V320.984L58.9299 320.881V306.334H60.4979Z" fill="#DD8910"/>
<path d="M66.6264 306.334V320.881C66.1067 320.881 65.5871 320.941 65.0584 320.95V306.334H66.6264Z" fill="#DD8910"/>
<path d="M72.7641 305.753V320.231C72.2444 320.308 71.7158 320.376 71.1961 320.436V305.753H72.7641Z" fill="#DD8910"/>
<path d="M78.8928 304.187V319.076C78.3821 319.204 77.8535 319.315 77.3338 319.427V304.187H78.8928Z" fill="#DD8910"/>
<path d="M85.1198 302.056V317.228C84.5554 317.433 83.9909 317.63 83.4085 317.81V302.056H85.1198Z" fill="#DD8910"/>
<path d="M91.2398 298.787V314.583C90.6843 314.883 90.1019 315.165 89.5195 315.439V298.787H91.2398Z" fill="#DD8910"/>
<path d="M97.3415 295.211V310.613C96.8218 311.049 96.2663 311.469 95.6839 311.888V295.211H97.3415Z" fill="#DD8910"/>
<path d="M103.425 289.982V302.732C103.014 303.768 102.492 304.76 101.866 305.693V289.982H103.425Z" fill="#DD8910"/>
<path d="M62.2093 308.756C85.5265 308.756 104.429 298.336 104.429 285.482C104.429 272.627 85.5265 262.207 62.2093 262.207C38.8921 262.207 19.9898 272.627 19.9898 285.482C19.9898 298.336 38.8921 308.756 62.2093 308.756Z" fill="#FCA70D"/>
<path d="M89.994 327.949C74.6455 336.412 49.7636 336.412 34.442 327.949L33.7252 327.538L33.5729 327.624V357.282L34.4689 357.77C49.8084 366.232 74.6903 366.232 90.0209 357.77L90.9169 357.273V327.632L90.7645 327.547L89.994 327.949Z" fill="#ECE8F9"/>
<path d="M86.3565 336.146C72.1997 342.248 52.2189 342.248 38.0621 336.146V339.903C52.2189 346.004 72.1997 346.004 86.3565 339.903V336.146Z" fill="#8C50FF"/>
<path d="M68.9024 354.595C58.249 355.605 46.9952 354.184 38.0621 350.317V354.065C47.0221 357.915 58.249 359.336 68.9024 358.343V354.595Z" fill="#8C50FF"/>
<path d="M78.7405 345.816C65.6141 349.17 49.8355 348.332 38.0621 343.249V347.005C49.8355 352.071 65.6141 352.91 78.7405 349.573V345.816Z" fill="#8C50FF"/>
<path opacity="0.4" d="M367.853 325.87C410.85 325.87 445.706 306.65 445.706 282.94C445.706 259.231 410.85 240.011 367.853 240.011C324.856 240.011 289.999 259.231 289.999 282.94C289.999 306.65 324.856 325.87 367.853 325.87Z" fill="#D6D8E5"/>
<path d="M447.418 273.168L447.373 273.049C446.834 270.713 445.979 268.455 444.828 266.331L398.595 144.431H398.774V85.0122H344.96V144.431L298.942 266.426C297.815 268.521 296.978 270.747 296.451 273.049L296.406 273.168C293.628 285.559 300.841 298.505 318.098 308.02C347.81 324.407 395.996 324.407 425.717 308.02C442.983 298.505 450.204 285.559 447.418 273.168Z" fill="#E1EAFF"/>
<path d="M371.92 305.607C405.075 305.607 431.952 290.789 431.952 272.509C431.952 254.23 405.075 239.412 371.92 239.412C338.766 239.412 311.888 254.23 311.888 272.509C311.888 290.789 338.766 305.607 371.92 305.607Z" fill="#FCA70D"/>
<path d="M312.166 269.318L333.563 209.172H409.938L431.675 269.318H312.166Z" fill="#FCA70D"/>
<path d="M371.75 232.344C392.935 232.344 410.108 222.873 410.108 211.191C410.108 199.509 392.935 190.039 371.75 190.039C350.566 190.039 333.392 199.509 333.392 211.191C333.392 222.873 350.566 232.344 371.75 232.344Z" fill="#EF990F"/>
<path opacity="0.2" d="M371.616 144.08V282.94C355.147 282.94 338.688 279.458 326.117 272.527C311.234 264.321 305.159 253.094 307.883 242.424L309.675 237.735L318.815 213.673L319.218 212.586L344.96 144.431V87.2798L371.562 98.5406L371.616 144.08Z" fill="white"/>
<path d="M371.92 98.5062C387.424 98.5062 399.992 91.5759 399.992 83.0269C399.992 74.4779 387.424 67.5476 371.92 67.5476C356.417 67.5476 343.849 74.4779 343.849 83.0269C343.849 91.5759 356.417 98.5062 371.92 98.5062Z" fill="#D6DFF2"/>
<path d="M371.921 90.326C382.134 90.326 390.414 87.0581 390.414 83.027C390.414 78.9959 382.134 75.728 371.921 75.728C361.707 75.728 353.427 78.9959 353.427 83.027C353.427 87.0581 361.707 90.326 371.921 90.326Z" fill="#ACBAD1"/>
<path d="M367.028 71.0046C371.175 71.0046 374.537 67.7942 374.537 63.834C374.537 59.8737 371.175 56.6633 367.028 56.6633C362.882 56.6633 359.52 59.8737 359.52 63.834C359.52 67.7942 362.882 71.0046 367.028 71.0046Z" fill="#FCA70D"/>
<path opacity="0.2" d="M365.631 65.6821C367.65 65.6821 369.287 64.119 369.287 62.1909C369.287 60.2628 367.65 58.6997 365.631 58.6997C363.612 58.6997 361.975 60.2628 361.975 62.1909C361.975 64.119 363.612 65.6821 365.631 65.6821Z" fill="white"/>
<path opacity="0.2" d="M369.573 68.5744C370.375 68.5744 371.025 67.9538 371.025 67.1882C371.025 66.4226 370.375 65.802 369.573 65.802C368.772 65.802 368.122 66.4226 368.122 67.1882C368.122 67.9538 368.772 68.5744 369.573 68.5744Z" fill="white"/>
<path d="M393.388 51.3837C399.614 51.3837 404.66 46.5643 404.66 40.6192C404.66 34.6742 399.614 29.8547 393.388 29.8547C387.163 29.8547 382.117 34.6742 382.117 40.6192C382.117 46.5643 387.163 51.3837 393.388 51.3837Z" fill="#FCA70D"/>
<path opacity="0.2" d="M391.292 43.3918C394.32 43.3918 396.775 41.0472 396.775 38.155C396.775 35.2628 394.32 32.9182 391.292 32.9182C388.263 32.9182 385.808 35.2628 385.808 38.155C385.808 41.0472 388.263 43.3918 391.292 43.3918Z" fill="white"/>
<path opacity="0.2" d="M397.215 47.7387C398.417 47.7387 399.392 46.8078 399.392 45.6594C399.392 44.511 398.417 43.5801 397.215 43.5801C396.012 43.5801 395.038 44.511 395.038 45.6594C395.038 46.8078 396.012 47.7387 397.215 47.7387Z" fill="white"/>
<path d="M360.936 27.8696C368.952 27.8696 375.451 21.6634 375.451 14.0076C375.451 6.35177 368.952 0.145508 360.936 0.145508C352.919 0.145508 346.42 6.35177 346.42 14.0076C346.42 21.6634 352.919 27.8696 360.936 27.8696Z" fill="#FCA70D"/>
<path opacity="0.2" d="M358.229 17.5844C362.129 17.5844 365.29 14.5656 365.29 10.8417C365.29 7.11772 362.129 4.09888 358.229 4.09888C354.33 4.09888 351.169 7.11772 351.169 10.8417C351.169 14.5656 354.33 17.5844 358.229 17.5844Z" fill="white"/>
<path opacity="0.2" d="M365.855 23.1632C367.399 23.1632 368.65 21.9679 368.65 20.4935C368.65 19.019 367.399 17.8237 365.855 17.8237C364.311 17.8237 363.059 19.019 363.059 20.4935C363.059 21.9679 364.311 23.1632 365.855 23.1632Z" fill="white"/>
<path opacity="0.4" d="M389.563 399.519C407.585 399.519 422.195 391.462 422.195 381.524C422.195 371.585 407.585 363.529 389.563 363.529C371.54 363.529 356.93 371.585 356.93 381.524C356.93 391.462 371.54 399.519 389.563 399.519Z" fill="#D6D8E5"/>
<path d="M416.541 244.469C416.918 247.575 420.806 261.009 419.973 265.613C419.14 270.216 405.888 277.909 405.888 277.909L404.096 270.028L411.452 263.183L409.463 250.134L416.541 244.469Z" fill="#FFCEA9"/>
<path d="M406.264 231.231C407.557 230.659 409.025 230.559 410.389 230.952C411.753 231.345 412.919 232.202 413.665 233.362C415.618 236.459 417.652 247.053 417.831 248.875C417.831 248.875 415.09 252.495 410.977 251.887L406.264 231.231Z" fill="#EDEDED"/>
<path d="M391.095 380.976C388.203 381.738 385.113 381.381 382.494 379.983C380.424 380.043 369.179 375.448 367.647 379.307C366.312 382.73 371.177 385.819 373.785 386.418C379.465 387.736 383.64 390.44 385.943 390.893C387.646 391.236 389.841 391.467 391.203 390.192C392.824 388.66 392.681 382.995 391.095 380.976Z" fill="#38226D"/>
<path d="M385.943 389.961C383.667 389.499 379.465 386.795 373.785 385.485C371.607 384.981 367.844 382.696 367.468 379.983C366.966 383.098 371.356 385.862 373.785 386.418C379.465 387.736 383.64 390.44 385.943 390.893C387.646 391.236 389.841 391.467 391.203 390.192C391.551 389.818 391.805 389.373 391.946 388.891C391.102 389.503 390.119 389.918 389.077 390.104C388.035 390.289 386.962 390.24 385.943 389.961Z" fill="#9C73FF"/>
<path d="M409.329 373.155C406.437 373.921 403.345 373.564 400.727 372.162C398.657 372.222 387.412 367.627 385.889 371.486C384.545 374.866 389.419 377.998 392.018 378.597C397.698 379.915 401.874 382.619 404.177 383.081C405.879 383.423 408.083 383.646 409.436 382.371C411.058 380.839 410.914 375.174 409.329 373.155Z" fill="#38226D"/>
<path d="M404.177 382.14C401.901 381.678 397.699 378.974 392.018 377.664C389.841 377.16 386.078 374.883 385.746 372.162C385.244 375.277 389.635 378.041 392.018 378.597C397.699 379.915 401.874 382.619 404.177 383.081C405.879 383.423 408.083 383.646 409.436 382.371C409.785 381.997 410.039 381.552 410.18 381.07C409.335 381.682 408.353 382.097 407.311 382.283C406.269 382.468 405.196 382.419 404.177 382.14Z" fill="#9C73FF"/>
<path d="M409.553 343.985C409.07 339.997 408.2 336.061 406.954 332.228C406.954 332.228 407.734 322.079 408.119 312.453C408.558 301.534 412.527 291.916 409.391 283.214L374.116 290.701C374.116 290.701 376.248 334.239 376.723 339.475C376.981 343.576 377.511 347.657 378.309 351.694C379.913 360.149 382.529 380.249 382.529 380.249C386.266 382.319 391.158 381.173 391.158 381.173C391.158 381.173 390.889 355.75 390.647 349.658C390.36 342.222 390.118 342.812 390.118 342.812L391.283 324.304L392.045 315.097C392.045 315.097 393.021 321.857 393.658 327.932C394.213 333.195 395.548 337.961 397.035 347.758C398.326 356.264 400.413 373.352 400.413 373.352C404.15 375.423 409.212 373.703 409.212 373.703C409.212 373.703 410.556 351.361 409.553 343.985Z" fill="#8C50FF"/>
<path d="M404.401 231.411C401.713 231.539 399.715 232.198 399.374 231.411C399.087 230.086 398.883 228.746 398.765 227.398C399.069 226.653 399.338 225.858 399.338 225.858C402.716 223.872 403.818 220.39 404.221 216.334C404.983 209.403 401.059 203.336 393.801 202.643C386.973 201.967 381.956 206.545 380.621 212.834C379.895 215.94 378.461 221.802 380.406 226.91C381.49 229.768 382.888 232.044 384.285 232.472C385.638 232.44 386.988 232.329 388.326 232.138C388.326 232.138 388.694 234.064 388.936 235.296C389.178 236.528 389.088 237.187 386.516 238.718C383.945 240.25 390.405 243.348 394.634 243.048C398.863 242.749 403.594 240.301 404.929 237.692C406.372 234.757 406.246 231.325 404.401 231.411Z" fill="#FFCEA9"/>
<path d="M400.512 231.796C401.256 233.567 399.365 235.732 394.321 237.247C389.276 238.761 388.819 236.819 388.819 236.819C388.819 236.819 381.418 240.036 379.008 241.636C375.98 243.664 374.645 249.509 374.232 259.392C373.758 270.824 373.722 287.775 374.116 290.701C374.116 290.701 379.779 296.092 387.018 295.519C394.258 294.945 406.444 288.836 409.418 284.104C409.329 274.084 408.11 272.449 409.804 266.682C413.692 253.462 415.744 248.054 413.854 239.3C412.295 232.061 410.108 231.163 407.116 231.231C404.905 231.305 402.701 231.493 400.512 231.796Z" fill="#F4F4F4"/>
<path d="M362.88 270.756C368.83 272.185 370.218 268.608 371.007 265.621C372.897 258.451 373.91 251.93 375.326 247.9C376.983 243.091 378.721 242.33 381.167 241.388C384.035 240.293 386.543 242.612 385.549 248.722C384.42 255.952 382.933 261.035 380.101 269.592C379.366 271.825 377.709 275.795 375.218 277.712C372.154 280.082 367.539 279.98 360.55 278.32C357.567 277.61 354.278 275.915 348.661 273.4C347.146 272.724 345.973 272.279 343.07 270.987C340.153 269.736 337.595 267.831 335.615 265.433C334.092 263.328 333.894 262.336 334.199 261.856C334.504 261.377 335.283 261.386 336.09 262.276C337.27 263.768 338.721 265.046 340.373 266.049C340.373 266.049 338.491 264.201 337.478 262.994C336.564 261.929 335.807 260.749 335.23 259.486C334.692 258.263 335.794 256.594 336.636 257.467C337.478 258.34 337.882 259.238 339.423 260.992C340.231 261.933 341.154 262.778 342.174 263.508C341.222 262.273 340.374 260.969 339.638 259.606C338.996 258.536 338.685 257.313 338.742 256.081C338.742 255.439 339.736 254.677 340.623 255.892C341.51 257.107 341.95 258.699 343.822 260.547C345.175 261.899 346.331 262.669 346.367 262.301C346.403 261.933 345.542 261.189 345.059 259.623C344.575 258.057 345.059 256.397 345.955 256.2C346.851 256.004 346.689 256.063 347.415 257.535C348.141 259.007 349.261 260.102 350.103 262.224C350.56 263.732 351.397 265.11 352.54 266.238C353.965 267.752 357.19 269.395 362.88 270.756Z" fill="#FFCEA9"/>
<path d="M383.336 240.447C379.366 239.882 376.562 241.594 374.806 247.292C373.049 252.991 371.84 257.775 371.84 257.775C373.414 259.94 375.796 261.449 378.497 261.993C383.246 263.088 384.948 260.924 384.948 260.924C384.948 260.924 386.265 254.934 387.09 250.809C387.914 246.685 388.246 241.123 383.336 240.447Z" fill="#EDEDED"/>
<path d="M380.845 211.919C380.845 211.919 374.573 202.814 388.165 200.957C397.967 199.622 404.293 205.629 404.992 212.158C405.691 218.388 401.668 224.865 398.765 227.432C397.349 227.92 394.285 228.194 390.297 226.457C390.132 224.75 390.069 223.036 390.109 221.323C390.109 221.323 394.885 211.756 380.845 211.919Z" fill="#3A2C6D"/>
<path d="M412.966 252.264L374.116 286.834L371.84 353.312C371.84 353.312 382.735 358.386 395.136 355.639L397.376 330.071L400.826 353.277L400.413 353.988C406.283 351.479 411.317 347.477 414.964 342.419L412.966 252.264Z" fill="#F4F4F4"/>
<path d="M371.84 257.775L369.931 265.792C369.931 265.792 368.31 271.414 364.17 269.985C360.228 268.405 356.387 266.605 352.666 264.594L347.648 274.426L358.033 279.073C358.033 279.073 372.44 283.976 376.445 279.073C380.451 274.17 384.948 260.924 384.948 260.924L371.84 257.775Z" fill="#EDEDED"/>
<path d="M417.832 248.875L419.516 256.525C419.516 256.525 420.331 262.284 420.412 263.371C420.493 264.457 420.977 266.408 417.652 269.566C414.328 272.723 413.441 273.682 413.441 273.682L412.984 255.712L413.943 251.571L416.729 248.217L417.832 248.875Z" fill="#EDEDED"/>
</svg>
