<svg width="36" height="36" viewBox="0 0 36 36" fill="none" xmlns="http://www.w3.org/2000/svg">
<path d="M23.4 17.9997C23.4 19.4319 22.831 20.8054 21.8183 21.8181C20.8057 22.8308 19.4321 23.3997 18 23.3997C16.5678 23.3997 15.1943 22.8308 14.1816 21.8181C13.1689 20.8054 12.6 19.4319 12.6 17.9997C12.6 17.6919 12.6324 17.3913 12.6882 17.0997H10.8V24.2943C10.8 24.7947 11.205 25.1997 11.7054 25.1997H24.2964C24.5362 25.1992 24.766 25.1036 24.9354 24.9339C25.1048 24.7642 25.2 24.5341 25.2 24.2943V17.0997H23.3118C23.3676 17.3913 23.4 17.6919 23.4 17.9997V17.9997ZM18 21.5997C18.4728 21.5996 18.9411 21.5064 19.3779 21.3253C19.8147 21.1442 20.2116 20.8789 20.5459 20.5444C20.8802 20.21 21.1454 19.8129 21.3262 19.376C21.5071 18.9391 21.6001 18.4708 21.6 17.9979C21.5999 17.525 21.5066 17.0568 21.3255 16.62C21.1445 16.1832 20.8791 15.7863 20.5447 15.452C20.2102 15.1177 19.8132 14.8525 19.3762 14.6717C18.9393 14.4908 18.471 14.3978 17.9982 14.3979C17.0432 14.3982 16.1273 14.7778 15.4522 15.4532C14.7771 16.1287 14.3979 17.0447 14.3982 17.9997C14.3984 18.9547 14.778 19.8706 15.4535 20.5457C16.129 21.2208 17.045 21.6 18 21.5997V21.5997ZM22.32 14.2197H24.4782C24.6216 14.2197 24.7591 14.1629 24.8606 14.0617C24.9622 13.9605 25.0195 13.8231 25.02 13.6797V11.5215C25.02 11.3778 24.9629 11.24 24.8613 11.1384C24.7597 11.0368 24.6219 10.9797 24.4782 10.9797H22.32C22.1763 10.9797 22.0385 11.0368 21.9369 11.1384C21.8353 11.24 21.7782 11.3778 21.7782 11.5215V13.6797C21.78 13.9767 22.023 14.2197 22.32 14.2197V14.2197ZM18 0.719727C13.417 0.719727 9.02179 2.54029 5.78117 5.78092C2.54054 9.02155 0.719971 13.4168 0.719971 17.9997C0.719971 22.5827 2.54054 26.9779 5.78117 30.2185C9.02179 33.4592 13.417 35.2797 18 35.2797C20.2692 35.2797 22.5162 34.8328 24.6127 33.9644C26.7092 33.096 28.6142 31.8231 30.2188 30.2185C31.8234 28.6139 33.0962 26.709 33.9646 24.6125C34.833 22.516 35.28 20.269 35.28 17.9997C35.28 15.7305 34.833 13.4835 33.9646 11.387C33.0962 9.29045 31.8234 7.38552 30.2188 5.78092C28.6142 4.17632 26.7092 2.90349 24.6127 2.03509C22.5162 1.16669 20.2692 0.719727 18 0.719727V0.719727ZM27 24.9999C27 26.0997 26.1 26.9997 25.0002 26.9997H10.9998C9.89997 26.9997 8.99997 26.0997 8.99997 24.9999V10.9995C8.99997 9.89973 9.89997 8.99973 10.9998 8.99973H25.0002C26.1 8.99973 27 9.89973 27 10.9995V24.9999V24.9999Z" fill="#5680E9"/>
</svg>
