<svg width="57" height="49" viewBox="0 0 57 49" fill="none" xmlns="http://www.w3.org/2000/svg">
<g opacity="0.5">
<path d="M18.7782 22.5262C17.607 22.5296 16.4565 22.7921 15.4374 23.2884C16.8722 20.096 19.2518 17.2809 22.3407 15.1218C22.5175 14.9967 22.6638 14.8428 22.7714 14.6691C22.879 14.4954 22.9457 14.3051 22.9678 14.1092C22.9898 13.9133 22.9668 13.7156 22.8999 13.5273C22.8331 13.3391 22.7238 13.164 22.5782 13.0121C22.4327 12.8601 22.2538 12.7343 22.0517 12.6418C21.8496 12.5494 21.6282 12.492 21.4004 12.473C21.1725 12.4541 20.9425 12.4739 20.7235 12.5313C20.5045 12.5888 20.3008 12.6828 20.1241 12.8079C13.7907 17.2315 10.9724 23.3565 10.9724 27.154C10.9833 28.4967 11.4488 29.8077 12.312 30.9268C13.1752 32.0459 14.3987 32.9247 15.8332 33.4559C16.7617 33.8426 17.7783 34.0471 18.8099 34.0548C19.7179 34.0928 20.6254 33.9718 21.4773 33.6992C22.3293 33.4267 23.108 33.0082 23.7662 32.4692C24.4244 31.9302 24.9485 31.2819 25.3065 30.5636C25.6646 29.8453 25.8492 29.072 25.8492 28.2905C25.8492 27.5091 25.6646 26.7357 25.3065 26.0174C24.9485 25.2991 24.4244 24.6508 23.7662 24.1118C23.108 23.5729 22.3293 23.1544 21.4773 22.8818C20.6254 22.6093 19.7179 22.4883 18.8099 22.5262H18.7782Z" fill="white"/>
<path d="M36.4166 22.5262C35.2451 22.5283 34.0942 22.7909 33.0757 23.2884C34.5099 20.0992 36.8832 17.2851 39.9632 15.1217C40.156 15.0023 40.3183 14.8502 40.4401 14.6748C40.562 14.4994 40.6408 14.3044 40.6717 14.1018C40.7026 13.8993 40.6849 13.6934 40.6198 13.497C40.5547 13.3005 40.4436 13.1176 40.2931 12.9594C40.1427 12.8013 39.9562 12.6712 39.7452 12.5774C39.5341 12.4835 39.3029 12.4277 39.0659 12.4135C38.8288 12.3993 38.5909 12.427 38.3667 12.4948C38.1425 12.5626 37.9369 12.6691 37.7624 12.8078C31.4291 17.2314 28.6107 23.3564 28.6107 27.1539C28.6182 28.4815 29.0701 29.7791 29.9124 30.8917C30.7547 32.0044 31.9518 32.8851 33.3607 33.4287C34.3126 33.8266 35.3581 34.0315 36.4166 34.0275C37.3245 34.0655 38.232 33.9445 39.084 33.6719C39.9359 33.3994 40.7146 32.9809 41.3729 32.4419C42.0311 31.9029 42.5551 31.2546 42.9131 30.5363C43.2712 29.818 43.4558 29.0447 43.4558 28.2632C43.4558 27.4818 43.2712 26.7085 42.9131 25.9902C42.5551 25.2719 42.0311 24.6236 41.3729 24.0846C40.7146 23.5456 39.9359 23.1271 39.084 22.8545C38.232 22.582 37.3245 22.461 36.4166 22.4989V22.5262Z" fill="white"/>
</g>
</svg>
