<svg width="44" height="30" viewBox="0 0 44 30" fill="none" xmlns="http://www.w3.org/2000/svg">
<path d="M42.8369 4.57472C42.5879 3.68886 42.0996 2.88102 41.4209 2.23203C40.7422 1.58304 39.897 1.11568 38.9697 0.876704C35.5566 1.77892e-07 21.875 0 21.875 0C21.875 0 8.19336 -1.77892e-07 4.78027 0.872041C3.85264 1.11024 3.00696 1.57735 2.32815 2.22645C1.64935 2.87556 1.16132 3.68382 0.913086 4.57005C-1.86265e-07 7.83438 0 14.6428 0 14.6428C0 14.6428 -1.86265e-07 21.4513 0.913086 24.7109C1.41602 26.511 2.90039 27.9286 4.78027 28.4089C8.19336 29.2856 21.875 29.2856 21.875 29.2856C21.875 29.2856 35.5566 29.2856 38.9697 28.4089C40.8545 27.9286 42.334 26.511 42.8369 24.7109C43.75 21.4513 43.75 14.6428 43.75 14.6428C43.75 14.6428 43.75 7.83438 42.8369 4.57472ZM17.5293 20.8917V8.39397L28.8574 14.5962L17.5293 20.8917Z" fill="#5680E9"/>
</svg>
